<svg xmlns="http://www.w3.org/2000/svg" xmlns:xlink="http://www.w3.org/1999/xlink" viewBox="0 0 400 400"><defs><style>.cls-1,.cls-5,.cls-6,.cls-7,.cls-76,.cls-77,.cls-78,.cls-79,.cls-8,.cls-81{fill:none;}.cls-2{clip-path:url(#clip-path);}.cls-3{fill:#b3defe;}.cls-4{fill:#006994;}.cls-5,.cls-6,.cls-7,.cls-8{stroke:#191817;stroke-linejoin:bevel;}.cls-5{stroke-width:0.75px;}.cls-6,.cls-76,.cls-77,.cls-78,.cls-79{stroke-width:0.5px;}.cls-7{stroke-width:2px;}.cls-9{fill:#34271b;}.cls-10{fill:#aa6d35;}.cls-11{fill:#ce9257;}.cls-12{fill:#bf8660;}.cls-13{fill:#a56b41;}.cls-14{fill:#dbab7f;}.cls-15{fill:#302210;}.cls-16{fill:#ba7d47;}.cls-17{fill:#231705;}.cls-18{fill:#9b7046;}.cls-19{fill:#110f0d;}.cls-20{fill:#cec8bc;}.cls-21{fill:#d8d2c7;}.cls-22{fill:#161310;}.cls-23{fill:#b7b3ac;}.cls-24{fill:#cecac0;}.cls-25{fill:#c4beb5;}.cls-26{fill:#eae4d5;}.cls-27{fill:#593116;}.cls-28{fill:#231304;}.cls-29{fill:#9f826b;}.cls-30{fill:#040307;}.cls-31{fill:#8b8066;}.cls-32{fill:#b4987f;}.cls-33{fill:#99806e;}.cls-34{fill:#b79d83;}.cls-35{fill:#29190d;}.cls-36{fill:#998371;}.cls-37{fill:#bfac93;}.cls-38{fill:#91806b;}.cls-39{fill:#877163;}.cls-40{fill:#120407;}.cls-41{fill:#e4eff2;}.cls-42{fill:#bc8561;}.cls-43{fill:#c1bdb8;}.cls-44{fill:#131419;}.cls-45{fill:#a37252;}.cls-46{fill:#c48357;}.cls-47{fill:#cc8a5e;}.cls-48{fill:#b77548;}.cls-49{fill:#d1bcb0;}.cls-50{fill:#342822;}.cls-51{fill:#d1946b;}.cls-52{fill:#dfdad2;}.cls-53{fill:#212328;}.cls-54{fill:#d3c8c1;}.cls-55{fill:#d36113;}.cls-56{fill:#ed8218;}.cls-57{fill:#f9dfc5;}.cls-58{fill:#c60c16;}.cls-59{fill:#071f2b;}.cls-60{fill:#494543;}.cls-61{fill:#6d6762;}.cls-62{fill:#a7a9af;}.cls-63{fill:#9e8577;}.cls-64{fill:#ad9586;}.cls-65{fill:#75706b;}.cls-66{fill:#3a3a37;}.cls-67{fill:#2e3039;}.cls-68{fill:#474646;}.cls-69{fill:#6d6b6a;}.cls-70{fill:#605c5a;}.cls-71{fill:#384936;}.cls-72{fill:#001b69;}.cls-73{fill:#f7f7f7;}.cls-74{fill:#c90a2b;}.cls-75{fill:#c6062f;}.cls-76{stroke:#84121d;}.cls-76,.cls-77,.cls-78,.cls-79,.cls-81{stroke-miterlimit:10;}.cls-77,.cls-78,.cls-79{stroke:#7c2929;}.cls-78{stroke-dasharray:4.06 4.06;}.cls-79{stroke-dasharray:4.91 4.91;}.cls-80{fill:#d8d6d6;}.cls-81{stroke:#cecccc;}.cls-82{fill:#e5e4e3;}</style><clipPath id="clip-path"><circle class="cls-1" cx="200" cy="200" r="150"/></clipPath></defs><g id="Layer_1" data-name="Layer 1"><g id="Aus"><g class="cls-2"><polygon class="cls-3" points="20.85 217.5 385.59 217.76 359.09 42.88 36.73 37.45 20.85 217.5"/><polygon class="cls-4" points="50 200 389.15 200 287.85 358.37 86.08 358.37 24.41 199.74 50 200"/><line class="cls-5" x1="314.08" y1="193.37" x2="377.5" y2="193.37"/><polyline class="cls-6" points="314.08 191.28 316.48 187.02 320.89 193.37 325.48 186.65 330.23 193.37 334.93 186.65 339.23 193.37 343.66 186.65 347.63 193.37 351.95 186.65 354.7 191.22 355.92 193.37 360.15 186.74 363.49 193.37"/><line class="cls-7" x1="376.27" y1="186.74" x2="30.78" y2="186.74"/><line class="cls-5" x1="30.78" y1="193.74" x2="71.39" y2="193.74"/><polyline class="cls-6" points="30.78 191.65 33.17 187.38 37.59 193.74 42.18 187.01 46.92 193.74 51.63 187.01 55.93 193.74 60.35 187.01 64.33 193.74 68.64 187.01 71.39 191.59"/><path class="cls-8" d="M298.83,207.66s-55.15-52.14-108.6-52.14S86.08,207.66,86.08,207.66"/><path class="cls-8" d="M86.08,178.79s48.16-31.62,105.42-31.62,107.33,31.62,107.33,31.62"/><polyline class="cls-5" points="86.87 206.87 86.87 178.28 97.06 197.6 97.06 172.47 106.36 190.06 106.36 167.82 116.59 182.63 116.59 163.28 125.04 177.12 125.04 159.96 134.04 171.88 134.04 156.83 142.53 167.54 142.53 154.26 151.25 163.73 151.25 152.02 158.9 160.93 158.9 150.39 167.53 158.43 167.53 148.94 175.24 156.82 175.24 148 183.36 155.51 183.36 147.38 190.23 155.51"/><polyline class="cls-5" points="295.19 204.91 295.19 176.64 285 195.64 285 171.15 275.69 189.09 275.69 166.97 265.48 181.59 265.48 162.91 257.02 177.12 257.02 159.58 248.03 171.88 248.03 156.47 239.53 167.54 239.53 153.91 230.81 163.73 230.81 152.02 223.16 160.93 223.16 150.39 214.53 158.43 214.53 148.94 206.82 156.82 206.82 148 198.7 155.51 198.7 147.34 191.83 155.51"/><line class="cls-5" x1="191.18" y1="186.3" x2="191.18" y2="147.18"/><line class="cls-5" x1="183.36" y1="155.22" x2="183.36" y2="186.3"/><line class="cls-5" x1="175.24" y1="156.47" x2="175.24" y2="186.3"/><line class="cls-5" x1="158.9" y1="160.44" x2="158.9" y2="186.3"/><line class="cls-5" x1="167.53" y1="158.03" x2="167.53" y2="186.3"/><line class="cls-5" x1="151.25" y1="163.14" x2="151.25" y2="186.3"/><line class="cls-5" x1="142.53" y1="166.82" x2="142.53" y2="186.3"/><line class="cls-5" x1="134.04" y1="171" x2="134.04" y2="186.3"/><line class="cls-5" x1="125.04" y1="176.05" x2="125.04" y2="186.3"/><line class="cls-5" x1="116.59" y1="181.37" x2="116.59" y2="186.3"/><line class="cls-5" x1="198.7" y1="155.22" x2="198.7" y2="186.3"/><line class="cls-5" x1="206.82" y1="156.47" x2="206.82" y2="186.3"/><line class="cls-5" x1="214.53" y1="158.03" x2="214.53" y2="186.3"/><line class="cls-5" x1="223.16" y1="160.44" x2="223.16" y2="186.3"/><line class="cls-5" x1="230.81" y1="163.14" x2="230.81" y2="186.3"/><line class="cls-5" x1="239.53" y1="166.82" x2="239.53" y2="186.3"/><line class="cls-5" x1="248.02" y1="171" x2="248.02" y2="186.3"/><line class="cls-5" x1="257.02" y1="176.05" x2="257.02" y2="186.3"/><line class="cls-5" x1="265.47" y1="180.37" x2="265.47" y2="186.3"/><rect class="cls-9" x="84.23" y="177.15" width="3.07" height="3.95"/><rect class="cls-9" x="85.19" y="205.1" width="3.16" height="4"/><rect class="cls-10" x="70.36" y="204.17" width="14.83" height="5.27"/><path class="cls-11" d="M84.23,173.49v30.68H71.32V173.49a12.4,12.4,0,0,0,.56-2.34,18.93,18.93,0,0,0,0-2.14,1,1,0,0,1,.6-.2h10.6a1.05,1.05,0,0,1,.6.2,12.26,12.26,0,0,0,.09,2.14C83.9,172.1,84.23,173.49,84.23,173.49Z"/><path class="cls-12" d="M72.25,168.82v-1.73a.85.85,0,0,1,.8-.9h9.46a.85.85,0,0,1,.79.9v1.73Z"/><path class="cls-13" d="M73.63,166.19l1.3-3.49a.7.7,0,0,1,.64-.5H80a.69.69,0,0,1,.64.51l1.3,3.48Z"/><polygon class="cls-14" points="80.86 187.01 74.69 187.01 74.69 185.39 76.25 185.39 80.86 185.39 80.86 187.01"/><path class="cls-15" d="M79.63,185.39H75.92c0-2.89.83-5.22,1.86-5.22S79.63,182.5,79.63,185.39Z"/><path class="cls-16" d="M84.23,173.49H71.32a12.4,12.4,0,0,0,.56-2.34,18.93,18.93,0,0,0,0-2.14v-.2h11.8v.2a12.26,12.26,0,0,0,.09,2.14C83.9,172.1,84.23,173.49,84.23,173.49Z"/><rect class="cls-17" x="31.13" y="208.96" width="63.79" height="2.9"/><rect class="cls-9" x="298.53" y="177.15" width="3.07" height="3.95" transform="translate(600.14 358.25) rotate(-180)"/><rect class="cls-9" x="297.48" y="205.1" width="3.16" height="4" transform="translate(598.13 414.2) rotate(-180)"/><rect class="cls-18" x="300.65" y="204.17" width="14.83" height="5.27"/><path class="cls-11" d="M301.61,173.49v30.68h12.91V173.49a12.4,12.4,0,0,1-.56-2.34,18.93,18.93,0,0,1,0-2.14,1,1,0,0,0-.61-.2H302.76a1.05,1.05,0,0,0-.6.2,11.51,11.51,0,0,1-.1,2.14C301.93,172.1,301.61,173.49,301.61,173.49Z"/><path class="cls-12" d="M313.58,168.82v-1.73a.85.85,0,0,0-.79-.9h-9.46a.85.85,0,0,0-.8.9v1.73Z"/><path class="cls-13" d="M312.2,166.19l-1.29-3.49a.71.71,0,0,0-.65-.5h-4.4a.7.7,0,0,0-.65.51l-1.29,3.48Z"/><polygon class="cls-14" points="304.97 187.01 311.15 187.01 311.15 185.39 309.59 185.39 304.97 185.39 304.97 187.01"/><path class="cls-15" d="M306.21,185.39h3.7c0-2.89-.82-5.22-1.86-5.22S306.21,182.5,306.21,185.39Z"/><path class="cls-16" d="M301.61,173.49h12.91a12.4,12.4,0,0,1-.56-2.34,18.93,18.93,0,0,1,0-2.14v-.2h-11.8v.2a11.51,11.51,0,0,1-.1,2.14C301.93,172.1,301.61,173.49,301.61,173.49Z"/><rect class="cls-17" x="290.92" y="208.96" width="63.79" height="2.9" transform="translate(645.62 420.83) rotate(-180)"/><polyline class="cls-6" points="363.49 193.37 367.44 186.65 370.51 193.37 374.47 186.65"/><polygon class="cls-19" points="336.16 184.86 315.95 231.05 310.75 231.05 336.16 184.86"/><path class="cls-20" d="M336.16,184.86l-24,46.08-3,.07-1.5,0L274.84,198a32.14,32.14,0,0,1,3.37-2.92,34.4,34.4,0,0,1,5.57-3.5A81.14,81.14,0,0,1,310,183.77C322.12,182.3,336.16,184.86,336.16,184.86Z"/><path class="cls-21" d="M345.07,210.73l-11.34,19.76-.32.56-3-.56s-6.56-13.16-8.45-16.53-5.92-9.85-5.92-9.85a115.19,115.19,0,0,1,16.45,2.57c4.74,1.27,9.23,2.82,11.34,3.59l1.24.45Z"/><path class="cls-22" d="M137.06,225.67l-3.62-4.13s11.6-4.82,16.41-5.73a51.81,51.81,0,0,1,8-1l.73,9.19-9.74,3.64Z"/><path class="cls-22" d="M396.27,201.93s-7.07,7.15-9.59,10.11a91.21,91.21,0,0,0-5.71,7.9l-20.38,15.48,3.49-15.48Z"/><path class="cls-21" d="M345.08,210.73s11.84-4.37,15.57-5.22,11.45-3.3,20.87-3.78a92.21,92.21,0,0,1,14.75.2s-13.21,9.27-20.23,15.4-17.65,21-17.65,21L349.53,236Z"/><path class="cls-23" d="M356.69,237.8s-6.8-18-7.11-19.33-2.16-8.6-2.16-8.6l-2.34.86,6.78,23.05,4.13,4Z"/><path class="cls-23" d="M345.07,210.73l-10.85,20-.35-.1-.18-.07s4.67-10.16,5.55-12a64.1,64.1,0,0,1,4.57-8.21l1.24.45Z"/><path class="cls-24" d="M333.55,230.55s3.87-8,4.76-9.48a110.43,110.43,0,0,1,6.77-10.34s3.11,10,4.63,13.51c3.2,7.46,6.63,13.56,6.63,13.56l-23.43-3.27Z"/><path class="cls-25" d="M309.19,231.05h-1.54L274.84,198a32.14,32.14,0,0,1,3.37-2.92l30.94,36Z"/><path class="cls-24" d="M274.84,198l19.94,18.48c3.7,3.42,12.86,14.6,12.86,14.6L269.4,232Z"/><polygon class="cls-24" points="274.84 197.96 231.65 232.84 269.4 231.96 274.84 197.96"/><polygon class="cls-25" points="272.82 194.29 274.84 197.96 231.56 234.12 227.33 233.01 272.82 194.29"/><polygon class="cls-26" points="224.28 233.01 218.41 196.69 215.69 213.25 221.44 233.7 224.28 233.01"/><path class="cls-24" d="M223.35,233a46.5,46.5,0,0,1-5.4-18.9,93.43,93.43,0,0,1,.46-17.43l-3-14-26.45,37.83L188,234.25Z"/><path class="cls-25" d="M214.37,179l1.32,4.92s-8.15,12.39-10.31,15.71-11.56,20.79-11.56,20.79L192.16,222l6.4-29.27Z"/><polygon class="cls-27" points="189.32 229.09 193.3 220 217.8 223.3 222.06 234.51 189.32 229.09"/><polygon class="cls-26" points="187.44 229.14 184.04 204.75 176.93 204.55 181.53 228.7 187.44 229.14"/><path class="cls-24" d="M186.44,229.3s-3.33-7.22-3.3-14.13c0-7.92.9-10.42.9-10.42l-1.89-12.55L163,205.45l-4.47,16.09Z"/><polygon class="cls-27" points="158.93 221.6 162.88 214.85 180.28 218.62 184.56 228.36 158.93 221.6"/><polygon class="cls-28" points="160.95 221.5 163.75 215.81 179.33 219.33 181.9 226.98 181.9 230.31 161.92 227.74 160.95 221.5"/><polygon class="cls-28" points="191.38 229.06 194.66 221.21 215.49 223.88 218.54 232.87 219.02 236.39 200.66 235.27 191.38 229.06"/><path class="cls-28" d="M232.91,232.81l14.81-11.61s8.67,1.53,12.67,2.81,8.34,2.85,8.34,2.85v5.65l1,3.45-37.13-.88Z"/><path class="cls-28" d="M271.62,232v-5.77s9.46-2.25,15-2.57,11.94,0,11.94,0a39.89,39.89,0,0,1,3.85,4.07,18.57,18.57,0,0,1,1.85,3.55v2.88l-32.32-.56Z"/><path class="cls-28" d="M334.09,230.6l2.47-4.67h12.83s1.09,2.2,2.54,5.65c.76,1.82,1.8,5.32,1.8,5.32l-14.4,1.39Z"/><polygon class="cls-22" points="372.51 223.03 382.95 223.03 398.09 230.79 395.42 235.42 360.59 235.42 372.51 223.03"/><polygon class="cls-22" points="382.92 223.03 382.92 213.59 372.49 223.03 382.92 223.03"/><polygon class="cls-22" points="325.67 220.68 331.53 231.59 320.26 231.59 316.43 227.22 325.67 220.68"/><rect class="cls-29" x="358.39" y="235.42" width="51.47" height="2.91"/><polygon class="cls-30" points="358.39 240.16 409.49 239.53 423.22 243.75 423.22 253.61 358.39 253.61 358.39 240.16"/><polygon class="cls-31" points="358.39 238.34 409.85 238.34 423.22 242.65 423.22 244.65 409.85 240.47 358.39 240.47 358.39 238.34"/><polygon class="cls-32" points="137.06 233.22 137.06 225.67 149.55 225.67 157.26 221.54 165.43 221.54 187.44 229.14 200.9 229.14 215.45 233.22 333.55 230.43 343.85 234.29 345.69 234.29 358.39 238.34 358.39 253.61 137.06 252.88 137.06 233.22"/><polygon class="cls-33" points="132.15 239.92 132.15 231.98 135.08 231.98 153.14 243.23 155.41 243.23 165.43 248.24 165.43 250.72 132.15 250.72 132.15 239.92"/><rect class="cls-34" x="127.36" y="239.21" width="19.4" height="11.51"/><rect class="cls-35" x="175.27" y="237.58" width="11.34" height="1.09"/><polygon class="cls-35" points="216.67 237.06 265.33 236.12 265.33 237.06 216.67 238.12 216.67 237.06"/><polygon class="cls-35" points="300.25 235.65 339.15 234.87 339.15 236.2 300.25 237.14 300.25 235.65"/><polygon class="cls-36" points="187.44 229.14 200.9 229.14 215.45 233.22 215.45 250.72 187.44 250.72 187.44 229.14"/><rect class="cls-35" x="189.72" y="237.58" width="24.06" height="0.55"/><rect class="cls-37" x="90.12" y="249.83" width="333.81" height="9.29"/><rect class="cls-38" x="90.12" y="256.79" width="333.81" height="8"/><polygon class="cls-39" points="205.29 239.93 204.84 245.08 213.78 245.08 213.78 239.93 205.29 239.93"/><rect class="cls-39" x="194.19" y="230.85" width="6.62" height="3.4"/><polygon class="cls-39" points="278.5 238.12 284.67 238.12 283.42 243.74 276.98 243.74 278.5 238.12"/><rect class="cls-40" x="278.37" y="243.74" width="4.43" height="6.09"/><path class="cls-21" d="M181.49,188.91s-10.76-3-18-3.22-19.85,1-19.85,1l13.65,34.81h1.27s8.53-13.42,12.49-17.94,11.13-11.4,11.13-11.4Z"/><path class="cls-21" d="M178.72,170.12l8.72,59,1.88,0s9.69-22.85,14.63-32S214.37,179,214.37,179a125.85,125.85,0,0,0-16.91-6A157.28,157.28,0,0,0,178.72,170.12Z"/><path class="cls-21" d="M224.28,233s-9.32-52.64-12.39-62.89c-3.17-10.6-6.69-23.06-6.69-23.06s21.77,4.12,31.39,9.87a114.48,114.48,0,0,1,22.74,17.61c6,6,13.49,19.75,13.49,19.75l-43.1,38.59Z"/><path class="cls-25" d="M274.84,198s-4.46,17.31-5.06,21.63-1,7.27-1,7.27V232h2.89v-5.77s1.11-15,1.2-16.2S274.84,198,274.84,198Z"/><ellipse class="cls-41" cx="85.81" cy="115.63" rx="25.18" ry="8.53"/><ellipse class="cls-41" cx="107.91" cy="105.94" rx="17.13" ry="13.18"/><ellipse class="cls-41" cx="122.73" cy="112.73" rx="24.56" ry="11.43"/><ellipse class="cls-41" cx="165.58" cy="89.12" rx="19.65" ry="10.82"/><ellipse class="cls-41" cx="179.21" cy="79.29" rx="17.44" ry="11.28"/><ellipse class="cls-41" cx="186.59" cy="88.58" rx="17.95" ry="9.29"/><ellipse class="cls-41" cx="284.03" cy="114.52" rx="15.76" ry="10.29"/><ellipse class="cls-41" cx="293.42" cy="108.02" rx="14.2" ry="10.15"/><ellipse class="cls-41" cx="310.85" cy="118.17" rx="18.53" ry="10.12"/></g></g></g><g id="Layer_2" data-name="Layer 2"><g id="NEW_AUS" data-name="NEW AUS"><path class="cls-42" d="M201.85,353.28c-4.67.59-34.08-.29-34.08-.29l-2.92-20.52-3.48-24.41,16.32-10s2.38,5,1.87,9c-.45,3.53-2.27,8.14-3.44,11.26h0l-.42,1.13c-1.1,3.05-3.35,10.89-3.35,13.94s-1.14,11.1,1.66,11.95,13.14-.49,14.84,1.09,5.66,1.57,6.42,1.73S206.51,352.68,201.85,353.28Z"/><path class="cls-43" d="M201.85,353.28c-2.92.37-15.52.16-24.56,0-5.4-.13-9.52-.25-9.52-.25l-2.92-20.52,2.23-2.15a14.13,14.13,0,0,0,3.9-5.62c1.12-3.27,5-6.32,5.13-6.41l-.42,1.13c-1.1,3.05-3.35,10.89-3.35,13.94s-1.14,11.1,1.66,11.95c2.27.68,9.49-.06,13.05.47a3.57,3.57,0,0,1,1.79.62c1.7,1.58,5.66,1.57,6.42,1.73S206.51,352.68,201.85,353.28Z"/><path class="cls-44" d="M201.85,353.28c-2.92.37-15.52.16-24.56,0,2.93-2.52,7.57-6.48,8.4-7a4.8,4.8,0,0,1,1.36-.44,3.57,3.57,0,0,1,1.79.62c1.7,1.58,5.66,1.57,6.42,1.73S206.51,352.68,201.85,353.28Z"/><path class="cls-45" d="M155.5,323.08s-.92,1.88-2.41,4.68h0c-4.09,7.71-12.52,22.41-18.17,24.26-7.7,2.54-56.95,2-58.43.35s18.7-5.11,23.34-5.95,23.83-1.73,28.58-2.05a2.22,2.22,0,0,0,1.17-.46c4.3-3,8.22-19.77,9.8-22.38,1.72-2.85,1-8.41,1-8.41Z"/><path class="cls-43" d="M194.51,297.93a5.75,5.75,0,0,1-1.52,2.9,23.38,23.38,0,0,1-2.05,2.23l-2.1-3.35V289.08l1.79-2.95s3.35,8.65,3.83,11.3A3.79,3.79,0,0,1,194.51,297.93Z"/><path class="cls-44" d="M194.51,297.93a5.75,5.75,0,0,1-1.52,2.9l-.68-.81s.59-1.19.9-1.89a1.43,1.43,0,0,1,1.25-.7A3.79,3.79,0,0,1,194.51,297.93Z"/><path class="cls-46" d="M194.87,261.71s1.59,3.7.79,10.42-7.13,23.89-14.23,28.79-21.21,15.36-21.21,15.36-1.12,10.22-12.13,6.62c-11.67-3.82-9.66-19.49-7-27.26s7.87-16.41,16.51-21.12a136.61,136.61,0,0,0,17.47-11c3.26-2.5,7.19-8.83,7.19-8.83Z"/><path class="cls-47" d="M195.9,240.29s-1.26-7.13,2-9.51,8-5,9.87-3.55-.44,10.47-1.93,12.47-6.3,3.79-6.3,3.79Z"/><path class="cls-47" d="M188.58,238.23s-.34-5.5-2.46-8-7.67-6.07-9.51-5.35-1.74,8.4-.72,11.06,6,7.16,6,7.16Z"/><path class="cls-48" d="M196.39,240.72s.25-3.3,1.48-5,3.44-3.48,4.64-3,1.79,4.72.54,6.06a46.88,46.88,0,0,1-4.51,3.77Z"/><path class="cls-48" d="M183.59,241.84s-3.16-3.08-3.79-4.36-.4-5.3.62-5.53,4.05,2.05,4.83,3.45a17.7,17.7,0,0,1,1.48,4.17Z"/><path class="cls-47" d="M198.15,259.25c.49-.81,1-1.68,1.47-2.58,2.49-4.51-.1-13.18-.1-13.18s-3.17-5.25-8.43-5.59-9.2,5.17-9.2,5.17-1.59,9.46-.56,13.11c.63,2.2,3.76,4.88,6.63,6.68a12.26,12.26,0,0,0,4.56,2c1.31,0,2.71-1.31,4.15-3.34l0,0c.48-.68,1-1.43,1.46-2.25"/><path class="cls-49" d="M196.69,261.5l0,0a12.13,12.13,0,0,1-2.32,2.59,3,3,0,0,1-1.83.75,5.67,5.67,0,0,1-1.89-.57,20.72,20.72,0,0,1-2.67-1.45s-.84-2.42.57-2.92,6.82-.8,7.74,0A1.19,1.19,0,0,1,196.69,261.5Z"/><path class="cls-50" d="M190.94,261.11s-.9-.4-1.08-.73-.6-2.34.18-2.69,4.19-.4,4.78.31a2.8,2.8,0,0,1,.29,2.44,6.57,6.57,0,0,1-2.48,1.27A5.83,5.83,0,0,1,190.94,261.11Z"/><ellipse class="cls-50" cx="186.12" cy="249.35" rx="1.66" ry="1.12" transform="matrix(0.07, -1, 1, 0.07, -74.83, 418.83)"/><ellipse class="cls-50" cx="197.53" cy="250.1" rx="1.66" ry="1.12" transform="matrix(0.07, -1, 1, 0.07, -64.91, 430.91)"/><path class="cls-51" d="M193.21,303.65a9.54,9.54,0,0,1-.39,1.68,4.8,4.8,0,0,1-2.45,3.05c-1.26.54-2-.65-2.41-2.49a20.24,20.24,0,0,1-.42-2.82c-.19-1.95-.22-4-.26-5.51-.09-3.94-5.85-9.21-5.85-9.21s-4.8-5.09-5.28-7.78,3.94-9.12,3.94-9.12,7.4-7.59,11.21-4.17c3.23,2.9-2.24,11.2-4.2,15.45a7.45,7.45,0,0,0-.64,1.83c-.39,3,5.42,12.1,6.4,14.79A9.49,9.49,0,0,1,193.21,303.65Z"/><path class="cls-52" d="M193.21,303.65a9.54,9.54,0,0,1-.39,1.68l-4.86.56a20.24,20.24,0,0,1-.42-2.82c-.19-1.95-.22-4-.26-5.51-.09-3.94-5.85-9.21-5.85-9.21s-1.16-4.67,1.33-5.86c1.28-.61,3-.25,4.34.24a7.45,7.45,0,0,0-.64,1.83c-.39,3,5.42,12.1,6.4,14.79A9.49,9.49,0,0,1,193.21,303.65Z"/><path class="cls-53" d="M193.21,303.65c-.28,2.05-1.17,4-2.84,4.73-1.83.79-2.54-2.08-2.83-5.31a12.88,12.88,0,0,0,2,1.24c.4.07.19-2.74,1.23-2.92C191.48,301.27,192.54,302.66,193.21,303.65Z"/><path class="cls-51" d="M199,353.41c-1,.67-7,.62-11.72.51-2.47-.06-4.62-.14-5.55-.14l-1.46,0c-5.32.15-20.79.69-21.86-1.52-.8-1.67,1.3-12.27.41-21.27-.43-4.43-1.59-8.47-4.16-10.87-7.81-7.29-8.07-8.57-7.22-14.83a20,20,0,0,1,3.69-9.6s7.8-10,15.6-6.43,6.6,18.43,6,22.72c-.44,3.07-2,6.81-2.93,9.7a12.78,12.78,0,0,0-.67,2.93c-.17,2.79-1.46,8.28-.95,13s1.48,8.86,3.28,9.71,10.29-.49,12.29.43h0c1,.49,3.32.59,5.52.64a25.25,25.25,0,0,1,4.75.3C195.65,349.23,200.51,352.38,199,353.41Z"/><path class="cls-52" d="M189.27,348.42l-2,5.5c-2.47-.06-4.62-.14-5.55-.14l-1.46,0c-5.32.15-20.79.69-21.86-1.52-.8-1.67,1.3-12.27.41-21.27a9.57,9.57,0,0,0,3.4-1.28c1-.91,4.63-7.15,7.08-7.92a2.68,2.68,0,0,1,.5-.11,12.78,12.78,0,0,0-.67,2.93c-.17,2.79-1.46,8.28-.95,13s1.48,8.86,3.28,9.71,10.29-.49,12.29.43h0C184.76,348.27,187.07,348.37,189.27,348.42Z"/><path class="cls-53" d="M200,353.41c-1.54,1-15.52.37-18.26.37l-1.46,0c-.84-1.06-2-2.65-1.76-3.35a4.39,4.39,0,0,1,2.51-2.68,4,4,0,0,1,2.73,0h0c1.94.94,8.64.43,10.27.94S201.5,352.38,200,353.41Z"/><path class="cls-54" d="M153.08,327.77c-4.09,7.71-12.52,22.41-18.17,24.26-7.7,2.54-56.95,2-58.43.35s18.7-5.11,23.34-5.95,23.83-1.73,28.58-2.05a2.22,2.22,0,0,0,1.17-.46c2.12.91,4.59,1.43,6.14,0,3.17-2.84,7.75-10.5,11.37-13.42C149,329,152.87,327.88,153.08,327.77Z"/><path class="cls-55" d="M273,352.93a96.43,96.43,0,0,1-1,11.26l-31.25.46-3.17.05-4.38.06H209.65l-3.83-.38-20.12-2-25.45-1.5-36.68,3.3V352.12s33.16-3.37,36.2-3.37,25.48.89,25.48.89l22.71-1.5,4-.28,5.31-.34,10.17-.15,4.13-.07,3.54-.05,2.64,0,2.38-.29L271.44,343A42.06,42.06,0,0,1,273,352.93Z"/><path class="cls-56" d="M139,350.58l5.24-.51a22.18,22.18,0,0,0-.93,6.82,20.16,20.16,0,0,0,1.41,5.4l-5.17.46s-2-4.58-2-5.77A18.77,18.77,0,0,1,139,350.58Z"/><path class="cls-57" d="M266.67,343.63a88.48,88.48,0,0,1,1.39,10.27,90.77,90.77,0,0,1-1.39,10.37l2.36,0s1.65-6.32,1.51-10.34a60,60,0,0,0-1.93-10.51Z"/><path class="cls-58" d="M263.21,344.06l1.82-.23s.81,6.75.81,9-.83,11.48-.83,11.48h-1.8a105.25,105.25,0,0,0,.7-11.06C263.77,349.61,263.21,344.06,263.21,344.06Z"/><polygon class="cls-58" points="252.42 345.39 252.07 364.48 233.34 364.76 209.65 364.77 200.92 363.71 200.22 356.09 203.56 348.44 217.46 347.52 218.25 347.5 222.34 347.43 239 347.14 252.42 345.39"/><polygon class="cls-57" points="233.22 364.76 232.49 364.77 227.97 364.77 220.94 357.18 220.9 355.52 227.48 347.37 231.61 347.3 225.14 355.13 225.29 356.99 233.22 364.76"/><path class="cls-56" d="M254,345.2s-2,5.9-1.76,10a50.28,50.28,0,0,0,1.76,9.24l-2.88,0s-.86-5.6-1.05-9.65,1.85-9.39,1.85-9.39Z"/><polygon class="cls-59" points="203.71 348.42 207.92 348.14 200.09 355.78 199.97 357.51 205.82 364.39 200.49 363.88 198.73 356.26 202.88 348.64 203.71 348.42"/><polygon class="cls-57" points="204.06 357.39 211.93 364.77 209.66 364.77 205.82 364.39 199.86 357.51 199.98 355.79 207.96 348.14 212 347.87 204.15 355.67 204.06 357.39"/><polygon class="cls-59" points="222.86 364.76 218.21 364.76 210.52 357.39 210.9 355.58 218.25 347.5 222.34 347.43 215.62 355.49 215.62 357.39 222.86 364.76"/><polygon class="cls-59" points="240.77 364.65 237.6 364.7 231.27 356.82 231.23 355.06 235.15 347.25 237.79 347.21 240.16 346.92 236.31 354.87 236.31 356.59 240.77 364.65"/><path class="cls-57" d="M247.74,346l2.35-.29a73.4,73.4,0,0,0-1.42,9.42,72.64,72.64,0,0,0,1.42,9.4l-2.35,0s-1.34-8.4-1.34-9.7S247.74,346,247.74,346Z"/><path class="cls-57" d="M246.53,346.13a67.32,67.32,0,0,0-1.34,8.34c0,2.14,1.77,10.11,1.77,10.11l-1.4,0s-2.2-7.87-2.2-10,1.65-8.27,1.65-8.27Z"/><path class="cls-59" d="M249.65,345.69s-1.93,6.16-1.68,9.68a66,66,0,0,0,1.68,9.13l-1.41.05s-1.36-8.37-1.28-9.7,1.28-8.93,1.28-8.93Z"/><path class="cls-59" d="M245.36,346.28l.75-.15a85.77,85.77,0,0,0-1.53,8.45c0,1.57,2,9.92,2,9.92h-.52s-2.36-9-2.23-10.14S245.36,346.28,245.36,346.28Z"/><polygon class="cls-57" points="199.58 355.79 225.8 355.32 243.35 354.59 243.53 356.16 213.85 357.51 199.46 357.51 199.58 355.79"/><polygon class="cls-59" points="200.04 356.09 223.94 355.62 243.4 354.97 243.53 355.7 217.32 357.03 199.98 357.21 200.04 356.09"/><path class="cls-56" d="M201.26,348.58s-3.36,4.93-3.55,7.58,1.22,7.54,1.22,7.54l2.07.21s-1.7-5.23-.72-9.06a16.07,16.07,0,0,1,3.43-6.43Z"/><path class="cls-60" d="M40.68,207.38A6.76,6.76,0,0,0,43,209a16.84,16.84,0,0,0,3.34.95L43,218.73l-3-2.08Z"/><path class="cls-61" d="M65.3,217.68s1.48,11.17.46,17.78-2.45,16.11-5.19,18.76c-3.65,3.51-4,4.5-9.19,5s-12.14-4.11-12.14-4.11L39,219.56l7.12-8.48Z"/><path class="cls-62" d="M58.34,233.11C60,225,56.87,217.48,51.4,216.38S40.16,221,38.53,229.13,41,245.3,46.45,246.4,56.7,241.25,58.34,233.11Z"/><polygon class="cls-63" points="37.68 184.18 29.89 174.46 28.62 177.09 36.36 189.86 37.68 184.18"/><polygon class="cls-63" points="41.34 181.74 50.73 169.74 48.47 167.64 41.44 175.78 41.34 181.74"/><polygon class="cls-64" points="42.52 145.55 42.7 327.07 35.11 326.34 35.04 144.83 42.52 145.55"/><path class="cls-65" d="M64.77,199s8.09-2,9.65,4.61c1.09,4.62-5.12,7.58-5.12,7.58Z"/><path class="cls-66" d="M65.75,200.56s5.87.28,6.32,3.32-2.8,5.73-2.8,5.73Z"/><path class="cls-65" d="M55.26,196.4s-5.77-6-10.62-1.28c-3.4,3.32.26,9.14.26,9.14Z"/><path class="cls-66" d="M53.62,197.16s-5.11-2.91-7.12-.59-.7,6.35-.7,6.35Z"/><path class="cls-65" d="M44.6,204.94c-1.73,7,2,12.71,8.75,14.84s12.75-.68,15.58-7.15-1.66-13.7-8.38-15.82S46.28,198.21,44.6,204.94Z"/><ellipse class="cls-62" cx="54.28" cy="215.41" rx="4.07" ry="4.53" transform="translate(-167.83 211.32) rotate(-74.8)"/><circle class="cls-67" cx="51.49" cy="206.92" r="1.2"/><circle class="cls-67" cx="61.85" cy="210.4" r="1.23"/><path class="cls-67" d="M54.5,214.75a2.79,2.79,0,0,0,3-1.66c.86-2.07.85-4.56-.82-5s-3.07,1.22-3.56,2.77S52.84,214.06,54.5,214.75Z"/><path class="cls-68" d="M41.18,255.94s-6.09-2.59-6.24-3.59,1.21-.78,1.21-.78-1.15-1.19-.95-1.83,1.59-.36,1.59-.36a1.06,1.06,0,0,1-.22-1.62c.71-1.06,3.26.31,3.26.31Z"/><path class="cls-69" d="M56.47,243.82s-3.41-7.46-8.25-7.32S41,240,40.76,240.75a25.25,25.25,0,0,0-1.22,5.57c-.06,2.12-.73,5.65.76,8.72,1.15,2.39,7.05,3.5,8.26,3.62s9-1.56,9.53-6.38A14.42,14.42,0,0,0,56.47,243.82Z"/><path class="cls-70" d="M36.61,192.44s-3.1-.37-3.12,1.73-1.7,6.73-1.55,13.81c.06,2.47,2.82,11.86,2.82,11.86l2.77-.51s.18-7-.05-11.88c-.12-2.52-1.2-7.92-.63-9.17s2.34-2.8,2.17-3.84S36.61,192.44,36.61,192.44Z"/><path class="cls-71" d="M23.21,133.13s-12.88-24.77,9-21,23,16.47,23,16.47,6.4-9,17.65-3.54,4.81,19.71,4.81,19.71,14.23,5.94,11.63,13.4c-2.47,7.08-17.87,4.35-17.87,4.35s-2.94,10-11.58,12-19.73-12.13-19.73-12.13S38.5,177,30.26,178.19s-8.81-10.87-8.81-10.87-11.5,9-17.65,2.05S12,148.61,12,148.61-1,147.05,1.5,138,23.21,133.13,23.21,133.13Z"/><path class="cls-69" d="M65.87,224.66a5.85,5.85,0,0,0-5-3.82c-3.07-.23-8.53,0-8.53,0s-3.56.61-5.75-.1a7.94,7.94,0,0,1-3.08-1.63s-1-1.79-1.41-1.93,0,1.79-1,1.7-6.09-.22-6.27.91-.83,4.36-.12,4.86,4.27.12,5.08.49,6.33,5.12,11.27,5.88,11,2.28,13.24.07S66,226.17,65.87,224.66Z"/><g id="Aus_Flag" data-name="Aus Flag"><path class="cls-72" d="M150.08,310.52v40a14.56,14.56,0,0,1-1.15,5.45,15.64,15.64,0,0,1-1,1.95,14.6,14.6,0,0,1-2.85,3.36,14.43,14.43,0,0,1-7,3.36,11.4,11.4,0,0,1-1.66.2c-.31,0-.64,0-1,0H49.69c-.33,0-.65,0-1,0s-.66-.05-1-.09a14.87,14.87,0,0,1-2.84-.67,14.37,14.37,0,0,1-4.45-2.51,14.61,14.61,0,0,1-5.36-11.3V310.52a14.39,14.39,0,0,1,1.32-6,14.11,14.11,0,0,1,1.06-2A14.69,14.69,0,0,1,47.78,296a15.07,15.07,0,0,1,1.91-.12h85.78a14.89,14.89,0,0,1,4.77.8,14.47,14.47,0,0,1,4.4,2.44,14.62,14.62,0,0,1,4.05,5.14,14.42,14.42,0,0,1,1.39,6Z"/><path class="cls-72" d="M92.59,295.91v20.37a14.52,14.52,0,0,1-.2,2.21,14.13,14.13,0,0,1-2.6,6.16c-.22.29-.45.58-.69.85a13.28,13.28,0,0,1-1.6,1.58,14.63,14.63,0,0,1-3,2,14.26,14.26,0,0,1-5.62,1.36H35.09V309.64h0a14.37,14.37,0,0,1,.24-2.21,14.22,14.22,0,0,1,2.66-5.9c.22-.3.46-.59.7-.86a13.28,13.28,0,0,1,1.63-1.55,13.47,13.47,0,0,1,3.13-1.95,14.13,14.13,0,0,1,5.86-1.26Z"/><rect class="cls-73" x="59.02" y="295.91" width="9.5" height="34.48"/><path class="cls-73" d="M92.59,307.43v8.85a14.52,14.52,0,0,1-.2,2.21H35.09v-8.85h0a14.37,14.37,0,0,1,.24-2.21Z"/><path class="cls-73" d="M89.79,324.65c-.22.29-.45.58-.69.85a13.28,13.28,0,0,1-1.6,1.58,14.63,14.63,0,0,1-3,2l-15.95-9.45-1.84-1.09h0l-2.74-1.62-1-.59L60.74,315,59,314h0l-1.54-.91-5.77-3.42L48,307.43h0L38,301.53c.22-.3.46-.59.7-.86a13.28,13.28,0,0,1,1.63-1.55,13.47,13.47,0,0,1,3.13-1.95L59,306.39h0l1.72,1h0l3.08,1.83.65.38,2.18,1.29,1.84,1.1,1.75,1,5.42,3.22,3.73,2.21Z"/><polygon class="cls-73" points="92.58 295.91 92.58 299.69 79.66 307.43 75.97 309.64 70.26 313.06 68.51 314.11 66.67 315.22 64.89 316.28 63.91 316.87 61.2 318.49 60.74 318.77 59.02 319.8 41.33 330.4 39.36 330.4 35.1 330.4 35.11 330.4 35.08 330.4 35.08 326.46 48.41 318.49 52.1 316.28 57.48 313.06 59.02 312.14 60.74 311.11 63.2 309.64 63.84 309.26 66.67 307.57 66.89 307.43 68.51 306.46 86.14 295.91 92.58 295.91"/><rect class="cls-74" x="60.74" y="295.91" width="5.93" height="34.48"/><rect class="cls-74" x="35.09" y="309.64" width="57.5" height="6.64"/><polygon class="cls-74" points="92.58 295.91 73.26 307.43 69.09 307.43 88.33 295.91 92.58 295.91"/><polygon class="cls-74" points="58.58 318.49 39.37 330.4 39.36 330.4 39.34 330.41 35.08 330.41 35.1 330.4 35.11 330.4 54.41 318.49 58.58 318.49"/><path class="cls-74" d="M89.1,325.5a13.28,13.28,0,0,1-1.6,1.58l-14.34-8.59h4.17Z"/><path class="cls-74" d="M54.22,307.43H50L38.7,300.67a13.28,13.28,0,0,1,1.63-1.55l13.87,8.31Z"/><polygon class="cls-73" points="126.9 330.63 127.69 332.25 129.48 332.51 128.19 333.77 128.49 335.55 126.9 334.71 125.3 335.55 125.6 333.77 124.31 332.51 126.1 332.25 126.9 330.63"/><polygon class="cls-73" points="135.9 325.96 133.85 324.01 131.74 325.9 131.98 323.08 129.19 322.62 131.55 321.05 130.17 318.57 132.87 319.43 133.94 316.81 134.95 319.46 137.67 318.67 136.22 321.11 138.54 322.74 135.73 323.13 135.9 325.96"/><polygon class="cls-73" points="121.23 303.12 122.21 305.61 124.77 304.82 123.44 307.14 125.64 308.65 123 309.06 123.19 311.72 121.23 309.91 119.27 311.72 119.46 309.06 116.82 308.65 119.02 307.14 117.69 304.82 120.25 305.61 121.23 303.12"/><polygon class="cls-73" points="106.76 321.44 107.8 324.06 110.49 323.23 109.09 325.68 111.41 327.27 108.63 327.7 108.83 330.51 106.76 328.6 104.69 330.51 104.89 327.7 102.11 327.27 104.43 325.68 103.03 323.23 105.72 324.06 106.76 321.44"/><polygon class="cls-73" points="120.98 348.64 121.97 351.14 124.55 350.35 123.21 352.69 125.43 354.21 122.77 354.62 122.96 357.31 120.98 355.48 119 357.31 119.2 354.62 116.54 354.21 118.76 352.69 117.42 350.35 119.99 351.14 120.98 348.64"/><polygon class="cls-73" points="73.57 349.84 67.92 350.65 68.28 356.35 64.13 352.44 59.9 356.27 60.37 350.58 54.73 349.67 59.47 346.49 56.67 341.51 62.11 343.24 64.26 337.94 66.31 343.27 71.78 341.65 68.89 346.57 73.57 349.84"/></g><path class="cls-75" d="M38.41,270.65c1.51-2.85,6.65-5.08,11.14-4.92a38.51,38.51,0,0,1,14.34,3.55,26.82,26.82,0,0,1,9.76,8c2.74,3.81,6.11,9.49,3.86,13.74s-8.77,4.76-12.54,4.87-12.07-3.12-15.5-4.94-7.95-6.54-9.6-9S36.75,273.79,38.41,270.65Z"/><line class="cls-76" x1="77.51" y1="290.98" x2="38.41" y2="270.65"/><path class="cls-77" d="M51.77,276.62l-2.2-1.17s-.46-1.71.57-2.25"/><path class="cls-78" d="M54,274.1a11,11,0,0,1,1.79,1.27c.53.49,2.12.87,3.61,1.44"/><path class="cls-77" d="M61.19,277.7a4.52,4.52,0,0,1,1.7,1.8,4.77,4.77,0,0,1,2.43.49"/><path class="cls-79" d="M68.75,283.24a.76.76,0,0,1-.1.5c-.33.49-1.74.89-1.74.89l-13-6.86"/><path class="cls-77" d="M51.17,277.77,49,276.6s-1.68.59-1.54,1.75"/><path class="cls-78" d="M50.31,281a11.48,11.48,0,0,0,2.06.77,17.9,17.9,0,0,1,3.22,2.17"/><path class="cls-77" d="M57.35,285a4.62,4.62,0,0,0,2.45.4,4.84,4.84,0,0,0,1.77,1.73"/><path class="cls-79" d="M66.18,288.09a.77.77,0,0,0,.36-.36,4.22,4.22,0,0,0-.24-2l-13-6.86"/><rect class="cls-80" x="48.36" y="279.68" width="19.62" height="1" transform="translate(137.83 5.34) rotate(27.89)"/><rect class="cls-80" x="47.89" y="280.56" width="19.62" height="1" transform="translate(138.19 5.66) rotate(27.89)"/><line class="cls-81" x1="49.26" y1="276.03" x2="66.6" y2="285.21"/><rect class="cls-82" x="49.4" y="274.05" width="1.06" height="4.78" transform="translate(135.12 8.76) rotate(27.89)"/><rect class="cls-82" x="51.71" y="274.99" width="1.02" height="5.31" transform="translate(135.96 7.83) rotate(27.89)"/><rect class="cls-82" x="54" y="275.87" width="0.93" height="5.89" transform="translate(136.76 6.91) rotate(27.89)"/><rect class="cls-82" x="56.16" y="276.91" width="1.02" height="6.25" transform="translate(137.59 6.02) rotate(27.89)"/><rect class="cls-82" x="58.43" y="278.29" width="0.97" height="6.07" transform="translate(138.45 5.12) rotate(27.89)"/><rect class="cls-82" x="60.77" y="279.55" width="1.15" height="5.76" transform="translate(139.25 4.11) rotate(27.89)"/><rect class="cls-82" x="62.91" y="280.91" width="1.11" height="5.54" transform="translate(140.08 3.27) rotate(27.89)"/><rect class="cls-82" x="65.37" y="282.39" width="0.97" height="4.96" transform="translate(140.92 2.28) rotate(27.89)"/></g></g></svg>