<svg xmlns="http://www.w3.org/2000/svg" xmlns:xlink="http://www.w3.org/1999/xlink" viewBox="0 0 400 400"><defs><style>.cls-1,.cls-26,.cls-41,.cls-42,.cls-54,.cls-68,.cls-71,.cls-83{fill:none;}.cls-2{clip-path:url(#clip-path);}.cls-3{fill:#b3defe;}.cls-4{fill:#e4eff2;}.cls-5{fill:#7b7c7c;}.cls-6{fill:#20181d;}.cls-7{fill:#011053;}.cls-8{fill:#0c0d07;}.cls-11,.cls-9{fill:#401713;}.cls-10{fill:#7a5925;}.cls-11,.cls-12,.cls-13{stroke:#f2c63b;stroke-linejoin:bevel;}.cls-11,.cls-12{stroke-width:0.5px;}.cls-12{fill:#b68e59;}.cls-13{fill:#3a2931;}.cls-13,.cls-65{stroke-width:0.75px;}.cls-14{fill:#72231a;}.cls-15{fill:#b72f1d;}.cls-16{fill:#b0a4a3;}.cls-17{fill:#ddd8d0;stroke:#c6bdaf;}.cls-17,.cls-26,.cls-32,.cls-39,.cls-40,.cls-41,.cls-42,.cls-44,.cls-54,.cls-62,.cls-65,.cls-68,.cls-71,.cls-83{stroke-miterlimit:10;}.cls-17,.cls-41,.cls-42,.cls-44{stroke-width:2px;}.cls-18{fill:#280706;}.cls-19{fill:#d18403;}.cls-20{fill:#05337c;}.cls-21{fill:#9e6613;}.cls-22{fill:#c88927;}.cls-23{fill:#af7510;}.cls-24{fill:#1e1c1b;}.cls-25{fill:#e0d7ca;}.cls-26{stroke:#e0d7ca;}.cls-27{fill:#c3a184;}.cls-28{fill:#996110;}.cls-29{fill:#4b0101;}.cls-30{fill:#112472;}.cls-31{fill:#77593c;}.cls-32{fill:#961134;stroke:#681027;}.cls-32,.cls-39,.cls-40{stroke-width:3px;}.cls-33{fill:#896721;}.cls-34{fill:#cea751;}.cls-35{fill:#9e742a;}.cls-36{fill:#bd9d4b;}.cls-37{fill:#a07f37;}.cls-38{fill:#cea33d;}.cls-39,.cls-44{fill:#ba1c3f;stroke:#8e1630;}.cls-40{fill:#efbe52;stroke:#bd9d4b;}.cls-41{stroke:#ba7b09;}.cls-41,.cls-42,.cls-83{stroke-linecap:round;}.cls-42{stroke:#dd980e;}.cls-43{fill:#470516;}.cls-45{fill:#b51d30;}.cls-46{fill:#ede8ef;}.cls-47{fill:#c61e1e;}.cls-48{fill:#f5f9fa;}.cls-49{fill:#d7d6d8;}.cls-50{fill:#f5f6fd;}.cls-51{fill:#f7c937;}.cls-52{fill:#100802;}.cls-53{fill:#d19818;}.cls-54{stroke:#f7f7f7;}.cls-55{fill:#66ccaf;}.cls-56{fill:#c90a2b;}.cls-57{fill:#ebce25;}.cls-58{fill:#63100e;}.cls-59{fill:#70130d;}.cls-60{fill:#bcab98;}.cls-61{fill:#625c48;}.cls-62{fill:#d9bfa0;}.cls-62,.cls-65{stroke:#571c16;}.cls-63{fill:#491818;}.cls-64{fill:#421412;}.cls-65,.cls-67{fill:#efdec2;}.cls-66{fill:#571c16;}.cls-68{stroke:#c09965;}.cls-69{fill:#b7975d;}.cls-70{fill:#e4d7be;}.cls-71{stroke:#898989;stroke-width:0.25px;}.cls-72{fill:#e5e5e5;}.cls-73{fill:#11141c;}.cls-74{fill:#212428;}.cls-75{fill:#31333f;}.cls-76{fill:#edeeef;}.cls-77{fill:#fdfeff;}.cls-78{fill:#121319;}.cls-79{fill:#34343d;}.cls-80{fill:#1c1f23;}.cls-81{fill:#25292d;}.cls-82{fill:#a3768a;}.cls-83{stroke:#34343d;}</style><clipPath id="clip-path"><circle class="cls-1" cx="200" cy="200" r="150"/></clipPath></defs><g id="Layer_1" data-name="Layer 1"><g id="China"><g class="cls-2"><rect class="cls-3" x="42.13" y="33.35" width="317.96" height="200.33"/><ellipse class="cls-4" cx="89.33" cy="113.58" rx="22.17" ry="14.06"/><ellipse class="cls-4" cx="107.76" cy="102.39" rx="15.53" ry="17.96"/><ellipse class="cls-4" cx="116.3" cy="119.59" rx="19.48" ry="10.58"/><ellipse class="cls-4" cx="225.43" cy="77.93" rx="22.43" ry="11.41"/><ellipse class="cls-4" cx="250.94" cy="69.71" rx="19.63" ry="12.9"/><ellipse class="cls-4" cx="257.81" cy="83.16" rx="22.29" ry="11.78"/><ellipse class="cls-4" cx="322.87" cy="122.78" rx="21.33" ry="13.43"/><ellipse class="cls-4" cx="303.93" cy="118.95" rx="26.28" ry="14.53"/><ellipse class="cls-4" cx="325.77" cy="136.55" rx="24.23" ry="11.26"/><rect class="cls-5" x="47.15" y="265.56" width="317.16" height="86.39"/><path class="cls-6" d="M100,141.07a16.06,16.06,0,0,1-7.88-3.25,62.1,62.1,0,0,1-8.27-8h231s-4.19,7.54-7.1,9.42a11.14,11.14,0,0,1-5.86,1.79Z"/><rect class="cls-7" x="100.02" y="141.07" width="201.85" height="8.35"/><path class="cls-6" d="M322.25,170.77a16.47,16.47,0,0,0,6.92-2.81c2.78-2.22,7.87-6.79,7.87-6.79H65.58s4.63,5.06,7.16,7.21,6.58,2.39,6.58,2.39Z"/><rect class="cls-8" x="77.3" y="176.67" width="246.95" height="2.59"/><rect class="cls-9" x="100.02" y="179.26" width="201.39" height="32.35"/><rect class="cls-10" x="100.02" y="207.21" width="201.39" height="4.41"/><rect class="cls-11" x="177.69" y="200.1" width="10.22" height="6.67"/><rect class="cls-11" x="101.91" y="181.09" width="29.23" height="3.32"/><rect class="cls-12" x="117.25" y="186.62" width="13.89" height="17.69"/><rect class="cls-12" x="101.91" y="186.62" width="13.89" height="17.69"/><rect class="cls-13" x="215" y="186.23" width="10.22" height="12.6"/><rect class="cls-13" x="202.35" y="186.23" width="10.22" height="12.6"/><rect class="cls-13" x="190.34" y="186.23" width="10.22" height="12.6"/><rect class="cls-13" x="177.69" y="186.23" width="10.22" height="12.6"/><rect class="cls-11" x="177.69" y="181.09" width="47.53" height="4"/><rect class="cls-11" x="270.76" y="181.09" width="29.23" height="3.32"/><rect class="cls-12" x="286.1" y="186.62" width="13.89" height="17.69"/><rect class="cls-12" x="270.76" y="186.62" width="13.89" height="17.69"/><rect class="cls-14" x="227.01" y="176.67" width="4.02" height="29.74" transform="translate(458.05 383.07) rotate(180)"/><rect class="cls-14" x="265.77" y="176.67" width="4.02" height="29.74" transform="translate(535.56 383.07) rotate(180)"/><rect class="cls-14" x="303.72" y="176.66" width="4.02" height="29.74" transform="translate(611.46 383.06) rotate(180)"/><rect class="cls-14" x="320.23" y="176.67" width="4.02" height="29.74" transform="translate(644.49 383.07) rotate(180)"/><rect class="cls-14" x="170.52" y="176.67" width="4.02" height="29.74"/><rect class="cls-14" x="131.77" y="176.67" width="4.02" height="29.74"/><rect class="cls-14" x="93.82" y="176.67" width="4.02" height="29.74"/><rect class="cls-14" x="77.3" y="176.67" width="4.02" height="29.74"/><rect class="cls-15" x="40.51" y="214.62" width="328.95" height="57"/><rect class="cls-16" x="40.51" y="265.62" width="328.95" height="9.84"/><rect class="cls-17" x="171.54" y="216.61" width="59.76" height="15.14"/><rect class="cls-18" x="134.68" y="240.85" width="29.34" height="34.61"/><rect class="cls-19" x="180.66" y="233.06" width="41.52" height="3.89"/><rect class="cls-18" x="240.2" y="240.85" width="29.34" height="34.61"/><rect class="cls-19" x="234.11" y="236.95" width="41.52" height="3.89"/><rect class="cls-19" x="128.45" y="236.95" width="41.52" height="3.89"/><rect class="cls-18" x="186.16" y="236.95" width="31.1" height="38.5"/><rect class="cls-7" x="79.32" y="170.77" width="242.93" height="5.89"/><rect class="cls-20" x="77.3" y="169.29" width="4.02" height="7.38"/><rect class="cls-20" x="93.82" y="171.88" width="4.02" height="4.78"/><rect class="cls-20" x="131.77" y="171.88" width="4.02" height="4.78"/><rect class="cls-20" x="170.52" y="171.88" width="4.02" height="4.78"/><rect class="cls-20" x="320.23" y="169.29" width="4.02" height="7.38" transform="translate(644.49 345.96) rotate(-180)"/><rect class="cls-20" x="303.72" y="171.88" width="4.02" height="4.78" transform="translate(611.46 348.55) rotate(-180)"/><rect class="cls-20" x="265.77" y="171.88" width="4.02" height="4.78" transform="translate(535.56 348.55) rotate(-180)"/><rect class="cls-20" x="227.01" y="171.88" width="4.02" height="4.78" transform="translate(458.05 348.55) rotate(-180)"/><rect class="cls-20" x="297.85" y="138.99" width="4.02" height="10.42" transform="translate(599.73 288.4) rotate(-180)"/><rect class="cls-20" x="100.02" y="138.99" width="4.02" height="10.42" transform="translate(204.07 288.4) rotate(-180)"/><rect class="cls-20" x="134.23" y="143.27" width="4.02" height="6.14"/><rect class="cls-20" x="171.29" y="143.27" width="4.02" height="6.14"/><rect class="cls-20" x="224.68" y="143.27" width="4.02" height="6.14"/><rect class="cls-20" x="261.74" y="143.27" width="4.02" height="6.14"/><path class="cls-21" d="M261.74,109.49s8.74,7.37,13,9.16,8.91,3.91,16.19,4.65,31.92,1.48,31.92,1.48v2.53l-61-2Z"/><path class="cls-21" d="M140.16,109.49s-8.74,7.37-13,9.16-8.91,3.91-16.19,4.65-31.92,1.48-31.92,1.48v2.53l61-2Z"/><path class="cls-22" d="M201,113.74h60.79s9.8,7.22,18,9.67,43.07,3.9,43.07,3.9a19.78,19.78,0,0,1-9.46,5c-5.48,1-112.58.24-112.58.24Z"/><path class="cls-22" d="M201,113.74H140.16s-9.8,7.22-18,9.67-43.07,3.9-43.07,3.9a19.78,19.78,0,0,0,9.46,5c5.48,1,112.58.24,112.58.24Z"/><rect class="cls-23" x="200.95" y="109.49" width="60.79" height="4.26"/><rect class="cls-23" x="140.16" y="109.49" width="60.79" height="4.26" transform="translate(341.11 223.23) rotate(-180)"/><rect class="cls-24" x="174.4" y="220.55" width="6.59" height="6.59"/><rect class="cls-24" x="198.1" y="220.45" width="6.59" height="6.59"/><rect class="cls-24" x="186.41" y="220.55" width="6.59" height="6.59"/><rect class="cls-24" x="208.95" y="220.55" width="6.59" height="6.59"/><rect class="cls-24" x="220.96" y="220.55" width="6.59" height="6.59"/><rect class="cls-11" x="190.34" y="200.1" width="10.22" height="6.67"/><rect class="cls-11" x="202.35" y="200.1" width="10.22" height="6.67"/><rect class="cls-11" x="215" y="200.1" width="10.22" height="6.67"/><rect class="cls-11" x="138.28" y="181.09" width="29.23" height="3.32"/><rect class="cls-13" x="153.62" y="186.62" width="13.89" height="12.21"/><rect class="cls-13" x="138.28" y="186.62" width="13.72" height="12.21"/><rect class="cls-11" x="153.62" y="200.02" width="13.89" height="7.17"/><rect class="cls-11" x="138.59" y="200.02" width="13.72" height="7.17"/><rect class="cls-11" x="233.85" y="181.09" width="29.23" height="3.32"/><rect class="cls-13" x="249.19" y="186.62" width="13.89" height="12.21"/><rect class="cls-13" x="233.93" y="186.62" width="13.64" height="12.21"/><rect class="cls-11" x="249.19" y="200.02" width="13.89" height="7.17"/><rect class="cls-11" x="234.24" y="200.02" width="13.64" height="7.17"/><polygon class="cls-25" points="328.17 206.41 328.17 214.61 72.73 214.61 72.73 206.41 188.46 206.41 188.46 210.89 212.09 210.89 212.09 206.41 328.17 206.41"/><line class="cls-26" x1="327.33" y1="202.69" x2="212.72" y2="202.69"/><line class="cls-26" x1="327.33" y1="200.31" x2="213.08" y2="200.31"/><rect class="cls-25" x="212.09" y="196.98" width="1.98" height="10.86"/><rect class="cls-25" x="249.91" y="197.27" width="1.98" height="10.86" transform="translate(501.8 405.39) rotate(180)"/><rect class="cls-25" x="228.46" y="196.98" width="1.98" height="10.86" transform="translate(458.91 404.81) rotate(180)"/><rect class="cls-25" x="291.5" y="196.98" width="1.98" height="10.86" transform="translate(584.98 404.81) rotate(180)"/><rect class="cls-25" x="272.02" y="197.27" width="1.98" height="10.86" transform="translate(546.03 405.39) rotate(180)"/><rect class="cls-25" x="326.09" y="196.98" width="1.98" height="10.86" transform="translate(654.17 404.81) rotate(180)"/><rect class="cls-25" x="308.09" y="196.98" width="1.98" height="10.86" transform="translate(618.17 404.81) rotate(180)"/><line class="cls-26" x1="73.48" y1="202.84" x2="188.1" y2="202.84"/><line class="cls-26" x1="73.48" y1="200.45" x2="187.73" y2="200.45"/><rect class="cls-25" x="186.74" y="197.12" width="1.98" height="10.86"/><rect class="cls-25" x="148.92" y="197.41" width="1.98" height="10.86"/><rect class="cls-25" x="170.37" y="197.12" width="1.98" height="10.86"/><rect class="cls-25" x="107.33" y="197.12" width="1.98" height="10.86"/><rect class="cls-25" x="126.81" y="197.41" width="1.98" height="10.86"/><rect class="cls-25" x="72.73" y="197.12" width="1.98" height="10.86"/><rect class="cls-25" x="90.73" y="197.12" width="1.98" height="10.86"/><rect class="cls-27" x="40.51" y="208.61" width="328.95" height="6.01"/><rect class="cls-27" x="40.51" y="205.24" width="7.53" height="5.11"/><rect class="cls-27" x="54.3" y="205.24" width="8.58" height="5.11"/><rect class="cls-27" x="69.77" y="205.24" width="7.53" height="5.11"/><rect class="cls-27" x="83.57" y="205.24" width="8.58" height="5.11"/><rect class="cls-27" x="98.74" y="205.24" width="7.53" height="5.11"/><rect class="cls-27" x="112.54" y="205.24" width="8.58" height="5.11"/><rect class="cls-27" x="128.01" y="205.24" width="7.53" height="5.11"/><rect class="cls-27" x="141.8" y="205.24" width="8.58" height="5.11"/><rect class="cls-27" x="157.61" y="205.24" width="7.53" height="5.11"/><rect class="cls-27" x="171.41" y="205.24" width="8.58" height="5.11"/><rect class="cls-27" x="186.58" y="205.24" width="7.53" height="5.11"/><rect class="cls-27" x="200.38" y="205.24" width="8.58" height="5.11"/><rect class="cls-27" x="215.85" y="205.24" width="7.53" height="5.11"/><rect class="cls-27" x="229.64" y="205.24" width="8.58" height="5.11"/><rect class="cls-27" x="244.7" y="205.24" width="7.53" height="5.11"/><rect class="cls-27" x="258.49" y="205.24" width="8.58" height="5.11"/><rect class="cls-27" x="273.66" y="205.24" width="7.53" height="5.11"/><rect class="cls-27" x="287.46" y="205.24" width="8.58" height="5.11"/><rect class="cls-27" x="303.32" y="205.24" width="7.53" height="5.11"/><rect class="cls-27" x="318.13" y="205.24" width="8.58" height="5.11"/><rect class="cls-27" x="334.38" y="205.24" width="7.53" height="5.11"/><rect class="cls-27" x="348.18" y="205.24" width="8.58" height="5.11"/><rect class="cls-27" x="363.24" y="205.24" width="6.21" height="5.11"/><path class="cls-23" d="M200.38,152.78v-3.37h101.5s13.79,3.9,20.78,4.43,21.43,1.41,21.43,1.41l.23,2.39-143.94.75Z"/><path class="cls-23" d="M200.37,149.42v9h-.94l-100.55-.52-42.45-.23.22-2.39s14.44-.88,21.43-1.41,20.8-4.42,20.8-4.42Z"/><path class="cls-28" d="M98.88,149.42v8.45l-42.45-.23.22-2.39s14.44-.88,21.43-1.41S98.88,149.42,98.88,149.42Z"/><path class="cls-28" d="M301.87,149.42v8.45l42.45-.23-.22-2.39s-14.44-.88-21.43-1.41S301.87,149.42,301.87,149.42Z"/><path class="cls-22" d="M199.43,152.78v11s127.31,1.46,137.56-2.58,7.33-3.53,7.33-3.53-19.49-.63-25.7-1.78-17.49-3.08-17.49-3.08Z"/><path class="cls-22" d="M201.31,152.78v11S74,165.21,63.76,161.17s-7.33-3.53-7.33-3.53,19.49-.63,25.7-1.78,17.49-3.08,17.49-3.08Z"/><rect class="cls-29" x="193.31" y="133.51" width="14.95" height="20.39"/><rect class="cls-30" x="195.92" y="136.04" width="9.74" height="15.06"/><rect class="cls-31" x="196.89" y="137.82" width="2.54" height="11.95"/><rect class="cls-31" x="201.97" y="137.82" width="2.54" height="11.95"/></g></g></g><g id="Layer_2" data-name="Layer 2"><g id="NEW_CH" data-name="NEW CH"><path class="cls-32" d="M249.83,317.9c5.6,3.51,9,10.85,10,16.29a5.15,5.15,0,0,1,.08,2.63c-2.67,7.39-35.61,4.59-43.86,3.81-7.58-4.68-8.6-8.26-8.42-10.39C208.38,320.49,236.69,309.66,249.83,317.9Z"/><path class="cls-33" d="M263.45,363.26s-12.74,2-15.23.25-15.94-31.63-15.94-31.63l18.77-1.27s4.67,18.42,6.27,23c1.11,3.15,6.47,6.26,6.9,7.38S263.45,363.26,263.45,363.26Z"/><path class="cls-34" d="M228.51,338.73s-5.11,15.26-6.18,17.16c-1.62,2.88,3.66,4.32,3.81,5.68.29,2.7-6.87,3.34-11.6,3.36s-7.74.1-8.43-1.8c-.89-2.44-.89-6.88.9-12.2s5.38-17.62,5.38-17.62l9-11.79,9.21,6.39Z"/><polygon class="cls-35" points="222.64 320.99 250.9 320.88 255.38 332.79 218.43 334.42 222.64 320.99"/><path class="cls-36" d="M153.3,342.34,150,359.62s6.2-.62,6.2,2.88c0,3.2-17.89,3.48-18.17.92l1.22-22.29Z"/><path class="cls-33" d="M160.91,343l8.22,20.21s11.68,1,13.55-1.11-2.05-5-6-5.2l-1.53-15Z"/><path class="cls-37" d="M136.06,339.8c1.37,4.16,69.8,4.67,79.63.73S233,316.85,233,316.85l-1.68-.7-19.11-8a39.54,39.54,0,0,1-10.94,2.16c-5,0-39.1-2.85-44.08-3.89s-13.62-.75-16.69,3.63a17.33,17.33,0,0,0-1.94,5C136.39,322.94,135,336.55,136.06,339.8Z"/><path class="cls-38" d="M155.76,306.44a23,23,0,0,1,.78-6.85c1-3.16,3.36-5.43,1.45-6s-6.8,4-8.37,6.34c-1.86,2.75-3,6.67-2.71,6.65l4,1.38Z"/><path class="cls-39" d="M137.49,332.37c-1.28,2.13-2.92,7.68-1.14,8.57,1.12.56,2.66-1.19,5.33-.82s2.74,2.46,5.37,3.13c3.4.88,5.09-2.16,9.76-1.89,3,.18,3.42,1.52,6.54,2.14,4.77,1,6.18-2.38,11.22-2,4,.3,3.87,2.17,7.64,2.22,4.37.06,5.46-2.46,9.54-2,3.15.32,3.31,1.9,6.12,1.84,3.21-.06,3.8-2.15,7.22-2.44,3-.24,3.91,1.24,6.57,1.4,4.71.28,10.58-3.85,10.44-6.39C221.62,327.21,146.33,317.64,137.49,332.37Z"/><path class="cls-40" d="M138.24,326.06c-2.72,4.54-2.76,9.06-2.21,9.52,1,.87,4.09-2.39,8.54-1.64,2.52.42,2.34,1.59,4.83,2,4.14.66,5.81-2.36,9.39-1.37,2.11.58,2,1.76,4,2.1,3,.52,4-2,7.18-2,3.38,0,3.78,2.88,7.33,3.16s4.25-2.62,8.36-2.64c3.67,0,4,2.3,7.76,2.28,4.12,0,5.19-2.91,8.45-2.19,2.56.56,2.67,2.52,5.06,2.71,2.82.22,3.82-1.9,6.15-2.58,1.28-.37,2.71,1.45,5.07,2.21a6.93,6.93,0,0,0,4.87-.52c2.13-2.88,2.32-3.81,1.56-5.82C221.33,322.8,192.52,319.07,138.24,326.06Z"/><path class="cls-39" d="M137.43,316.75c-2.23,9.22-1.76,11.94-.72,12.47,1.33.67,3-2.51,6.83-2.52,3,0,3.45,2,6.87,2.38,3.78.39,4.46-2,8.47-1.84,3.56.12,3.77,2,7.48,2.54,4.9.7,5.67-1.93,10.59-1.8,5.83.16,6.68,4.1,11.9,3.7,4.38-.34,5.74-3.62,9.18-2.6,2.53.76,2.73,2.81,5.28,3.21s3.75-1.47,6.38-2.09c4-.94,6,2.21,10.24,3.43,1.52.45,3.59,1.23,5.58-2.12,0,0,3.24-5.63,2.2-8.81C226.42,318.74,208.7,314.46,137.43,316.75Z"/><path class="cls-40" d="M225.2,326.43c-1.74-.19-1.94-2.13-4.35-2.52-2.79-.46-3.77,1.92-7.26,2.2-4,.31-4.92-2.61-9.07-2.39-3.55.19-3.79,2.39-7.22,2.52-4.05.15-4.85-2.87-9.12-2.93-3.9-.05-4.47,2.44-8.17,2.26-4.14-.2-4.85-3.38-8.64-3.29-3.47.07-4.16,2.76-7.22,2.52-3.33-.26-3.63-3.5-7-3.86s-4.86,2.87-8.16,2.37c-3-.45-3.4-3.46-6.19-3.81-3.33-.42-5.58,4-6.72,3.58-1.34-.51-.25-7.22,3.6-11.69,4.66-5.39,13.39-1.39,34.95-.23,26.78,1.45,42.81.71,42.81.71,8.53-.39,15.21-1.37,16.08,1.64C234.75,317.73,229.2,326.89,225.2,326.43Z"/><path class="cls-39" d="M137.33,315.14c3.32.94,5.84-2.3,9.57-1.18,2.67.8,2.69,2.22,5.2,2.57,3.58.49,4.83-2.22,8.68-2.31,4.32-.1,4.73,3.27,9.32,3.69,5.35.49,7.61-3.83,12.22-2.79,3.19.72,3.09,3,6,3.28,4,.36,5.86-4.13,9.72-3.7,3,.32,3,3.15,6.25,3.59,3.68.5,5.23-3,9-2.55,3.21.35,3.22,2.94,6.78,3.54,1.07.18,2.52.2,9.07-2.33l2.14-.8-19.34-7.95a40.38,40.38,0,0,1-11.09,2.17c-5.06,0-39.6-2.81-44.64-3.85s-12.1-.3-16.39,3C138.84,310.28,135.85,312.73,137.33,315.14Z"/><path class="cls-41" d="M250.59,321a5.37,5.37,0,0,0,1.2,3.75c.86,1,1.55,1,2.12,2,.8,1.37,0,2.27.34,3.76.23.86.92,2.06,3.06,3.28"/><path class="cls-41" d="M247.92,321.16a5.35,5.35,0,0,0,1.2,3.75c.85,1,1.55,1,2.12,2,.8,1.38-.05,2.27.34,3.76.23.87.91,2.06,3,3.28"/><path class="cls-41" d="M245.32,322a5.29,5.29,0,0,0,1.19,3.75c.86,1,1.55,1,2.13,2,.8,1.38-.06,2.27.34,3.76.23.87.91,2.06,3.05,3.28"/><path class="cls-41" d="M242,322.27a5.24,5.24,0,0,0,1.2,3.75c.85,1,1.55,1,2.12,2,.8,1.38-.06,2.28.34,3.76.23.87.91,2.06,3.05,3.29"/><path class="cls-41" d="M239.3,322.2a5.31,5.31,0,0,0,1.19,3.75c.86,1,1.55,1,2.12,2,.81,1.38-.05,2.27.35,3.76.23.87.91,2.06,3,3.28"/><path class="cls-41" d="M235.78,322.46a5.38,5.38,0,0,0,1.2,3.76c.86,1,1.55,1,2.12,2,.8,1.37,0,2.27.34,3.76.23.86.92,2.06,3.05,3.28"/><path class="cls-41" d="M229.27,322.82a5.35,5.35,0,0,0,1.2,3.75c.86,1,1.55,1,2.12,2,.8,1.38-.05,2.27.34,3.76.23.87.92,2.06,3,3.28"/><path class="cls-41" d="M225.68,322.33a5.34,5.34,0,0,0,1.19,3.76c.86,1,1.55,1,2.12,2,.81,1.37-.05,2.27.35,3.76.23.86.91,2.05,3,3.28"/><path class="cls-41" d="M232.41,323a5.31,5.31,0,0,0,1.19,3.75c.86,1,1.55,1,2.13,2,.8,1.38-.06,2.27.34,3.76.23.87.91,2.06,3.05,3.28"/><path class="cls-42" d="M252.17,320.8a5.33,5.33,0,0,0,1.2,3.75c.86,1,1.55,1,2.12,2,.8,1.38-.05,2.27.34,3.76.23.87.92,2.06,3,3.28"/><path class="cls-42" d="M249.5,321a5.29,5.29,0,0,0,1.19,3.75c.86,1,1.55,1,2.12,2,.81,1.38-.05,2.28.35,3.77.23.86.91,2.05,3,3.28"/><path class="cls-42" d="M246.9,321.87a5.32,5.32,0,0,0,1.19,3.75c.86,1,1.55,1,2.12,2,.81,1.37-.05,2.27.35,3.76.23.86.91,2.06,3.05,3.28"/><path class="cls-42" d="M243.58,322.12a5.31,5.31,0,0,0,1.19,3.75c.86,1,1.55,1,2.12,2,.81,1.38,0,2.27.35,3.76.23.86.91,2.06,3,3.28"/><path class="cls-42" d="M240.87,322a5.33,5.33,0,0,0,1.2,3.75c.86,1,1.55,1,2.12,2,.8,1.38-.05,2.28.34,3.77.23.86.92,2,3.05,3.28"/><path class="cls-42" d="M237.36,322.31a5.29,5.29,0,0,0,1.19,3.75c.86,1,1.55,1,2.12,2,.81,1.38,0,2.27.35,3.76.23.87.91,2.06,3,3.28"/><path class="cls-42" d="M230.85,322.66a5.24,5.24,0,0,0,1.2,3.75c.85,1,1.55,1,2.12,2,.8,1.38-.06,2.28.34,3.77.23.86.91,2,3.05,3.28"/><path class="cls-42" d="M227.25,322.18a5.33,5.33,0,0,0,1.2,3.75c.86,1,1.55,1,2.12,2,.8,1.38,0,2.27.34,3.76.23.87.92,2.06,3.05,3.28"/><path class="cls-42" d="M223.8,321.94a5.32,5.32,0,0,0,1.19,3.75c.86,1,1.55,1,2.12,2,.81,1.38-.05,2.27.35,3.76.23.86.91,2.06,3,3.28"/><path class="cls-42" d="M234,322.84a5.33,5.33,0,0,0,1.2,3.75c.86,1,1.55,1,2.12,2,.81,1.38-.05,2.28.35,3.77.22.86.91,2.05,3,3.28"/><polygon class="cls-43" points="223 315.2 258.06 312.55 256.95 302.32 221.89 304.98 223 315.2"/><path class="cls-44" d="M260.59,310.94s13.29,8.6-19.45,11.08-20.67-8.56-20.67-8.56l7.19-3.76A42.53,42.53,0,0,0,240.21,311a52.85,52.85,0,0,0,13.08-3.23Z"/><path class="cls-45" d="M267.09,303.92c.42-1.36,1.45-2,.46-3.89-1.35-2.57-4.43-3.59-5.92-4.2C252.42,292,260,283,249,275.58c-2.6-1.76-6.91-4.67-12.58-4.42s-9.34,3.36-12.23,5.8c-9.32,7.85,2.67,14.22-5.87,21.09-1.64,1.32-5.24,3.8-5,7,.09,1.31.07,1,.64,1.72C235.44,305.4,245.56,305.33,267.09,303.92Z"/><path class="cls-46" d="M241,285.28c3.46.07,6-6.08,6.12-6.34.9-2.22,1.6-3.95.76-5.36-2.79-4.69-21.18-3.35-22.87,1.38-.49,1.35.5,2.82,2.47,5.75,1.44,2.16,3.53,5.26,5.94,5.14,1.66-.08,2.07-1.64,4.1-1.67C239.27,284.15,239.6,285.25,241,285.28Z"/><path class="cls-47" d="M228.69,277.1s.62,1.56,8.22,1,7.89-2.21,7.89-2.21l-.19-.49c-.12-.27-.27-.65-.47-1.1s-.36-.83-.59-1.3-.34-.71-.53-1.09c-.28-.55-.58-1.12-.92-1.7-.2-.35-.41-.7-.62-1-.35-.56-.72-1.1-1.11-1.61-.24-.32-.5-.64-.76-.93-1.28-1.45-2.72-2.45-4.2-2.33s-2.67,1.3-3.62,2.92c-.2.34-.39.7-.57,1.07-.26.55-.5,1.13-.72,1.72-.15.38-.28.77-.41,1.15-.17.54-.33,1.07-.47,1.59s-.21.81-.3,1.19c-.13.54-.24,1-.33,1.48s-.18.9-.22,1.2S228.69,277.1,228.69,277.1Z"/><path class="cls-48" d="M231.22,268.28a16,16,0,0,0,4.68.48,14.65,14.65,0,0,0,4.47-1.21c-.24-.32-.5-.64-.76-.93a12.51,12.51,0,0,1-3.83,1,13.12,13.12,0,0,1-4-.41C231.59,267.55,231.4,267.91,231.22,268.28Z"/><path class="cls-48" d="M230.09,271.15a30.62,30.62,0,0,0,6.06.26,28.78,28.78,0,0,0,5.95-1.21c-.2-.35-.41-.7-.62-1a25.38,25.38,0,0,1-5.45,1.11,25.75,25.75,0,0,1-5.53-.27C230.35,270.38,230.22,270.77,230.09,271.15Z"/><path class="cls-48" d="M229.32,273.93a41.1,41.1,0,0,0,7.63.25,37.33,37.33,0,0,0,6.6-1.19c-.16-.35-.34-.71-.53-1.09a34,34,0,0,1-6.19,1.15,36.34,36.34,0,0,1-7.21-.31C229.51,273.15,229.41,273.55,229.32,273.93Z"/><path class="cls-48" d="M228.77,276.61a52,52,0,0,0,8.07.12,46.29,46.29,0,0,0,7.77-1.34c-.12-.27-.27-.65-.47-1.1a43.53,43.53,0,0,1-7.42,1.3,44.63,44.63,0,0,1-7.73-.18C228.89,275.9,228.81,276.31,228.77,276.61Z"/><ellipse class="cls-49" cx="257.45" cy="288.03" rx="7.03" ry="8.25" transform="translate(-33.54 542.12) rotate(-89.34)"/><ellipse class="cls-50" cx="256.97" cy="287.83" rx="5.53" ry="6.64" transform="translate(-68.97 494.32) rotate(-80.6)"/><ellipse class="cls-51" cx="256.21" cy="287.48" rx="4.64" ry="5.44" transform="translate(-34.22 540.34) rotate(-89.34)"/><ellipse class="cls-50" cx="255.94" cy="287.33" rx="4.05" ry="4.76" transform="translate(-34.34 539.92) rotate(-89.34)"/><ellipse class="cls-51" cx="255.76" cy="287.22" rx="3.49" ry="4.1" transform="translate(-34.4 539.63) rotate(-89.34)"/><ellipse class="cls-52" cx="255.69" cy="286.96" rx="2.58" ry="3.03" transform="translate(-34.21 539.31) rotate(-89.34)"/><path class="cls-46" d="M244.59,288.84c.19-2.69,1.81-5.13,4.94-8.74,1-1.18,6.44-6,12.48-5,2.59.43,6.52,3.19,6.19,5.53-.66,4.69-5.95,4-8.53,4.09-3.75.15-4.55.65-6.52,1.73s-1.74,1.8-4.92,3.57c-1,.55-1.89,1-2.6.69A2,2,0,0,1,244.59,288.84Z"/><ellipse class="cls-49" cx="219.98" cy="290.86" rx="7.03" ry="8.25" transform="translate(-73.41 507.46) rotate(-89.34)"/><ellipse class="cls-50" cx="220.41" cy="290.6" rx="6.57" ry="5.59" transform="translate(-44.98 40.41) rotate(-9.51)"/><ellipse class="cls-51" cx="221.08" cy="290.14" rx="4.64" ry="5.44" transform="translate(-71.6 507.84) rotate(-89.34)"/><ellipse class="cls-50" cx="221.32" cy="289.95" rx="4.05" ry="4.76" transform="translate(-71.18 507.9) rotate(-89.34)"/><ellipse class="cls-51" cx="221.47" cy="289.81" rx="3.49" ry="4.1" transform="translate(-70.89 507.91) rotate(-89.34)"/><ellipse class="cls-52" cx="221.48" cy="289.55" rx="2.58" ry="3.03" transform="translate(-70.62 507.66) rotate(-89.34)"/><path class="cls-46" d="M232.81,289.74c-.77-2.62-2.89-4.78-6.75-7.86-1.25-1-7.63-5-13.35-3.07-2.46.81-5.73,4.12-4.9,6.37,1.65,4.52,6.71,3,9.27,2.74,3.72-.41,4.61,0,6.79.73s2.1,1.5,5.61,2.77c1.1.39,2.06.66,2.7.29A1.85,1.85,0,0,0,232.81,289.74Z"/><path class="cls-53" d="M259.71,312s5.34,6.08-18.28,7.87-18.82-6.58-18.82-6.58l5.73-3a37.11,37.11,0,0,0,12.19,1.3,42.69,42.69,0,0,0,11.81-2.75l6.16.1Z"/><path class="cls-54" d="M257.51,310.1s11.16,7.32-16.31,9.4-17.72-7.27-17.72-7.27"/><path class="cls-46" d="M240.1,305.77a104,104,0,0,1,12.8,3.55c8.37,2.91,12,5.45,17.24,4.39.77-.16,4.58-.94,5.62-3.38,1.28-3-2.58-6.46-3.08-6.92-3.09-2.75-6.63-3.2-14.68-4.53-16.7-2.75-15.31-3.12-18.22-3-5.79.2-10.39,2-19.58,5.51-13.5,5.21-14.88,8.26-15.26,9.75-.09.37-.81,3.4,1.33,5.33,2.45,2.2,7.37,1.05,9.83.49,5.68-1.29,7.81-3.61,14.73-7.13A84.56,84.56,0,0,1,240.1,305.77Z"/><ellipse class="cls-55" cx="246.43" cy="296.82" rx="2.58" ry="3.03" transform="translate(-53.23 539.79) rotate(-89.34)"/><ellipse class="cls-55" cx="232.72" cy="297.86" rx="2.58" ry="3.03" transform="translate(-67.82 527.11) rotate(-89.34)"/><ellipse class="cls-51" cx="239.35" cy="295.31" rx="4.62" ry="5.28" transform="translate(-63.28 525.34) rotate(-88.21)"/><g id="China_Flag" data-name="China Flag"><rect class="cls-56" x="35.03" y="296.1" width="115" height="69" rx="14.61"/><polygon class="cls-57" points="52.51 304.63 55.24 310.16 61.35 311.05 56.93 315.36 57.97 321.44 52.51 318.57 47.05 321.44 48.09 315.36 43.67 311.05 49.78 310.16 52.51 304.63"/><polygon class="cls-57" points="69.08 307.29 67.72 305.72 65.65 305.94 66.73 304.16 65.88 302.27 67.91 302.75 69.45 301.35 69.62 303.42 71.42 304.46 69.5 305.26 69.08 307.29"/><polygon class="cls-57" points="74.22 313.61 73.64 311.65 71.7 311.02 73.39 309.87 73.39 307.82 75.01 309.07 76.95 308.44 76.27 310.36 77.47 312.02 75.43 311.96 74.22 313.61"/><polygon class="cls-57" points="74.69 317.15 75.66 318.93 77.68 319.14 76.29 320.61 76.71 322.59 74.88 321.72 73.13 322.74 73.39 320.73 71.89 319.38 73.87 319 74.69 317.15"/><polygon class="cls-57" points="69.2 329.67 67.84 328.14 65.8 328.39 66.83 326.62 65.96 324.75 67.97 325.19 69.47 323.79 69.68 325.83 71.48 326.83 69.59 327.65 69.2 329.67"/></g><rect class="cls-58" x="140.59" y="288.15" width="2.21" height="0.77" transform="translate(-113.3 92.81) rotate(-26.34)"/><rect class="cls-58" x="139.46" y="286.41" width="2.6" height="0.77" transform="matrix(0.9, -0.44, 0.44, 0.9, -112.62, 92.22)"/><path class="cls-59" d="M129,292.67a1.46,1.46,0,0,0,1.86.79,15.82,15.82,0,0,0,2.93-1.43c.89-.57,3-2.19,3.53-2.59s2.27-1.2,2.27-1.2l-.54-1.28A16,16,0,0,1,136.6,288a37.23,37.23,0,0,0-4.36,1.24,9.11,9.11,0,0,0-2.69,1.37,2,2,0,0,0-.4.43A1.26,1.26,0,0,0,129,292.67Z"/><path class="cls-60" d="M129,292.67a1.48,1.48,0,0,0,1.33.9.83.83,0,0,0,.22,0,1.42,1.42,0,0,0,.31-.08l-1.34-2.84a1.84,1.84,0,0,0-.38.41l0,0A1.26,1.26,0,0,0,129,292.67Z"/><path class="cls-61" d="M129.17,291l1.19,2.54a.83.83,0,0,0,.22,0,1.42,1.42,0,0,0,.31-.08l-1.34-2.84A1.84,1.84,0,0,0,129.17,291Z"/><path class="cls-59" d="M155.83,286.75a1.43,1.43,0,0,1-.29,1.76l-.25.19a15.73,15.73,0,0,1-2.95,1.4c-1,.35-3.57,1-4.23,1.16s-2.36,1-2.36,1l-.66-1.23a14.94,14.94,0,0,0,2.36-1.28,37.38,37.38,0,0,1,3.7-2.65,9.46,9.46,0,0,1,2.75-1.25,1.94,1.94,0,0,1,.58,0A1.26,1.26,0,0,1,155.83,286.75Z"/><path class="cls-60" d="M155.83,286.75a1.47,1.47,0,0,1-.13,1.6,1.21,1.21,0,0,1-.16.16l-.25.19-1.39-2.82a2.15,2.15,0,0,1,.56,0h0A1.26,1.26,0,0,1,155.83,286.75Z"/><path class="cls-61" d="M154.46,285.84l1.24,2.51a1.21,1.21,0,0,1-.16.16l-.25.19-1.39-2.82A2.15,2.15,0,0,1,154.46,285.84Z"/><path class="cls-59" d="M153.47,282.62a1.44,1.44,0,0,1-.25,1.76l-.25.2A16,16,0,0,1,150,286c-1,.37-3.54,1-4.2,1.25s-2.33,1.08-2.33,1.08l-.69-1.21a15.94,15.94,0,0,0,2.34-1.34,36.09,36.09,0,0,1,3.64-2.72,9,9,0,0,1,2.72-1.31,1.94,1.94,0,0,1,.58-.06A1.26,1.26,0,0,1,153.47,282.62Z"/><path class="cls-60" d="M153.47,282.62a1.48,1.48,0,0,1-.1,1.6l-.15.16-.25.2-1.45-2.79a2.15,2.15,0,0,1,.55-.06h0A1.26,1.26,0,0,1,153.47,282.62Z"/><path class="cls-61" d="M152.07,281.73l1.3,2.49-.15.16-.25.2-1.45-2.79A2.15,2.15,0,0,1,152.07,281.73Z"/><path class="cls-59" d="M131.3,297.26a1.43,1.43,0,0,0,1.55.87l.3-.08a15,15,0,0,0,2.93-1.44c.9-.56,3-2.18,3.54-2.58a25.17,25.17,0,0,1,2.27-1.2l-.54-1.28a16,16,0,0,1-2.48,1.05,37,37,0,0,0-4.37,1.23,9.68,9.68,0,0,0-2.68,1.37,2.27,2.27,0,0,0-.4.43A1.27,1.27,0,0,0,131.3,297.26Z"/><path class="cls-60" d="M131.3,297.26a1.49,1.49,0,0,0,1.33.9l.22,0,.3-.08-1.33-2.85a2.4,2.4,0,0,0-.38.41l0,0A1.27,1.27,0,0,0,131.3,297.26Z"/><path class="cls-61" d="M131.44,295.61l1.19,2.55.22,0,.3-.08-1.33-2.85A2.4,2.4,0,0,0,131.44,295.61Z"/><path class="cls-62" d="M150.15,311.87l5-2.48s7.8,8.86,10.62,11.19,16.73,14.53,19.54,19.37,3.58,8.59,2.75,12.24-3.4,8.42-7.8,10.6-10.22,2.89-14.71.87-8.56-9.9-9.43-15.36-2.42-20.51-2.71-22.61S151.67,315.06,150.15,311.87Z"/><path class="cls-63" d="M138.53,286.73l2.69,5.43,3.55-1.76L142.08,285Zm5.12,3.77-1.66.82-2.33-4.71,1.66-.83Z"/><path class="cls-64" d="M142.08,285a3.85,3.85,0,0,1-.09-1c0-.29.16-1.67.16-1.67l-5.73,2.84a11.34,11.34,0,0,1,1.65.92,2.48,2.48,0,0,1,.46.62Z"/><ellipse class="cls-65" cx="138.57" cy="282.32" rx="3.77" ry="3.04" transform="translate(-110.86 90.78) rotate(-26.34)"/><path class="cls-66" d="M155.36,309.29l-5.44,2.7-.43-1.1c-.06-.16-.14-.34-.21-.53-.22-.57-.49-1.25-.79-2l-.21-.54-1-2.44-.22-.53c-.33-.82-.66-1.64-1-2.4-.07-.18-.15-.36-.22-.53-.37-.89-.71-1.69-1-2.31-.09-.19-.17-.36-.25-.51s-.07-.16-.1-.23L141.65,293l-.43-.88,3.55-1.76.46.86c.09.15.18.32.28.51l1.28,2.41c.09.17.18.34.26.51.48.91.95,1.82,1.32,2.56h0l.26.5c.3.57.73,1.33,1.22,2.19.09.17.19.33.28.51.42.71.86,1.47,1.3,2.24l.3.49c.45.78.91,1.55,1.34,2.26.09.17.19.34.29.5l1.1,1.85.3.49C155.13,308.92,155.36,309.29,155.36,309.29Z"/><path class="cls-67" d="M147.05,294.69l-3.68,1.82-.25-.51,3.67-1.82C146.88,294.35,147,294.52,147.05,294.69Z"/><path class="cls-67" d="M148.63,297.76l-3.74,1.85c-.09-.19-.17-.36-.25-.51l3.73-1.85h0Z"/><path class="cls-67" d="M150.13,300.46l-4,2c-.07-.18-.15-.36-.22-.53l4-2C149.94,300.12,150,300.28,150.13,300.46Z"/><path class="cls-67" d="M151.73,303.19l-4.43,2.19-.22-.53,4.35-2.15Z"/><path class="cls-67" d="M153.36,306l-4.87,2.41-.21-.54,4.79-2.37C153.16,305.62,153.26,305.79,153.36,306Z"/><path class="cls-67" d="M154.76,308.29l-5.27,2.6c-.06-.16-.14-.34-.21-.53l5.18-2.56Z"/><path class="cls-67" d="M145.51,291.77l-3.6,1.78-.26-.51,3.58-1.78C145.32,291.41,145.41,291.58,145.51,291.77Z"/><line class="cls-68" x1="165.83" y1="341.44" x2="171.64" y2="338.56"/><line class="cls-68" x1="166.45" y1="342.7" x2="172.26" y2="339.82"/><line class="cls-68" x1="167.07" y1="343.96" x2="172.89" y2="341.08"/><line class="cls-68" x1="167.7" y1="345.22" x2="173.51" y2="342.34"/><line class="cls-68" x1="163.48" y1="322.22" x2="155.42" y2="326.21"/><line class="cls-68" x1="154.15" y1="325.22" x2="164.22" y2="320.24"/><line class="cls-68" x1="153.95" y1="323" x2="162.58" y2="318.73"/><line class="cls-68" x1="153.61" y1="320.65" x2="160.9" y2="317.04"/><line class="cls-68" x1="153.09" y1="317.96" x2="159.08" y2="314.99"/><line class="cls-68" x1="152.45" y1="315.23" x2="157.3" y2="312.83"/><line class="cls-68" x1="150.93" y1="312.94" x2="155.8" y2="310.53"/><line class="cls-68" x1="164.1" y1="323.48" x2="156.04" y2="327.47"/><line class="cls-68" x1="164.72" y1="324.74" x2="156.66" y2="328.73"/><line class="cls-68" x1="165.35" y1="326" x2="157.29" y2="329.99"/><line class="cls-68" x1="165.97" y1="327.26" x2="157.91" y2="331.25"/><line class="cls-68" x1="166.59" y1="328.52" x2="158.53" y2="332.51"/><line class="cls-68" x1="167.22" y1="329.78" x2="159.16" y2="333.77"/><line class="cls-68" x1="167.84" y1="331.03" x2="159.78" y2="335.03"/><line class="cls-68" x1="168.47" y1="332.29" x2="160.4" y2="336.29"/><line class="cls-68" x1="169.09" y1="333.55" x2="161.03" y2="337.54"/><line class="cls-68" x1="169.71" y1="334.81" x2="162.77" y2="338.25"/><line class="cls-68" x1="170.34" y1="336.07" x2="163.4" y2="339.51"/><line class="cls-68" x1="170.96" y1="337.33" x2="164.02" y2="340.77"/><rect class="cls-69" x="171.99" y="355.56" width="7.87" height="4.63" transform="translate(-140.51 115.19) rotate(-26.34)"/><rect class="cls-70" x="171.14" y="355.75" width="7.87" height="0.8" transform="translate(-139.83 114.64) rotate(-26.34)"/><line class="cls-71" x1="141.64" y1="291.5" x2="174.77" y2="358.44"/><line class="cls-71" x1="144.11" y1="290.27" x2="177.25" y2="357.21"/><line class="cls-71" x1="142.42" y1="291.11" x2="175.56" y2="358.05"/><line class="cls-71" x1="143.31" y1="290.67" x2="176.45" y2="357.61"/><path class="cls-72" d="M105.61,266.89l-54,.26a196.13,196.13,0,0,0,7.24-18.86A43.59,43.59,0,0,0,60,243.56s-.28-.06-.26-.16C61,237.06,62.11,229,62.11,229l35,.65s.35,6,1.17,11.61a46.9,46.9,0,0,0,1.46,7C102.26,256,104.87,265.61,105.61,266.89Z"/><path class="cls-73" d="M105.9,267.15H51.59c.73-1.28,4.41-11.15,6.94-18.86a43.4,43.4,0,0,0,1.18-4.73l0-.16a3.74,3.74,0,0,1,2.69-2.82c2.32-.55,8.13,2.54,8.13,2.54l20.86-.32s2.8-2.24,5-2.29a3,3,0,0,1,1.92.79,43.64,43.64,0,0,0,1.86,7C102.7,256,105.15,265.87,105.9,267.15Z"/><path class="cls-72" d="M107,275.74c0,17-12.62,21.68-28.28,21.68s-28.39-4.64-28.39-21.68c0-.43,0-.85,0-1.28v-.32c.77-16.29,13.15-29.24,28.3-29.24,15.4,0,27.93,13.37,28.33,30C107,275.2,107,275.47,107,275.74Z"/><path class="cls-73" d="M107,274.88c-.09.09-.86.82-4.17.84a14,14,0,0,1-6.33-1.57l-9.46-7.93s2.15-8.59,1.36-10.75c-1.39-3.84-5.41-4.95-9.67-4.95s-8.32.8-9.7,5.21,2.65,13.89,2.65,13.89-5,5.55-10.57,6.69-10.75-1.91-10.75-1.91v-.33C51.15,257.32,63.53,244,78.68,244,94.08,244,106.61,257.75,107,274.88Z"/><path class="cls-74" d="M52.9,264.34s-1.39-6.1,2.36-9.79,8.73-2.67,10,.77,1.06,6.79,3.26,9,5.72,4.73,6.82,7.13,3.49,7.56-2.07,7.91-12.74-4.47-14.37-6A29.17,29.17,0,0,1,52.9,264.34Z"/><path class="cls-74" d="M104.59,264.34s1.39-6.1-2.36-9.79-8.73-2.67-10,.77-1.06,6.79-3.27,9-5.71,4.73-6.81,7.13-3.49,7.56,2.07,7.91,12.74-4.47,14.37-6A29.17,29.17,0,0,0,104.59,264.34Z"/><path class="cls-75" d="M86.42,214.25a6.28,6.28,0,0,1,.65-1.56c.6-1.16,2.75-3.82,4.33-4.29s3.18.62,4.44,2.47,2,4.09,2.6,7.49a5.52,5.52,0,0,1-1.91,5.21Z"/><path class="cls-75" d="M73.76,214.25a6.18,6.18,0,0,0-.66-1.56c-.59-1.16-2.75-3.82-4.33-4.29s-3.17.62-4.43,2.47-2.05,4.09-2.6,7.49a5.49,5.49,0,0,0,1.91,5.21Z"/><path class="cls-76" d="M98,230.46C98,240.68,90,247,80.09,247s-17.93-6.29-17.93-16.51,8-17.29,17.93-17.29S98,220.23,98,230.46Z"/><path class="cls-75" d="M82.82,229.7s-1.14-2.72.68-3.57,3.06,1.31,3.63,1.68,2.92,2.11,3.17,3.6-.06,2.9-2.14,2.9a6.43,6.43,0,0,1-2.41-.21Z"/><circle class="cls-77" cx="84.97" cy="229.04" r="1.45" transform="translate(-5.14 1.97) rotate(-1.29)"/><ellipse class="cls-78" cx="84.97" cy="229.04" rx="1.19" ry="1.31" transform="translate(-5.07 1.95) rotate(-1.27)"/><path class="cls-75" d="M75.78,229.7s1.15-2.72-.68-3.57-3,1.31-3.62,1.68-2.92,2.11-3.17,3.6.06,2.9,2.14,2.9a6.5,6.5,0,0,0,2.41-.21Z"/><circle class="cls-77" cx="73.64" cy="229.04" r="1.45" transform="translate(-157 297.5) rotate(-88.71)"/><ellipse class="cls-78" cx="73.64" cy="229.04" rx="1.31" ry="1.19" transform="translate(-156.98 297.57) rotate(-88.73)"/><path class="cls-77" d="M72.19,235.65s2.63-7.47,7.11-7.47,6.85,6.68,6.85,6.68,2.91,7.74-1.89,7.74-4.93-.39-4.93-.39a9.09,9.09,0,0,1-4.35.91c-2.82,0-3.18-2.07-3.23-3.23A36.19,36.19,0,0,1,72.19,235.65Z"/><path class="cls-79" d="M78.63,236.31s3.17-1.49,4.35,0-2.94,3.82-3.68,3.85-5.61-1.33-4.77-3.14S78.63,236.31,78.63,236.31Z"/><path class="cls-80" d="M49.83,285.82a2.12,2.12,0,0,1,.14-.55c1.59-3.69,4.66-6.86,11.38-2.71a75.48,75.48,0,0,0,11.72,6.07s.26,10.63-2.4,10.6c0,0-17.59-1.6-19.49-6.34A15.28,15.28,0,0,1,49.83,285.82Z"/><ellipse class="cls-81" cx="73.42" cy="293.68" rx="6.13" ry="5.15" transform="translate(-228.09 320.78) rotate(-81.1)"/><path class="cls-82" d="M70.93,296.76a1,1,0,0,0,.39-1.21c-.34-.57-1.85-.27-2,.18S70.27,297.1,70.93,296.76Z"/><path class="cls-82" d="M71,293.88a1,1,0,0,0,.55-1.14c-.27-.62-1.8-.52-2-.09S70.31,294.13,71,293.88Z"/><path class="cls-82" d="M72.49,291.64a1,1,0,0,0,1-.78c0-.67-1.39-1.25-1.74-.94S71.75,291.57,72.49,291.64Z"/><path class="cls-82" d="M75,291.17a1,1,0,0,0,1.21-.38c.26-.62-.86-1.67-1.29-1.5S74.33,290.83,75,291.17Z"/><path class="cls-82" d="M72.41,296.86c-.76-.83-.32-2.6.51-3.64.67-.84,2.12-1.86,3.32-1.29s1.5,2.52.88,3.76C76.22,297.45,73.38,297.92,72.41,296.86Z"/><path class="cls-80" d="M107.71,285.56a2,2,0,0,0-.14-.55c-1.59-3.69-4.66-6.87-11.38-2.71a75.48,75.48,0,0,1-11.72,6.07S84.2,299,86.87,299c0,0,17.59-1.61,19.48-6.34A15.21,15.21,0,0,0,107.71,285.56Z"/><ellipse class="cls-81" cx="84.12" cy="293.42" rx="5.15" ry="6.13" transform="translate(-44.38 16.55) rotate(-8.9)"/><path class="cls-82" d="M86.61,296.49a1,1,0,0,1-.4-1.2c.35-.57,1.86-.27,2,.18S87.27,296.84,86.61,296.49Z"/><path class="cls-82" d="M86.53,293.61a1,1,0,0,1-.56-1.14c.27-.61,1.81-.51,2-.08S87.23,293.87,86.53,293.61Z"/><path class="cls-82" d="M85.05,291.38a1,1,0,0,1-1-.78c0-.67,1.4-1.26,1.74-.94S85.79,291.3,85.05,291.38Z"/><path class="cls-82" d="M82.54,290.9a1,1,0,0,1-1.2-.37c-.26-.62.85-1.67,1.28-1.5S83.21,290.57,82.54,290.9Z"/><path class="cls-82" d="M85.12,296.6c.77-.84.33-2.6-.5-3.64-.67-.84-2.13-1.87-3.32-1.29s-1.51,2.52-.88,3.75C81.32,297.19,84.16,297.66,85.12,296.6Z"/><path class="cls-83" d="M79.28,240.16a3.35,3.35,0,0,0,1.74.91A3.39,3.39,0,0,0,82.6,241"/><path class="cls-83" d="M79.28,240.16A3.34,3.34,0,0,1,76,241"/></g></g></svg>