<svg xmlns="http://www.w3.org/2000/svg" xmlns:xlink="http://www.w3.org/1999/xlink" viewBox="0 0 400 400"><defs><style>.cls-1,.cls-10,.cls-14,.cls-34,.cls-7,.cls-8,.cls-9{fill:none;}.cls-2{clip-path:url(#clip-path);}.cls-3{fill:#b3defe;}.cls-4{fill:#e4eff2;}.cls-5{fill:#d8a56a;}.cls-6{fill:#9a7c51;}.cls-7{stroke:#d8a56a;stroke-width:2px;}.cls-14,.cls-34,.cls-7,.cls-8,.cls-9{stroke-miterlimit:10;}.cls-8{stroke:#d2c6ba;}.cls-10,.cls-9{stroke:#9a7c51;}.cls-10{stroke-linejoin:bevel;}.cls-11{fill:#b3b5aa;}.cls-12{fill:#544c39;}.cls-13{fill:#928660;}.cls-14{stroke:#625e53;}.cls-15{fill:#625e53;}.cls-16{fill:#2e3746;}.cls-17{fill:#cbc4b4;}.cls-18{fill:#dcd0c1;}.cls-19{fill:#006994;}.cls-20{fill:#6b382f;}.cls-21{fill:#4d996b;}.cls-22{fill:#ce1b42;}.cls-23{fill:#fbf4f5;}.cls-24{fill:#2c54a3;}.cls-25{fill:#c1c1c1;}.cls-26{fill:#d8d8d8;}.cls-27{fill:#af8254;}.cls-28{fill:#7a0303;}.cls-29{fill:#010c02;}.cls-30{fill:#890404;}.cls-31{fill:#e0e2e0;}.cls-32{fill:#160201;}.cls-33{fill:#e3e4ea;}.cls-34{stroke:#f0f0f2;stroke-linecap:round;stroke-width:3px;}.cls-35{fill:#dd76a0;}.cls-36{fill:#ba4977;}.cls-37{fill:#ef8eba;}.cls-38{fill:#5dc1d1;}.cls-39{fill:#3f8b93;}.cls-40{fill:#83dce5;}.cls-41{fill:#57b257;}.cls-42{fill:#448244;}.cls-43{fill:#a1dba1;}.cls-44{fill:#e0903d;}.cls-45{fill:#d07d26;}.cls-46{fill:#001b69;}.cls-47{fill:#f7f7f7;}.cls-48{fill:#c90a2b;}</style><clipPath id="clip-path"><path class="cls-1" d="M350,200a149.27,149.27,0,0,1-27.79,87c-.27.39-.55.77-.82,1.15a150.86,150.86,0,0,1-47.51,42.43,150.18,150.18,0,0,1-150.61-1.65A150.85,150.85,0,0,1,77.79,287h0a150,150,0,0,1,6.39-182.31A151.08,151.08,0,0,1,99.73,88.44a150.8,150.8,0,0,1,30-21h0A150,150,0,0,1,350,200Z"/></clipPath></defs><g id="Layer_1" data-name="Layer 1"><g id="France"><g class="cls-2"><rect class="cls-3" x="31.09" y="44.06" width="327.74" height="251.21"/><ellipse class="cls-4" cx="260.51" cy="130.28" rx="26.29" ry="14.52"/><ellipse class="cls-4" cx="271.33" cy="113.46" rx="18.42" ry="15.57"/><ellipse class="cls-4" cx="281.95" cy="128.83" rx="23.77" ry="9.56"/><path class="cls-5" d="M292.22,249.72H277.86s0-.23-.09-.66c-.37-2.34-2-10.41-7.45-16.93h0a26,26,0,0,0-2.11-2.23h0c-4.09-3.84-9.85-6.7-18-6.7-8.29,0-14.06,3-18.07,7a26.16,26.16,0,0,0-2.23,2.54,36.43,36.43,0,0,0-6.68,16.62c0,.27,0,.42,0,.42H208l14.64-26.58,1.42-2.56,2.92-5.31h47.71l2.71,5.31,1.3,2.56Z"/><rect class="cls-6" x="226.72" y="206.84" width="48.22" height="4.14"/><polygon class="cls-6" points="226.11 210.98 275.55 210.98 274.7 215.27 226.98 215.27 226.11 210.98"/><path class="cls-5" d="M271,206.84H260.26a118.52,118.52,0,0,1-2.78-12.57c-1-6.33-1.47-11.47-1.47-11.47H245.85s-.63,6.56-1.26,10.79a77.37,77.37,0,0,1-3.22,13.25H230.82s2.39-6.47,3.58-10.57,2.66-8.62,3.4-11.79,1.87-7.86,1.87-7.86h22.46s1.42,5.14,1.87,7.22,2.56,9.19,3.46,12.54S271,206.84,271,206.84Z"/><polygon class="cls-6" points="239.67 176.62 237.85 172.32 264.08 172.32 262.13 176.62 239.67 176.62"/><path class="cls-5" d="M261,169.92c-.33-1.76-.78-4.17-1.08-6.26-.56-3.8-1.5-13.78-2.14-19.64-.39-3.56-.89-10.13-1.22-14.74-.22-3-.36-5.12-.36-5.12s-.44-10.31-.79-18.19c-.13-2.75-.24-5.21-.33-6.83-.2-4-.36-11.45-.46-16.37,0-.82,0-1.57,0-2.22V80.3c0-1.27,0-2.12-.05-2.31v0h-6.4v0c0,.19,0,1-.08,2.31a2.18,2.18,0,0,1,0,.25c0,.65,0,1.4-.07,2.22,0,.62,0,1.27-.06,2-.17,5.41-.41,12.47-.5,14.89-.07,1.73-.25,5.33-.47,9.32-.29,5.51-.65,11.77-.87,15-.05.56-.08,1.1-.12,1.61-.65,9-.88,10.86-1.39,17.8-.49,6.63-1,11.09-2,18.68-.44,3.43-.92,6.13-1.26,7.92-.31,1.56-.53,2.4-.53,2.4h20.7Zm-13.2.85v-.05l.08-.8v0l1.5-14.21,0-.42,0-.35.23-2.23c0-.26,0-.51.08-.76l.44-4.44a.28.28,0,0,0,0-.09l.78-7.75,1.09,8.25,0,.14s0,.09,0,.13l.09.91c0,.45.09.91.14,1.38l.89,9.21,1.13,10.24v0l0,.45a.31.31,0,0,0,0,.11v0Z"/><polygon class="cls-5" points="250.24 71.08 250.24 68.14 251.34 68.14 252.44 68.14 252.44 71.08 250.24 71.08"/><line class="cls-7" x1="251.34" y1="68.14" x2="251.38" y2="62.39"/><line class="cls-8" x1="251.38" y1="62.39" x2="251.38" y2="57.11"/><polygon class="cls-6" points="263.76 182.8 238.19 182.8 238.74 180.48 263.26 180.48 263.76 182.8"/><rect class="cls-5" x="245.84" y="76.33" width="11.01" height="1.66"/><rect class="cls-5" x="244.9" y="77.99" width="12.66" height="2.56"/><polygon class="cls-5" points="255.83 76.33 246.85 76.33 247.1 75.66 248.78 71.08 253.9 71.08 255.58 75.66 255.83 76.33"/><line class="cls-9" x1="244.9" y1="80.29" x2="257.57" y2="80.29"/><line class="cls-9" x1="246.85" y1="76.59" x2="246.85" y2="79.74"/><line class="cls-9" x1="248.67" y1="76.59" x2="248.67" y2="79.74"/><line class="cls-9" x1="250.46" y1="76.59" x2="250.46" y2="79.74"/><line class="cls-9" x1="252.44" y1="76.59" x2="252.44" y2="79.74"/><line class="cls-9" x1="254.31" y1="76.59" x2="254.31" y2="79.74"/><line class="cls-9" x1="256.24" y1="76.59" x2="256.24" y2="79.74"/><polygon class="cls-6" points="255.83 76.33 246.85 76.33 247.1 75.66 255.58 75.66 255.83 76.33"/><line class="cls-9" x1="247.86" y1="84.73" x2="254.61" y2="84.73"/><line class="cls-9" x1="247.86" y1="82.77" x2="254.61" y2="82.77"/><line class="cls-9" x1="251.1" y1="82.77" x2="251.1" y2="80.55"/><line class="cls-9" x1="252.86" y1="82.77" x2="252.86" y2="80.55"/><line class="cls-9" x1="249.44" y1="82.77" x2="249.44" y2="80.55"/><path class="cls-9" d="M251.1,84.73v49.89s.62,9.14.89,12.49.8,7.31,1.21,12.55,1.2,10.86,1.2,10.86L256,182.8"/><path class="cls-6" d="M261.45,172.33H240.74s.22-.85.53-2.41H261C261.24,171.34,261.45,172.33,261.45,172.33Z"/><path class="cls-9" d="M245.85,182.8l1.94-12.28s.8-5.63,1.21-10.86.93-9.19,1.2-12.55.9-12.49.9-12.49V84.73"/><path class="cls-6" d="M241.37,206.84,238,215.27l-5.88,14.87a26.16,26.16,0,0,0-2.23,2.54l6.88-17.41,3.33-8.43Z"/><path class="cls-6" d="M270.31,232.12a26,26,0,0,0-2.11-2.23h0l-5.77-14.61-3.33-8.43h1.23l3.34,8.43Z"/><polygon class="cls-6" points="278.7 223.15 222.64 223.15 224.06 220.58 277.4 220.58 278.7 223.15"/><path class="cls-10" d="M251.1,84.73l2.88,3a.81.81,0,0,1-.07,1.2l-2.15,1.75a.63.63,0,0,0-.07.92l2.51,2.75a.65.65,0,0,1,0,.89L251.64,98a.61.61,0,0,0,0,.86l2.8,2.78a.91.91,0,0,1-.07,1.36L252,104.89a.85.85,0,0,0-.06,1.28l3,2.91a.85.85,0,0,1,0,1.24l-2.9,2.61a.85.85,0,0,0,0,1.27l3.27,2.89a.85.85,0,0,1,.06,1.22l-3.53,3.87a.85.85,0,0,0,.13,1.27l3.8,2.71a.29.29,0,0,1,0,.47l-3.76,3a.86.86,0,0,0,0,1.34l4.28,3.44a.7.7,0,0,1,0,1.12l-3.81,2.55a.85.85,0,0,0,0,1.38l4.67,3.7a.85.85,0,0,1,.1,1.25l-4.21,4.6a.86.86,0,0,0,.11,1.26l5,3.88a.87.87,0,0,1,0,1.33l-3.93,3.39a.85.85,0,0,0,.14,1.39l4.66,2.61a.85.85,0,0,1,.24,1.29l-4.84,5.77"/><path class="cls-10" d="M251.1,84.73l-2.89,3a.82.82,0,0,0,.07,1.2l2.15,1.75a.63.63,0,0,1,.07.92L248,94.3a.64.64,0,0,0,0,.89L250.55,98a.61.61,0,0,1,0,.86l-2.8,2.78a.91.91,0,0,0,.07,1.36l2.41,1.94a.86.86,0,0,1,.07,1.28l-3,2.91a.85.85,0,0,0,0,1.24l2.89,2.61a.85.85,0,0,1,0,1.27L247,117.09a.87.87,0,0,0-.06,1.22l3.53,3.87a.85.85,0,0,1-.13,1.27l-3.8,2.71a.29.29,0,0,0,0,.47l3.76,3a.86.86,0,0,1,0,1.34L246,134.4a.7.7,0,0,0,0,1.12l3.81,2.55a.85.85,0,0,1,0,1.38l-4.67,3.7a.85.85,0,0,0-.1,1.25l4.21,4.6a.86.86,0,0,1-.1,1.26l-5,3.88a.86.86,0,0,0,0,1.33l3.93,3.39a.85.85,0,0,1-.14,1.39l-4.66,2.61a.85.85,0,0,0-.24,1.29l4.84,5.77"/><path class="cls-9" d="M256,182.32l7.87,3.22a.24.24,0,0,1,.06.41l-6.59,4.69a.23.23,0,0,0,.07.41l8.88,2.76a.23.23,0,0,1,.05.42l-7.49,4.63a.23.23,0,0,0,.06.42l9.74,2.43a.23.23,0,0,1,.06.43l-8.23,5.11"/><path class="cls-9" d="M245.94,182.32l-7.87,3.22a.24.24,0,0,0-.06.41l6.59,4.69a.23.23,0,0,1-.07.41l-8.88,2.76a.24.24,0,0,0-.06.42l7.5,4.63a.23.23,0,0,1-.06.42l-9.74,2.43a.23.23,0,0,0-.06.43l8.23,5.11"/><path class="cls-9" d="M233.69,223.14l-12.44,3.52a.3.3,0,0,0-.08.54l8.47,4.61a.29.29,0,0,1-.1.54l-12.91,2.82a.29.29,0,0,0-.1.54l8.13,5.18a.3.3,0,0,1-.09.54l-13.14,2.95a.29.29,0,0,0,0,.56l9.08,3.67"/><path class="cls-6" d="M223.25,249.3c0,.27,0,.42,0,.42H222l-1.86-.77.33-.8Z"/><path class="cls-9" d="M266.77,223.14l13,3.39c.24.07.41.4.19.53l-9,4.44c-.23.14-.3.45,0,.5l13.29,3.11a.3.3,0,0,1,.1.55l-8,5.13c-.22.14-.35.53-.09.59l12.9,3a.29.29,0,0,1,0,.56L280,248.61"/><path class="cls-6" d="M280.33,249l-1.86.77h-.61s0-.23-.09-.66l2.23-.91Z"/><polygon class="cls-11" points="289.2 250.16 105.35 250.16 180.85 200.25 181.76 199.65 187.61 195.78 188.05 195.49 193.27 192.04 193.72 191.75 199.08 188.21 204.4 191.86 204.84 192.16 210.02 195.72 210.45 196.02 216.26 200.01 217.15 200.63 289.2 250.16"/><polygon class="cls-12" points="181.24 236.03 166.9 250.17 231.48 250.17 217.28 236.17 181.24 236.03"/><rect class="cls-13" x="207.08" y="236.77" width="4.49" height="13.4"/><rect class="cls-13" x="194.79" y="237.02" width="9.16" height="13.14"/><rect class="cls-13" x="186.93" y="237.02" width="4.49" height="13.14"/><line class="cls-14" x1="204.32" y1="192.24" x2="126.41" y2="250.17"/><line class="cls-14" x1="209.88" y1="196.17" x2="146.84" y2="250.17"/><line class="cls-14" x1="224.17" y1="205.45" x2="199.37" y2="235.57"/><line class="cls-14" x1="233.01" y1="211.53" x2="217.66" y2="235.04"/><line class="cls-14" x1="242.67" y1="218.17" x2="228.07" y2="246.8"/><line class="cls-14" x1="253.84" y1="225.86" x2="245.95" y2="250.16"/><line class="cls-14" x1="267.19" y1="235.04" x2="264.41" y2="250.17"/><line class="cls-14" x1="193.96" y1="192.24" x2="271.97" y2="250.17"/><line class="cls-14" x1="188.31" y1="196.04" x2="251.55" y2="250.17"/><line class="cls-14" x1="173.82" y1="204.9" x2="199.02" y2="235.57"/><line class="cls-14" x1="164.85" y1="210.83" x2="180.72" y2="235.04"/><line class="cls-14" x1="154.99" y1="217.35" x2="170.32" y2="246.8"/><line class="cls-14" x1="143.29" y1="225.09" x2="152.43" y2="250.16"/><line class="cls-14" x1="130.8" y1="233.34" x2="133.97" y2="250.17"/><polygon class="cls-15" points="233.01 250.16 231.48 250.16 218.15 237.03 216.13 235.04 199.19 218.34 198.43 217.58 180.85 200.25 181.76 199.65 199.19 216.83 199.96 217.58 217.66 235.04 218.35 235.72 219.68 237.03 233.01 250.16"/><polygon class="cls-15" points="217.15 200.63 199.96 217.58 199.19 218.34 182.25 235.04 180.24 237.03 166.91 250.16 165.38 250.16 178.71 237.03 180.01 235.74 180.72 235.04 198.43 217.58 199.19 216.83 216.26 200.01 217.15 200.63"/><polygon class="cls-16" points="219.68 237.03 178.71 237.03 180.01 235.74 180.72 235.04 217.66 235.04 218.35 235.72 219.68 237.03"/><rect class="cls-17" x="186.31" y="235.57" width="8.81" height="1.19"/><rect class="cls-17" x="202" y="235.57" width="10.15" height="1.19"/><rect class="cls-17" x="197.15" y="235.57" width="2.81" height="1.19"/><rect class="cls-18" x="50.38" y="249.72" width="292.45" height="102.94"/><ellipse class="cls-4" cx="199.29" cy="76.71" rx="14.11" ry="6.63"/><ellipse class="cls-4" cx="207.99" cy="77.04" rx="8.36" ry="9.77"/><ellipse class="cls-4" cx="218.8" cy="81.07" rx="13.33" ry="6.3"/><polygon class="cls-19" points="164.34 249.68 120.27 327.08 52.2 349.09 52.2 249.76 164.34 249.68"/><polygon class="cls-19" points="235.43 249.76 340.52 249.76 340.52 345.73 280.97 345.73 279.71 327.08 235.43 249.76"/><ellipse class="cls-4" cx="98.5" cy="105.01" rx="27.08" ry="14.22"/><ellipse class="cls-4" cx="117.37" cy="93.09" rx="22.23" ry="16.53"/><ellipse class="cls-4" cx="129.86" cy="107.41" rx="23.81" ry="14.52"/></g></g></g><g id="Layer_2" data-name="Layer 2"><g id="NEW_FR" data-name="NEW FR"><path class="cls-20" d="M89.17,280.26c-4.64,8.54-10.37,18.89-10.37,18.89s-1.11,2.42-2.16,1.93,0-2.77,0-2.77,4-10.72,7.56-19.72Z"/><path class="cls-5" d="M155.21,269.26c-1.27-12.71-16.23-27.5-36.66-32.47C106,233.73,90,234.47,83.19,239.47s-4.39,9.3-4.39,9.3a18.57,18.57,0,0,1,2.44,10.66c-.65,5.68-6.5,6.46-8.52,11.81s-.11,14,10.28,20.45,39.9,4.84,52.17,1.16S156.37,280.86,155.21,269.26ZM88.45,283.73a5.67,5.67,0,1,1,6.45-5.2A5.85,5.85,0,0,1,88.45,283.73Z"/><path class="cls-21" d="M110.79,243.81s4.74-3.58,8.2-1.45,2.14,3.75,2.68,5.66,2.16,5.79-1.62,5.52-4.57-5.71-7.43-4.26-7-.38-6-2.53S110.79,243.81,110.79,243.81Z"/><path class="cls-22" d="M137,254.2c3.51.76.74,2.09,2.88,5.15s2.55,5.64-.46,6.13-2.2-2.29-5.48-2-2.24-3.74-5.4-3.24-4.9-5.76-3.36-6.54,5.7,2.46,7.05,1.53S137,254.2,137,254.2Z"/><path class="cls-23" d="M135.57,269.18s.85,1.8,4.54,2.94,6.61,3.15,4,6.29-9.16,8.3-10.87,4.71.74-3-1-7.67S135.57,269.18,135.57,269.18Z"/><path class="cls-24" d="M117,281.55a17.4,17.4,0,0,0,6,2.27c4.08.88,5.63,4.27,3.91,5.58s-3.32,3.25-7,1.34-5-1.19-9.17-.88-9.74-1.4-3.57-4.2-.55-4.52,2.72-6.53S117,281.55,117,281.55Z"/><path class="cls-20" d="M99.36,257.07s-1.59,5.05-3.13,9.14c-.5,1.31-1,2.53-1.42,3.44-.65,1.37-3,5.68-5.64,10.61l-4.93-1.67c2-5.18,3.87-9.79,4.66-11.45.5-1.05,1.13-2.24,1.8-3.46,2.18-3.91,4.82-8,5-8.29h0l.91.43,1.44.66Z"/><polygon class="cls-25" points="96.53 253.56 100.23 255.26 99.38 257.08 95.68 255.38 96.53 253.56"/><path class="cls-26" d="M96.22,266.21l-5.52-2.53c2.25-4,5-8.31,5-8.31l.91.42,2.75,1.28S97.77,262.12,96.22,266.21Z"/><path class="cls-27" d="M96.53,253.57a4.86,4.86,0,0,1,.12-3.48c.78-1.84,3.31-2.65,4.44-4a37,37,0,0,1,3.3-3.78,18.27,18.27,0,0,1-1.24,9.08,14.26,14.26,0,0,1-2.92,3.9Z"/><path class="cls-28" d="M163.68,223.1v1.57l-11.94.13,0-1.56a1.06,1.06,0,0,1,1.06-1.08l9.81-.11A1.08,1.08,0,0,1,163.68,223.1Z"/><path class="cls-28" d="M164.68,246.29a45.72,45.72,0,0,1-7,.69,41.64,41.64,0,0,1-6.82-.54c.67-8.06,1.1-17.23,1.1-17.23l11.86-.13S163.91,238.12,164.68,246.29Z"/><path class="cls-29" d="M175.93,293.72l.51,46.22a23.49,23.49,0,0,1-.44,4.72,7.34,7.34,0,0,1-1.39,3s-3.08,2.58-13.31,2.69-17.14-.68-18.74-2.78-1.51-3.45-1.51-3.45l-.53-47.47s0-12.62,2-18.9,6-14.71,7.29-21.57c.4-2.22.78-5.83,1.1-9.7a41.64,41.64,0,0,0,6.82.54,45.72,45.72,0,0,0,7-.69,58.93,58.93,0,0,0,1.58,9.78c2.25,7.68,5.47,14.38,6.71,19S175.83,284.37,175.93,293.72Z"/><rect class="cls-30" x="151.42" y="224.73" width="12.65" height="4.49" transform="translate(-2.46 1.73) rotate(-0.62)"/><path class="cls-31" d="M143.77,308.45a107.28,107.28,0,0,0,13.9,1.25,146.39,146.39,0,0,0,15.3-1.56l.36,32.4a69.1,69.1,0,0,1-29.2.32Z"/><ellipse class="cls-32" cx="158.75" cy="317.8" rx="10.4" ry="5.42" transform="translate(-3.42 1.73) rotate(-0.62)"/><rect class="cls-32" x="148.29" y="326.5" width="21.14" height="3.78" transform="translate(-3.56 1.75) rotate(-0.62)"/><rect class="cls-32" x="150.51" y="330.93" width="17.45" height="0.66" transform="translate(-3.59 1.75) rotate(-0.62)"/><rect class="cls-32" x="152.56" y="334.05" width="12.58" height="1.48" transform="translate(-3.63 1.75) rotate(-0.62)"/><path class="cls-33" d="M178.09,309.43c-.31,3.15,0,33,2.82,34.71s13.61,2.43,12.4,4.61c-1.78,3.2-17.46,2.84-17.46,2.84l-3-92.74,16-.15s3.37,12.64,4.58,21.51h0a35.37,35.37,0,0,1,.42,5.7c-.26,7.46-.74,11.25-5.39,15.54a22.31,22.31,0,0,1-3.53,2.62c-.3.16-.58.33-.87.5C180.91,306.34,178.3,307.27,178.09,309.43Z"/><path class="cls-33" d="M175.55,258.85l1,92.73s-14.95.69-16.79-2.47c-1.26-2.15,9.53-3.12,12.3-4.88s2.43-31.62,2-34.76c-.18-1.5-1.52-2.38-3.39-3.36h0a32.29,32.29,0,0,1-7.11-4.38c-4.75-4.19-5.3-8-5.74-15.42a34.68,34.68,0,0,1,.3-5.7h0c1-8.91,4.09-21.61,4.09-21.61Z"/><path class="cls-34" d="M187.15,260.74S191,272.9,192,282.87a29.77,29.77,0,0,1-1.13,11c-2.61,7.69-11.43,9.86-11.43,9.86"/><path class="cls-35" d="M211,310.91l-17-3.41a4.52,4.52,0,0,0-.91,3.93c1.25,5.69,10.41,7.25,16,8.38Z"/><path class="cls-35" d="M210.88,310.89l17,3.42a4.5,4.5,0,0,1-.71,4c-3.38,4.76-12.43,2.67-18.07,1.53Z"/><path class="cls-35" d="M212.35,305.06l-17-3.41a4.51,4.51,0,0,1,.7-4c3.39-4.76,12.44-2.67,18.07-1.54Z"/><path class="cls-35" d="M212.22,305l17,3.41a4.52,4.52,0,0,0,.92-3.92c-1.25-5.69-10.41-7.26-16.05-8.39Z"/><path class="cls-36" d="M195.21,301.62l34,6.83a.68.68,0,0,1,.55.79l-.09.4a.67.67,0,0,1-.81.51l-34-6.83a.66.66,0,0,1-.54-.78l.08-.41A.68.68,0,0,1,195.21,301.62Z"/><path class="cls-37" d="M196.1,306.15l30.26,6.07a.93.93,0,0,0,1.1-.72l.13-.66a.92.92,0,0,0-.73-1.09l-30.25-6.08a1,1,0,0,0-1.11.73l-.13.66A.92.92,0,0,0,196.1,306.15Z"/><path class="cls-36" d="M194.22,305.76l34,6.83a.68.68,0,0,1,.54.79l-.08.4a.67.67,0,0,1-.81.51l-34-6.83a.67.67,0,0,1-.55-.78l.08-.41A.69.69,0,0,1,194.22,305.76Z"/><path class="cls-38" d="M215.67,287.17l-17-3.42a4.54,4.54,0,0,0-.92,3.93c1.25,5.69,10.41,7.26,16.05,8.39Z"/><path class="cls-38" d="M215.53,287.14l17,3.42a4.51,4.51,0,0,1-.7,4c-3.39,4.76-12.44,2.67-18.07,1.54Z"/><path class="cls-38" d="M217,281.32l-17-3.42a4.5,4.5,0,0,1,.71-4c3.38-4.76,12.43-2.67,18.07-1.54Z"/><path class="cls-38" d="M216.87,281.29l17,3.42a4.53,4.53,0,0,0,.91-3.93c-1.25-5.69-10.41-7.26-16-8.39Z"/><path class="cls-39" d="M199.86,277.88l34,6.83a.67.67,0,0,1,.55.78l-.08.41a.69.69,0,0,1-.81.51l-34-6.83a.68.68,0,0,1-.54-.79l.08-.4A.67.67,0,0,1,199.86,277.88Z"/><path class="cls-40" d="M200.75,282.4,231,288.48a.93.93,0,0,0,1.1-.73l.14-.65a.94.94,0,0,0-.73-1.1l-30.26-6.07a.93.93,0,0,0-1.1.72l-.14.66A.93.93,0,0,0,200.75,282.4Z"/><path class="cls-39" d="M198.88,282l34,6.83a.66.66,0,0,1,.54.78l-.08.41a.68.68,0,0,1-.81.51l-34-6.83a.68.68,0,0,1-.55-.79l.09-.4A.67.67,0,0,1,198.88,282Z"/><path class="cls-41" d="M206.36,334.66l-17-3.42a4.53,4.53,0,0,0-.91,3.93c1.25,5.69,10.4,7.26,16,8.39Z"/><path class="cls-41" d="M206.23,334.63l17,3.42a4.54,4.54,0,0,1-.71,4c-3.39,4.76-12.43,2.67-18.07,1.54Z"/><path class="cls-41" d="M207.69,328.81l-17-3.42a4.51,4.51,0,0,1,.7-4c3.39-4.76,12.44-2.67,18.07-1.54Z"/><path class="cls-41" d="M207.56,328.78l17,3.42a4.52,4.52,0,0,0,.91-3.93c-1.25-5.69-10.4-7.25-16-8.39Z"/><path class="cls-42" d="M190.56,325.37l34,6.83a.66.66,0,0,1,.54.78l-.08.41a.67.67,0,0,1-.81.51l-34-6.83a.67.67,0,0,1-.55-.78l.09-.41A.67.67,0,0,1,190.56,325.37Z"/><path class="cls-43" d="M191.45,329.9,221.7,336a.94.94,0,0,0,1.11-.72l.13-.66a.92.92,0,0,0-.73-1.09L192,327.42a.93.93,0,0,0-1.1.73l-.13.65A.93.93,0,0,0,191.45,329.9Z"/><path class="cls-42" d="M189.57,329.51l34,6.83a.67.67,0,0,1,.55.78l-.08.41a.68.68,0,0,1-.81.51l-34-6.83a.66.66,0,0,1-.54-.78l.08-.41A.67.67,0,0,1,189.57,329.51Z"/><path class="cls-44" d="M257,365H70.62s-9.57-1.13-12.06-9.45c-2.36-7.85,11.79-16.91,20.54-18.9.2,0,.4-.1.59-.13a63.37,63.37,0,0,1,7.19-.43c2.78-.09,6.23-.15,10.24-.2l8-.08c3.14,0,6.51,0,10,0l8,0h16.58l8,0,8,0,10,.06,8.07.05,10.43.05,8.14.07,8.7.07c2.77,0,5.46,0,8.06.06l8.47.08,8,.07c3.62,0,6.84.05,9.62.08l8,.08,2.74,0c5.12,0,23.25,7.65,24,17.54S257,365,257,365Z"/><path class="cls-45" d="M87.77,355.36c-6.24.22-8.47-17-8.67-18.71.2,0,.4-.1.59-.13a63.37,63.37,0,0,1,7.19-.43C89.21,343.29,92.34,355.2,87.77,355.36Z"/><path class="cls-45" d="M106,354.9c-6.55.23-8.69-18.84-8.69-18.84l-.16-.17,8-.08C107.47,343,110.51,354.74,106,354.9Z"/><path class="cls-45" d="M124,354.67c-6.55.23-8.7-18.84-8.7-18.84l-.05-.05,8,0C125.5,343,128.46,354.52,124,354.67Z"/><path class="cls-45" d="M140.47,354.45c-6.2.21-8.45-16.81-8.67-18.68h8C142.08,343,144.92,354.29,140.47,354.45Z"/><path class="cls-45" d="M156.45,354.45c-6.16.21-8.42-16.62-8.67-18.65l8,0C158.07,343.09,160.89,354.29,156.45,354.45Z"/><path class="cls-45" d="M174.65,354.9c-6.56.23-8.69-18.84-8.69-18.84l-.16-.17,8.07.05C176.17,343.16,179.16,354.75,174.65,354.9Z"/><path class="cls-45" d="M193.26,355.13c-6.56.23-8.69-18.84-8.69-18.84l-.27-.3,8.14.07C194.75,343.28,197.79,355,193.26,355.13Z"/><path class="cls-45" d="M209.77,354.45c-5.91.2-8.23-15.24-8.63-18.32,2.77,0,5.46,0,8.06.06C211.48,343.45,214.13,354.29,209.77,354.45Z"/><path class="cls-45" d="M226.38,355.13c-6.56.23-8.7-18.84-8.7-18.84v0l8,.07C228,343.58,230.85,355,226.38,355.13Z"/><path class="cls-45" d="M244,355.13c-6.25.23-8.48-17-8.68-18.71l8,.08C245.56,343.74,248.39,355,244,355.13Z"/><g id="France_Flag" data-name="France Flag"><path class="cls-46" d="M73.33,296v69H49.61A14.61,14.61,0,0,1,35,350.39V310.61A14.61,14.61,0,0,1,49.61,296Z"/><rect class="cls-47" x="73.33" y="296" width="38.33" height="69"/><path class="cls-48" d="M150,310.61v39.78A14.61,14.61,0,0,1,135.38,365H111.67V296h23.71A14.61,14.61,0,0,1,150,310.61Z"/></g></g></g></svg>