<svg xmlns="http://www.w3.org/2000/svg" xmlns:xlink="http://www.w3.org/1999/xlink" viewBox="0 0 400 400"><defs><style>.cls-1,.cls-10,.cls-11,.cls-13,.cls-17,.cls-18,.cls-20,.cls-21,.cls-26,.cls-27,.cls-38,.cls-43,.cls-53,.cls-54,.cls-55,.cls-56,.cls-57,.cls-58,.cls-59,.cls-62,.cls-8{fill:none;}.cls-2{clip-path:url(#clip-path);}.cls-3{fill:#afdafa;}.cls-4{fill:#5ba037;}.cls-5{fill:#d8634c;}.cls-6{fill:#d9d7d8;}.cls-7{fill:#de7866;}.cls-8{stroke:#de7866;}.cls-10,.cls-11,.cls-13,.cls-17,.cls-18,.cls-20,.cls-21,.cls-26,.cls-27,.cls-38,.cls-41,.cls-42,.cls-43,.cls-44,.cls-53,.cls-54,.cls-55,.cls-56,.cls-57,.cls-58,.cls-59,.cls-62,.cls-8{stroke-miterlimit:10;}.cls-9{fill:#40456d;}.cls-10{stroke:#40456d;}.cls-11{stroke:#806a80;}.cls-12{fill:#e3e1e6;}.cls-13{stroke:#ebebeb;}.cls-14{fill:#efeef0;}.cls-15{fill:#e0ebee;}.cls-16{fill:#748084;}.cls-17{stroke:#9ca2a5;}.cls-18{stroke:#748084;}.cls-19{fill:#868d95;}.cls-20{stroke:#7a8288;stroke-width:0.5px;}.cls-21{stroke:#829da7;}.cls-22{fill:#80898d;}.cls-23{fill:#e1c57a;}.cls-24{fill:#eed28b;}.cls-25{fill:#d4d4d4;}.cls-26{stroke:gray;}.cls-27{stroke:#333532;stroke-width:4px;}.cls-28{fill:#333532;}.cls-29{fill:#5fd9d6;}.cls-30{fill:#4ca19c;}.cls-31{fill:#493c1e;}.cls-32{fill:#006994;}.cls-33{fill:#70b302;}.cls-34{fill:#8a9c04;}.cls-35{fill:#8dc732;}.cls-36{fill:#8dc637;}.cls-37{fill:#699b0a;}.cls-38{stroke:#000;}.cls-39{fill:#cbad2e;}.cls-40{fill:#af0b2f;}.cls-41{fill:#1d42a9;stroke:#04134c;}.cls-42{fill:#c33379;stroke:#9d2564;}.cls-43{stroke:#f09f17;}.cls-44,.cls-45{fill:#ffed60;}.cls-44{stroke:#e7a92e;}.cls-46{fill:#1d41a2;}.cls-47{fill:#ffe550;}.cls-48{fill:#09235b;}.cls-49{fill:#cc0539;}.cls-50{fill:#eeca37;}.cls-51{fill:#18377a;}.cls-52{fill:#ebce25;}.cls-53,.cls-54,.cls-55,.cls-56,.cls-57,.cls-58,.cls-59{stroke:#021a63;stroke-linecap:round;stroke-width:2px;}.cls-54{stroke-dasharray:0 2.45;}.cls-55{stroke-dasharray:0 4.01;}.cls-56{stroke-dasharray:0 4.01;}.cls-57{stroke-dasharray:0 2.42;}.cls-58{stroke-dasharray:0 4;}.cls-59{stroke-dasharray:0 3.98;}.cls-60{fill:#591f0b;}.cls-61{fill:#a3a3a4;}.cls-62{stroke:#414243;}.cls-63{fill:#1f2324;}.cls-64{fill:#b2acb5;}.cls-65{fill:#dbdadc;}.cls-66{fill:#282c2d;}.cls-67{fill:#bcb9be;}.cls-68{fill:#0f0d11;}.cls-69{fill:#e78738;}.cls-70{fill:#e4ae51;}.cls-71{fill:#d29640;}.cls-72{fill:#e7a03a;}.cls-73{fill:#e54236;}.cls-74{fill:#0d0c0f;}.cls-75{fill:#101011;}.cls-76{fill:#141516;}.cls-77{fill:#953648;}.cls-78{fill:#b7c5dd;}.cls-79{fill:#634f45;}.cls-80{fill:#c65726;}.cls-81{fill:#dd6631;}.cls-82{fill:#775f51;}.cls-83{fill:#d85e21;}.cls-84{fill:#927563;}.cls-85{fill:#7c6457;}.cls-86{fill:#f47637;}.cls-87{fill:#010203;}.cls-88{fill:#7f6659;}.cls-89{fill:#f7f7f7;}.cls-90{fill:#c90a2b;}.cls-91{fill:#001b69;}</style><clipPath id="clip-path"><path class="cls-1" d="M350,200a149.25,149.25,0,0,1-22,78.25c-2.09,3.4-4.3,6.72-6.65,9.93-.53.73-1.07,1.46-1.61,2.18l-1.64,2.14c-1,1.27-2,2.52-3.05,3.75l-1.43,1.69-1,1.16c-.82.94-1.66,1.86-2.5,2.78s-1.85,2-2.8,2.93l-1.45,1.47c-.74.74-1.49,1.48-2.25,2.2l-.09.08c-.82.78-1.65,1.56-2.49,2.32q-2.41,2.21-4.92,4.3a149.86,149.86,0,0,1-192.2,0l-.87-.74q-2.15-1.81-4.22-3.71l-2.32-2.17c-.57-.54-1.14-1.09-1.7-1.65s-1.4-1.39-2.09-2.1c-1-1-1.88-1.94-2.8-2.93s-1.68-1.84-2.5-2.78l-1-1.16L85,296.25c-1-1.23-2-2.48-3-3.75l-1.64-2.14c-.54-.72-1.08-1.45-1.61-2.18-2.35-3.21-4.56-6.53-6.65-9.93A149.25,149.25,0,0,1,50,200a151,151,0,0,1,2.53-27.58,148,148,0,0,1,6.63-24.13A150,150,0,0,1,350,200Z"/></clipPath></defs><g id="Layer_1" data-name="Layer 1"><g id="Malaysia"><g class="cls-2"><rect class="cls-3" x="31.59" y="39.96" width="330.63" height="272.88"/><rect class="cls-4" x="72.52" y="299.91" width="247.2" height="62.53"/><path class="cls-5" d="M278.46,201.22s2.36,2.88,2.63,4.41.37,4.24.37,4.24h9.71a38.43,38.43,0,0,1,.18-4.66c.48-1.44,2.94-4,2.94-4Z"/><rect class="cls-5" x="284.88" y="170.23" width="2.19" height="5.67"/><rect class="cls-6" x="284.88" y="163.51" width="2.19" height="6.72"/><rect class="cls-5" x="284.88" y="158.01" width="2.19" height="5.5"/><rect class="cls-6" x="284.88" y="151.67" width="2.19" height="6.33"/><rect class="cls-7" x="284.88" y="145.96" width="2.19" height="5.72"/><rect class="cls-6" x="284.88" y="139.77" width="2.19" height="6.18"/><line class="cls-8" x1="285.97" y1="133.72" x2="285.97" y2="139.77"/><polygon class="cls-9" points="280.67 175.9 291.24 175.9 291.24 177.14 289.04 177.14 289.04 184.34 283.19 184.34 283.19 177.34 280.67 177.34 280.67 175.9"/><rect class="cls-6" x="280.67" y="176.71" width="10.57" height="1.34"/><rect class="cls-6" x="280.68" y="179.17" width="10.57" height="1.34"/><rect class="cls-6" x="280.67" y="181.33" width="10.51" height="1.39"/><polygon class="cls-6" points="282.55 182.72 289.81 182.72 290.35 184.42 281.99 184.42 282.55 182.72"/><rect class="cls-6" x="276.75" y="184.42" width="20.14" height="2.85"/><line class="cls-10" x1="276.75" y1="185.85" x2="296.89" y2="185.85"/><line class="cls-11" x1="275.98" y1="184.34" x2="297.66" y2="184.34"/><polygon class="cls-9" points="273.23 187.27 299.1 187.27 294.29 201.22 278.46 201.22 273.23 187.27"/><polygon class="cls-6" points="299.1 187.27 298.52 188.97 273.87 188.97 273.23 187.27 299.1 187.27"/><polygon class="cls-6" points="274.72 191.23 297.77 191.22 296.89 193.69 275.64 193.69 274.72 191.23"/><polygon class="cls-6" points="276.36 195.6 296.23 195.6 295.41 197.99 277.25 197.99 276.36 195.6"/><polygon class="cls-6" points="277.9 199.72 294.81 199.72 294.29 201.22 278.46 201.22 277.9 199.72"/><line class="cls-11" x1="273.23" y1="187.27" x2="299.1" y2="187.27"/><line class="cls-11" x1="277.72" y1="201.22" x2="294.62" y2="201.22"/><polygon class="cls-12" points="281.42 210.74 277.9 310.81 294.81 310.81 291.16 210.74 281.42 210.74"/><line class="cls-13" x1="284.09" y1="209.79" x2="281.99" y2="310.81"/><line class="cls-13" x1="288.5" y1="209.79" x2="290.6" y2="310.81"/><line class="cls-13" x1="286.29" y1="210.26" x2="286.29" y2="310.81"/><rect class="cls-14" x="281.19" y="209.79" width="10.37" height="1.83"/><ellipse class="cls-15" cx="171.3" cy="122.11" rx="16.75" ry="9.22"/><ellipse class="cls-15" cx="180.1" cy="106.17" rx="15.29" ry="16.46"/><ellipse class="cls-15" cx="198.63" cy="117.51" rx="18.53" ry="9.17"/><rect class="cls-16" x="219.87" y="148.4" width="31.3" height="31.67"/><rect class="cls-16" x="216.11" y="180.06" width="37.9" height="131.98"/><line class="cls-17" x1="222.47" y1="311.83" x2="222.47" y2="148.18"/><rect class="cls-16" x="222.47" y="128.31" width="26.29" height="20.08"/><rect class="cls-16" x="225.28" y="113.83" width="20.52" height="14.48"/><rect class="cls-16" x="228.02" y="104.61" width="15.49" height="9.22"/><rect class="cls-16" x="229.97" y="99.43" width="11.51" height="5.18"/><rect class="cls-16" x="231.9" y="96.25" width="7.42" height="3.18"/><polygon class="cls-16" points="233.3 96.25 234.27 90.98 236.64 90.98 237.93 96.25 233.3 96.25"/><circle class="cls-16" cx="235.64" cy="86.79" r="1.55"/><line class="cls-18" x1="235.72" y1="90.98" x2="235.72" y2="64.47"/><line class="cls-17" x1="248.76" y1="311.83" x2="248.76" y2="148.18"/><line class="cls-17" x1="228.02" y1="311.83" x2="228.02" y2="128.31"/><line class="cls-17" x1="243.51" y1="311.83" x2="243.51" y2="128.31"/><line class="cls-17" x1="232.61" y1="311.83" x2="232.61" y2="100.21"/><line class="cls-17" x1="237.93" y1="311.83" x2="237.93" y2="100.99"/><rect class="cls-19" x="216.11" y="180.06" width="37.9" height="3.04"/><rect class="cls-19" x="219.87" y="148.4" width="31.3" height="3.04"/><rect class="cls-19" x="222.45" y="128.31" width="26.31" height="3.04"/><rect class="cls-19" x="225.28" y="113.83" width="20.52" height="2.34"/><rect class="cls-19" x="229.97" y="99.43" width="11.51" height="1.55"/><line class="cls-20" x1="201.29" y1="229.91" x2="186.86" y2="259.91"/><line class="cls-20" x1="201.29" y1="229.91" x2="215.72" y2="259.91"/><rect class="cls-16" x="152.59" y="148.28" width="31.3" height="31.67"/><rect class="cls-16" x="148.82" y="179.95" width="37.9" height="131.98"/><line class="cls-17" x1="155.18" y1="311.71" x2="155.18" y2="148.06"/><rect class="cls-16" x="155.18" y="128.19" width="26.29" height="20.08"/><rect class="cls-16" x="158" y="113.71" width="20.52" height="14.48"/><rect class="cls-16" x="160.74" y="104.49" width="15.49" height="9.22"/><rect class="cls-16" x="162.68" y="99.32" width="11.51" height="5.18"/><rect class="cls-16" x="164.62" y="96.13" width="7.42" height="3.18"/><polygon class="cls-16" points="166.02 96.13 166.99 90.86 169.35 90.86 170.64 96.13 166.02 96.13"/><circle class="cls-16" cx="168.36" cy="86.67" r="1.55"/><line class="cls-18" x1="168.44" y1="90.86" x2="168.44" y2="64.35"/><line class="cls-17" x1="181.47" y1="311.71" x2="181.47" y2="148.06"/><line class="cls-17" x1="160.74" y1="311.71" x2="160.74" y2="128.19"/><line class="cls-17" x1="176.22" y1="311.71" x2="176.22" y2="128.19"/><line class="cls-17" x1="165.33" y1="311.71" x2="165.33" y2="100.09"/><line class="cls-17" x1="170.64" y1="311.71" x2="170.64" y2="100.87"/><rect class="cls-19" x="148.82" y="179.95" width="37.9" height="3.04"/><rect class="cls-19" x="152.59" y="148.28" width="31.3" height="3.04"/><rect class="cls-19" x="155.16" y="128.19" width="26.31" height="3.04"/><rect class="cls-19" x="158" y="113.71" width="20.52" height="2.34"/><rect class="cls-19" x="162.68" y="99.32" width="11.51" height="1.55"/><rect class="cls-16" x="184.4" y="223.78" width="33.78" height="6.1"/><line class="cls-21" x1="185.85" y1="225.9" x2="199.2" y2="225.9"/><line class="cls-21" x1="185.85" y1="228.4" x2="199.2" y2="228.4"/><line class="cls-21" x1="185.85" y1="228.4" x2="199.2" y2="228.4"/><line class="cls-21" x1="185.85" y1="228.4" x2="199.2" y2="228.4"/><line class="cls-21" x1="202.88" y1="225.9" x2="216.22" y2="225.9"/><line class="cls-21" x1="202.88" y1="228.4" x2="216.22" y2="228.4"/><rect class="cls-22" x="200.59" y="228.89" width="1.41" height="2.03"/><rect class="cls-22" x="214.81" y="259.5" width="1.83" height="2.64"/><rect class="cls-22" x="185.95" y="259.5" width="1.83" height="2.64"/><ellipse class="cls-15" cx="289.48" cy="146.66" rx="13.26" ry="15.15"/><ellipse class="cls-15" cx="275.15" cy="143.35" rx="18.17" ry="11.84"/><ellipse class="cls-15" cx="303.83" cy="146.17" rx="13.2" ry="9.02"/><rect class="cls-23" x="64.02" y="275.52" width="76.01" height="36.93"/><rect class="cls-23" x="262.85" y="275.52" width="66.54" height="36.93"/><rect class="cls-24" x="139.73" y="275.52" width="123.12" height="36.93"/><path class="cls-25" d="M162.53,275.52s13.59-13.89,38.34-13.89,39.18,13.89,39.18,13.89Z"/><path class="cls-18" d="M200.87,261.63a39.28,39.28,0,0,0-22.61,13.89"/><path class="cls-18" d="M200.87,261.63a39.28,39.28,0,0,1,22.61,13.89"/><path class="cls-26" d="M181.89,264.56c2.24.22,12.19,2.22,19.56,2.22,7.05,0,18.06-1.4,19.59-1.89"/><path class="cls-26" d="M172,268.78c2.24.22,15.73,3.48,29.24,3.48a145.72,145.72,0,0,0,28.85-3.48"/><line class="cls-26" x1="200.87" y1="261.63" x2="200.87" y2="275.52"/><line class="cls-27" x1="178.26" y1="275.52" x2="178.26" y2="312.45"/><line class="cls-27" x1="223.48" y1="275.52" x2="223.48" y2="312.45"/><rect class="cls-28" x="147.89" y="307.78" width="106.11" height="4.67"/><line class="cls-27" x1="147.46" y1="275.52" x2="147.46" y2="312.45"/><line class="cls-27" x1="254.89" y1="275.52" x2="254.89" y2="312.45"/><rect class="cls-29" x="149.95" y="276.61" width="25.82" height="30.07"/><rect class="cls-29" x="226.27" y="276.61" width="25.82" height="30.07"/><rect class="cls-29" x="180.58" y="276.61" width="40.46" height="30.07"/><rect class="cls-30" x="149.95" y="290.62" width="25.82" height="3.94"/><rect class="cls-30" x="180.58" y="290.62" width="40.46" height="3.94"/><rect class="cls-30" x="226.27" y="290.62" width="25.82" height="3.94"/><rect class="cls-30" x="149.95" y="299.2" width="25.82" height="3.94"/><rect class="cls-30" x="180.58" y="299.2" width="40.46" height="3.94"/><rect class="cls-30" x="226.27" y="298.68" width="25.82" height="3.94"/><rect class="cls-30" x="149.95" y="279.33" width="25.82" height="3.94"/><rect class="cls-30" x="226.27" y="279.47" width="25.82" height="3.94"/><rect class="cls-30" x="180.58" y="279.5" width="40.46" height="3.94"/><path class="cls-31" d="M137.09,289.77v3.76H78.24v-3.76Z"/><path class="cls-31" d="M326.16,289.77v3.76H265v-3.76Z"/><polyline class="cls-31" points="78.24 302.08 137.09 302.08 137.09 305.83 78.24 305.83 78.24 302.08"/><polygon class="cls-31" points="326.16 302.08 265.03 302.08 265.03 305.83 320.81 305.83 326.16 305.75 326.16 302.08"/><polyline class="cls-24" points="78.24 295.21 137.09 295.21 137.09 299.15 78.24 299.15 78.24 295.21"/><path class="cls-23" d="M303.6,288.1v17.73h-.09c-.82.78-1.65,1.56-2.49,2.32v-20Z"/><rect class="cls-23" x="288.17" y="288.1" width="3.56" height="21.35"/><rect class="cls-23" x="273.62" y="287.72" width="4.02" height="21.95"/><polyline class="cls-24" points="326.16 295.21 265.03 295.21 265.03 299.15 326.16 299.15 326.16 295.21"/><rect class="cls-23" x="122.18" y="287.64" width="2.59" height="22.48"/><rect class="cls-23" x="109.33" y="287.64" width="3.56" height="21.35"/><path class="cls-23" d="M98.81,287.9V308c-1-.05-1.63.8-2.39.06-.58-.53-1.07.5-1.63-.06V287.9Z"/><path class="cls-28" d="M329.39,285.46v2.17H73.49v-2.17Z"/><rect class="cls-25" x="146.95" y="285.46" width="107.43" height="2.18"/><path class="cls-32" d="M124.77,348.9s2.34-21.71,19.54-22.14,15.46,7.09,33.95,8.59,16.35-2.58,31.29-6.45,27.15-3.43,39.21-.42S284.89,339,284.89,339l1.49,15.26L120,355.77Z"/><ellipse class="cls-15" cx="64.35" cy="155.05" rx="17.41" ry="11.25"/><ellipse class="cls-15" cx="76.71" cy="142.02" rx="15.58" ry="19.08"/><ellipse class="cls-15" cx="87.45" cy="151" rx="20.96" ry="11.93"/></g></g></g><g id="Layer_2" data-name="Layer 2"><g id="NEW_MY" data-name="NEW MY"><path class="cls-33" d="M157.3,274.35a20.15,20.15,0,0,1-3.66,4.53,21.35,21.35,0,0,1-9.17,5l1.21-1.93-2.74.31a26.94,26.94,0,0,0,6.68-3.56,26.5,26.5,0,0,0,5.52-5.4Z"/><path class="cls-33" d="M151,273.42a24.11,24.11,0,0,0,6.17,2.65,24.37,24.37,0,0,0,11.9.14l-2.29-1.31,2.91-1.15a31,31,0,0,1-17.14-2.58Z"/><polygon class="cls-34" points="141.97 203.87 138.17 204.67 146.95 244.52 150.75 243.71 141.97 203.87"/><path class="cls-35" d="M168.25,258.24l-2.58,3.92-7.4-4.68,4.77-7.24,4,2.52A3.93,3.93,0,0,1,168.25,258.24Z"/><path class="cls-35" d="M155.64,245.57l-4.77,7.24-7.39-4.67,2.58-3.92a4.09,4.09,0,0,1,5.58-1.18Z"/><polygon class="cls-33" points="150.87 252.81 146.1 260.06 138.71 255.38 143.48 248.14 150.87 252.81"/><polygon class="cls-33" points="165.67 262.16 160.9 269.4 153.5 264.73 158.27 257.48 165.67 262.16"/><path class="cls-35" d="M160.9,269.4l-2.58,3.92a4.09,4.09,0,0,1-5.59,1.18l-4-2.52,4.77-7.25Z"/><polygon class="cls-33" points="153.5 264.73 148.73 271.98 141.34 267.3 146.1 260.06 153.5 264.73"/><path class="cls-35" d="M146.1,260.06l-4.77,7.24-4-2.52a3.91,3.91,0,0,1-1.2-5.47l2.58-3.92Z"/><polygon class="cls-33" points="163.04 250.24 158.27 257.48 150.87 252.81 155.64 245.56 163.04 250.24"/><polygon class="cls-36" points="158.27 257.48 153.5 264.73 146.1 260.06 150.87 252.81 158.27 257.48"/><path class="cls-37" d="M155.62,264.34l-3.49,3.17-6-6.32,6.45-5.86,3.24,3.42A3.91,3.91,0,0,1,155.62,264.34Z"/><path class="cls-37" d="M146.62,249l-6.46,5.86-6-6.32,3.49-3.18a4.11,4.11,0,0,1,5.71.22Z"/><polygon class="cls-37" points="152.13 267.51 145.67 273.38 139.69 267.05 146.15 261.19 152.13 267.51"/><path class="cls-37" d="M145.67,273.38l-3.49,3.17a4.1,4.1,0,0,1-5.71-.22l-3.23-3.42,6.45-5.86Z"/><polygon class="cls-37" points="152.6 255.33 146.15 261.19 140.16 254.87 146.62 249.01 152.6 255.33"/><path class="cls-33" d="M138.6,277.3a20.58,20.58,0,0,1-4.69,3.5,21.64,21.64,0,0,1-10.15,2.58l1.67-1.58-2.73-.36a27.66,27.66,0,0,0,7.37-1.83,27.26,27.26,0,0,0,6.71-3.88Z"/><path class="cls-33" d="M132.72,274.87a23.66,23.66,0,0,0,5.3,4.06,24.22,24.22,0,0,0,11.5,3l-1.89-1.83,3.11-.4a31,31,0,0,1-8.36-2.15,30.57,30.57,0,0,1-7.59-4.52Z"/><polygon class="cls-34" points="141.58 205.29 137.69 205.15 136.12 245.88 140.01 246.03 141.58 205.29"/><path class="cls-35" d="M153.28,264.35l-3.49,3.17-6-6.32,6.46-5.87,3.23,3.42A3.91,3.91,0,0,1,153.28,264.35Z"/><path class="cls-35" d="M144.27,249l-6.45,5.86-6-6.32,3.49-3.17a4.11,4.11,0,0,1,5.71.21Z"/><polygon class="cls-33" points="137.82 254.87 131.37 260.73 125.38 254.41 131.84 248.55 137.82 254.87"/><polygon class="cls-33" points="149.79 267.52 143.33 273.38 137.35 267.06 143.8 261.2 149.79 267.52"/><path class="cls-35" d="M143.33,273.38l-3.49,3.17a4.1,4.1,0,0,1-5.71-.21l-3.23-3.42,6.45-5.86Z"/><polygon class="cls-33" points="137.35 267.06 130.9 272.92 124.91 266.6 131.37 260.73 137.35 267.06"/><path class="cls-35" d="M131.37,260.73l-6.46,5.87-3.23-3.42a3.9,3.9,0,0,1,.21-5.6l3.49-3.17Z"/><polygon class="cls-33" points="150.26 255.33 143.8 261.2 137.82 254.87 144.27 249.01 150.26 255.33"/><polygon class="cls-36" points="143.8 261.2 137.35 267.06 131.37 260.73 137.82 254.87 143.8 261.2"/><line class="cls-38" x1="103.33" y1="181.24" x2="49.88" y2="304.06"/><line class="cls-38" x1="149.89" y1="201.86" x2="49.88" y2="304.06"/><line class="cls-38" x1="59.33" y1="155.74" x2="49.88" y2="304.06"/><polygon class="cls-39" points="149.89 201.87 144.05 231.34 145.98 231.69 150.23 201.93 149.89 201.87"/><polygon class="cls-40" points="149.68 201.75 140.24 232.09 142.91 232.85 150.15 201.88 149.68 201.75"/><path class="cls-41" d="M91.68,197.47a3.13,3.13,0,0,0-.43,0c-.9.13-3,.58-3.76,2.11a9,9,0,0,0-.65,1.53,4.94,4.94,0,0,0-.3,1.72s-6.77,2.24-11.22,1-8.47-4.7-10.69-6.63-4.18-5.41-6.31-9.18-3.17-13.75-3.17-13.75a20.58,20.58,0,0,0-1.92,6.84c-.64,4.6-1.34,11.34,2,18.68s8.84,10.59,11.36,12.8,15.24,9.53,15.24,9.53l40.46-76.83-3.52,1s-8.06,14.1-8.54,14.83-.43.66-5.79-1.91-18.25-7-25.48-7.61-19.58,4.08-19.58,4.08.66,4.1,4.37,12.71C67.83,178.06,81.41,187,81.41,187s2.36,1.52,3.7,2.34S89.18,191.43,91,193,91.68,197.47,91.68,197.47Z"/><path class="cls-41" d="M96.57,200a3.33,3.33,0,0,1,.21.37c.41.79,1.23,2.71.42,4.24a9.65,9.65,0,0,1-.9,1.41,5.05,5.05,0,0,1-1.25,1.23s2,6.74,5.64,9.61,8.77,4.1,11.66,4.78,6.9.25,11.25-.21S136.84,216,136.84,216a20.79,20.79,0,0,1-4.57,5.48c-3.46,3.17-8.64,7.62-16.63,9.19s-13.88-1-17.16-1.77-16.7-6.79-16.7-6.79l40.46-76.83,1.18,3.43s-7.06,14.61-7.39,15.42-.3.73,4.91,3.56,16.35,10.64,21,16.13S149.83,202,149.83,202s-3.77,1.83-13.06,3.81c-10.36,2.2-25.61-3.58-25.61-3.58s-2.62-1-4.07-1.63S103,198.5,100.66,198,96.57,200,96.57,200Z"/><path class="cls-42" d="M106.57,176.11l-.28,1.66,1.71-.13a.41.41,0,0,1,.31.71l-1.3,1.09,1.4,1a.41.41,0,0,1-.23.74h-1.72l.44,1.62a.41.41,0,0,1-.66.42l-1.33-1.08-.72,1.52a.41.41,0,0,1-.78-.1l-.32-1.66-1.56.7A.41.41,0,0,1,101,182l.84-1.46-1.66-.45a.4.4,0,0,1,0-.77l1.6-.58-1-1.39a.41.41,0,0,1,.48-.61l1.62.57.15-1.67a.41.41,0,0,1,.76-.17l.88,1.45,1.22-1.18A.41.41,0,0,1,106.57,176.11Z"/><line class="cls-43" x1="129.52" y1="131.49" x2="122.24" y2="145.32"/><line class="cls-43" x1="141.32" y1="177.12" x2="86.39" y2="149.05"/><path class="cls-44" d="M115.12,184.48s-1.65-1.47-.42-2.57,3.34-1.45,4.44-2.46,3.1-3.3,4.37-2.34-.39,2.88-.39,2.88,3.34-1.45,4.81-1.17.74,2.43.74,2.43,2.84.26,3.88,1.19-.1,2.94-.1,2.94,4,.33,4.14,1.33-1.72,1.73-1.72,1.73,2.44,0,2.87,1.14-1.52,1.35-1.52,1.35,5.69,2.2,4.62,3.94-2.29,1.59-2.29,1.59Z"/><path class="cls-44" d="M115.12,184.48s-2.17-.47-2.38,1.15.72,3.52.51,5-.94,4.4.58,4.87,2.17-2,2.17-2,.72,3.52,1.8,4.55,2.43-.81,2.43-.81,1.86,2.13,3.23,2.44,2.39-1.77,2.39-1.77,2.58,3,3.48,2.56.45-2.38.45-2.38,1.38,2,2.6,1.65.25-2,.25-2,5.1,3.32,5.92,1.45,0-2.75,0-2.75Z"/><path class="cls-44" d="M93.85,173.62s2.16.47,2.37-1.15-.72-3.52-.51-5,1-4.4-.58-4.87-2.17,2-2.17,2-.72-3.52-1.8-4.54-2.43.8-2.43.8-1.86-2.13-3.23-2.44-2.39,1.78-2.39,1.78-2.58-3.06-3.48-2.57-.45,2.38-.45,2.38-1.38-2-2.6-1.65-.24,2-.24,2-5.11-3.32-5.93-1.45,0,2.75,0,2.75Z"/><path class="cls-44" d="M93.85,173.62s1.64,1.47.41,2.57-3.34,1.45-4.44,2.46-3.1,3.3-4.37,2.34.39-2.88.39-2.88-3.34,1.45-4.81,1.17-.74-2.42-.74-2.42-2.84-.27-3.88-1.2.1-2.94.1-2.94-4-.33-4.14-1.33,1.72-1.73,1.72-1.73-2.43,0-2.87-1.14,1.52-1.35,1.52-1.35-5.69-2.2-4.62-3.94,2.29-1.59,2.29-1.59Z"/><ellipse class="cls-45" cx="104.18" cy="179.63" rx="1.82" ry="1.86" transform="translate(-89.44 254.66) rotate(-81.07)"/><ellipse class="cls-44" cx="91.84" cy="202.85" rx="5.56" ry="5.68" transform="translate(-122.81 262.1) rotate(-81.07)"/><polygon class="cls-46" points="149.61 201.89 147.91 229.2 151.27 229.33 150.2 201.91 149.61 201.89"/><polygon class="cls-47" points="149.72 201.68 137.04 226 140.08 227.43 150.25 201.94 149.72 201.68"/><polygon class="cls-48" points="59.17 155.6 35.48 174.53 36.74 176 59.4 155.86 59.17 155.6"/><polygon class="cls-40" points="59.08 155.38 32.04 172.72 33.62 174.97 59.36 155.78 59.08 155.38"/><polygon class="cls-47" points="58.94 155.44 39.85 175.3 42.37 177.5 59.38 155.82 58.94 155.44"/><polygon class="cls-49" points="59.15 155.35 33.53 166.05 34.95 169.05 59.41 155.88 59.15 155.35"/><polygon class="cls-39" points="121.84 145.54 115.46 162.3 116.56 162.69 122.03 145.61 121.84 145.54"/><polygon class="cls-40" points="121.72 145.45 113.14 162.37 114.64 163.07 121.99 145.58 121.72 145.45"/><polygon class="cls-47" points="121.75 145.42 111.86 158.49 113.51 159.62 122.04 145.62 121.75 145.42"/><polygon class="cls-50" points="121.86 145.42 109.52 156.31 110.91 157.73 122.1 145.67 121.86 145.42"/><polygon class="cls-51" points="121.84 145.54 118.63 166.32 120.62 166.58 122.19 145.59 121.84 145.54"/><polygon class="cls-49" points="121.83 145.22 118.1 161.1 120.07 161.5 122.18 145.29 121.83 145.22"/><path class="cls-52" d="M90.22,210.12l2.92.06a3.92,3.92,0,0,0,1.94-.23s.39,5.61,4,8.07,12,6,16.14,5.58c7.94-.79,13.49-1.54,13.49-1.54s-6.13,5.47-10.12,6.53c-6.55,1.74-14.06.67-19.63-.89s-13.73-5.14-14.09-6.24S90.22,210.12,90.22,210.12Z"/><line class="cls-53" x1="90.22" y1="210.12" x2="90.22" y2="210.12"/><path class="cls-54" d="M92.66,210.17h1.23"/><line class="cls-53" x1="95.08" y1="209.95" x2="95.08" y2="209.95"/><path class="cls-55" d="M96,213.84A8.8,8.8,0,0,0,99.09,218c3.61,2.46,12,6,16.14,5.58,5.1-.51,9.21-1,11.5-1.28"/><line class="cls-53" x1="128.72" y1="222.06" x2="128.72" y2="222.06"/><path class="cls-56" d="M125.61,224.59c-2.1,1.58-4.86,3.43-7,4-6.55,1.74-14.06.67-19.63-.89s-13.73-5.14-14.09-6.24c-.26-.82,2.77-6.61,4.38-9.58"/><path class="cls-52" d="M86.91,208.43s-.84-1.14-1.73-2.31a4,4,0,0,1-.93-1.7s-4.88,2.91-9,1.42-11.92-6.26-13.93-9.78c-3.92-6.85-6.49-11.75-6.49-11.75s-1,8.08.41,11.9c2.33,6.29,7.54,11.71,12,15.3s12.18,8.09,13.3,7.75S86.91,208.43,86.91,208.43Z"/><line class="cls-53" x1="86.91" y1="208.43" x2="86.91" y2="208.43"/><path class="cls-57" d="M85.47,206.49l-.29-.37c-.17-.23-.31-.43-.43-.61"/><line class="cls-53" x1="84.25" y1="204.42" x2="84.25" y2="204.42"/><path class="cls-58" d="M80.55,205.9a9.13,9.13,0,0,1-5.3-.06c-4.13-1.5-11.92-6.26-13.93-9.78-2.51-4.39-4.47-8-5.55-10"/><line class="cls-53" x1="54.83" y1="184.31" x2="54.83" y2="184.31"/><path class="cls-59" d="M54.52,188.28c-.11,2.6,0,5.88.72,7.93,2.33,6.29,7.54,11.71,12,15.3s12.18,8.09,13.3,7.75c.83-.26,3.89-6,5.43-9"/><rect class="cls-60" x="127.32" y="362.35" width="134.11" height="2.64"/><path class="cls-61" d="M244.78,355.08s1,4.73-1.4,5.58-2.13.18-2.13.18L240,356.62Z"/><path class="cls-62" d="M243.88,359.57s.91-1.55,1.56-1.23.68,3.47,0,3.29"/><path class="cls-62" d="M245.94,358.58s1-.47,1.3-.37.54,1.13.16,2.23a1.69,1.69,0,0,1-1.46,1.3"/><path class="cls-62" d="M246.69,359.12s.5-.82,1.18-.43,1,1.23.54,2.4-1.2,1.71-1.41,1.28"/><path class="cls-63" d="M233.71,366.54v21.17l-.86-1.35-.37-5.2-1.17-.29-.74-2.68-.64-.34c.38-4.12,1.1-8.91,1.1-8.91Z"/><path class="cls-64" d="M233.71,387.71v5.21s-.44,1.83-1.22,2.16a4.64,4.64,0,0,1-2.79-.4c-.58-.23,0-8.88,0-12.87,0-1.06.09-2.47.23-4l.64.34.74,2.68,1.17.29.37,5.2Z"/><path class="cls-65" d="M236.83,376.28l-1.91-.35h-2.28c0-5.05,0-9.17,0-9.17l3.84-.57Z"/><path class="cls-66" d="M237.16,385.45h-2.75l-1.66.89c-.07-3.26-.1-7-.11-10.41h2.28l1.91.35.15,5.12S237.1,383.32,237.16,385.45Z"/><path class="cls-65" d="M237,390.68a6.55,6.55,0,0,1-3.55,3.59c-.37.1-.57-3.4-.68-7.93l1.66-.89h2.75A27.19,27.19,0,0,1,237,390.68Z"/><path class="cls-67" d="M247,355.08s1,4.73-1.41,5.58-2.13.18-2.13.18l-1.24-4.22Z"/><path class="cls-68" d="M255.17,326.09a36.43,36.43,0,0,1-2.95,2.88c-2.86,2.16-7.05,4.11-10.21,1.84-1.95-1.39-.88-5.22,1.16-7.33l2.05-2.12,5.84-2Z"/><path class="cls-69" d="M254.7,323c-1.71.71-3.39,1.45-4.65,2a1.27,1.27,0,0,1-.39-.81,5.47,5.47,0,0,1,.73-3.43,15.81,15.81,0,0,1,2.32-1c-.4.9-.66,1.73-.4,2A4.27,4.27,0,0,0,254.7,323Z"/><path class="cls-70" d="M271.32,321.56s-7.24-1.66-11.35-.51A55.3,55.3,0,0,0,254.7,323h0a4.27,4.27,0,0,1-2.39-1.15c-.26-.31,0-1.14.4-2a24.72,24.72,0,0,1,5.48-1.19,20.55,20.55,0,0,1,9.37,1C269.2,320.14,271.61,321.32,271.32,321.56Z"/><path class="cls-71" d="M271.32,321.56c-.3.24-2.58-.28-8.05,1.27a32.09,32.09,0,0,0-8.1,3.26s-3.84.15-5.12-1.11a88.89,88.89,0,0,1,9.92-3.93C264.08,319.9,271.32,321.56,271.32,321.56Z"/><path class="cls-72" d="M259.87,315.2a8.74,8.74,0,0,1-2.91,3.54l-6.14,1.86a20.29,20.29,0,0,0,4.93-4.77c1.13-1.88,3.38-4.25,3.51-6.08,0-.53.05-1,.05-1.36a6,6,0,0,1,.77.9C261,310.7,260.54,313.22,259.87,315.2Z"/><path class="cls-73" d="M259.31,308.39c0,.38,0,.83-.05,1.36-.13,1.83-.42,3.12-3,6.32a21.51,21.51,0,0,1-5.48,4.53l-.43.14s-4.45.86-5.17.62-.51-1.24-.45-1.84a.92.92,0,0,1,.54-.78s3.5-1.59,4.49-2.08,3.52-2,5.49-3.15a5.29,5.29,0,0,0,2.5-2.9c.23-.43-.1-1.39-.47-2s-1.07-1-.57-1.43S258.34,307.46,259.31,308.39Z"/><path class="cls-68" d="M254.06,336.47l-7.06.07a2.46,2.46,0,0,0-1.27-2.79,19.64,19.64,0,0,1-4.29-3.53l10.05-.72a24,24,0,0,0,1.43,3.31l1.14,3.66"/><path class="cls-74" d="M254.06,336.47a9.8,9.8,0,0,1,.54,6.31c-.85,3.65-3.33,9.41-6.47,11.84s-7.38,4.74-9.8,4.48-8.83-.44-8.17-4.67.33-8.9,3.27-12,3.66-4.1,7-5.25S254.06,336.47,254.06,336.47Z"/><path class="cls-75" d="M240,336.1s4.24-2.4,5.45-1.75a3.78,3.78,0,0,1,1.59,2.19l-18.3,30a23,23,0,0,1,.31-11.8c1.87-6.69,1.63-8.74,4.42-12.58A24.49,24.49,0,0,1,240,336.1Z"/><path class="cls-76" d="M237.85,343.89s3.93-4.56,6.23-5.8a12,12,0,0,1,6.65-1.69c2.6.05,3.64,0,3.88,1.71s-1.34,8.15-4.18,10.94-7.44,8.18-8.71,10.61-3.87,6.46-5.51,7.4-3.81,2.32-5.08,2.37-3.51.6-2.72-1.65,4.05-15.89,5.81-18.91A28.61,28.61,0,0,1,237.85,343.89Z"/><ellipse class="cls-77" cx="247.74" cy="323.99" rx="1.34" ry="1.31"/><circle class="cls-78" cx="247.75" cy="323.96" r="1.05"/><ellipse class="cls-68" cx="247.79" cy="324.01" rx="0.74" ry="0.73"/><path class="cls-79" d="M151.38,356.18l-4.79,2.88s-1.64,1.23-1.07,2.2,4.08-.76,4.08-.76l-2.32,6.7s-.42,1.2.2,1.4,4.06-6.23,4.06-6.23l-1.84,8s-.18,1.17.54,1.3,3.83-8.42,3.83-8.42L152.43,371s-.27.8.51,1,3.7-8.25,3.7-8.25l-.54,6.18s.2,1,.72,1,3.09-11.12,3.09-11.12Z"/><path class="cls-80" d="M165.46,348s2.35,6,.44,4.44a5.13,5.13,0,0,1-2.06-3.06s1.76,5.75.46,5.67-1.91-2-1.91-2,1.6,6.05.61,5.82-1.6-2.31-1.6-2.31,1.37,4.85.23,4.55a3,3,0,0,1-1.72-1.26s.27,2.46-.49,2.31-.84-3-.84-3-2.67,1.8-2.59.82.23-1.94.23-1.94-.46,1.79-1.38,1.57-.76-2.32-.76-2.32-1.52.9-2.13.3a.8.8,0,0,1,.07-1.19s-2.21,1-2.29.3,1.91-4.19,1.91-4.19-2.13,2.84-2.9,1.65,4.88-6.35,4.88-6.35-3.66,3.51-4,2.09,5.11-4.71,5.11-4.71-3.74,1.35-3.28-.37,5-3,5-3-6.41.6-4.66-1.12,6.56-3.74,6.56-3.74-5.11,2.1-4.34.15,6.17-3.81,6.17-3.81-4.5,1.72-3.2-.15,5.49-4.25,5.49-4.25-6,3.06-3.89.59,6.48-3.13,6.48-3.13-6.1.67-3.73-.83,6.86-2.39,6.86-2.39-5.26.3-3.2-1.12,5.94-1.12,5.94-1.12-6.78-.52-3.58-1.34a10.35,10.35,0,0,1,5.64.07s-4.34-1.42-2.67-1.57a23.82,23.82,0,0,1,5,.53l4,2.91L165.46,348"/><path class="cls-81" d="M175.35,319.22s-7.4,3.68-6.86,4.84,3.21.1,3.21.1-4.93,1.89-5.14,3.26,2.57.42,2.57.42-5.68,3.15-5.25,5,2.46.74,2.46.74-5.25,6.19-4.39,7.45,3-.94,3-.94-4.93,4.09-3.76,4.83,3.44-1.26,3.44-1.26-5.15,4.31-4.08,5.15,4.12-1.66,4.12-1.66l16.9-21.77Z"/><path class="cls-82" d="M201.58,293.65l-3.38-4.41s-1.06-1.74-.16-2.44,3.5,2.19,3.5,2.19l.37-7.07s.06-1.26.71-1.23,1.43,7.26,1.43,7.26l1.29-8.08s.27-1.14,1-1,.39,9.21.39,9.21l1.42-7.86s0-.84.83-.69.33,9,.33,9l1.83-5.93s.54-.82,1-.69-1.31,11.46-1.31,11.46Z"/><path class="cls-81" d="M210.11,347.12a4.45,4.45,0,0,1-.75-.46s3,2.87,2.72,3.62-2.79,0-2.79,0l1.82,1.44-1.19,3.07-25,15.38s-1.26,1.5-1.95,1.5-3.77-2.12-3.77-2.12l-10-7.72s.21,2.6-1.12,2.39-1.39-5.12-1.39-5.12.07,3.14-1.54,2.66-.07-7.65-.07-7.65-.56,2.94-1.95,2.39,1.67-5.4,1.67-5.4-1.67,2.67-2.37,1.85,2.25-5.76,2.25-5.76l7-22,30.62-17.7s-3.49-4.92-2.79-6a1.35,1.35,0,0,1,1.88-.34s-2.72-5-1.53-5.6,1.67-.35,1.67-.35-1.12-2.46-.7-2.59,1.89,1.16,1.89,1.16-.28-1.91.48-1.44a5.21,5.21,0,0,1,1.33,1.3s.28-1.71.77-1.71,1.11,1.51,1.11,1.51.84-1.44,1.12-1.44.56,1.51.56,1.51.14-1.44.55-1.44.7,1.5.7,1.5.07-1.43.49-1.36.49,1.16.49,1.16.49-1.44,1-1.37.27,4.44.27,4.44.42-1.7,1.4-1.43-.49,6-.49,6,1.12-2.18,1.88-1.5-2.23,6.83-2.23,6.83,1.12-2.18,2.44-1.71-1.81,4.92-1.81,4.92a5.75,5.75,0,0,1,2.86-1.36c1.39-.07-3.35,5.67-3.35,5.67a3.37,3.37,0,0,1,2.93-1.44c2,.07-4.18,5.74-4.18,5.74s3.07-2.59,4-1.36-5.86,5.53-5.86,5.53,5.09-2,5.23-.61-6.06,4.37-6.06,4.37,4.32-.27,4.32.68-5.58,3.35-5.58,3.35,4.88,3.9,3.77,4.1-3.42-1.16-3.42-1.16,3.42,3.21,3.14,4.78-2,.14-2,.14,3.21,2.94,2.73,4.24-2.52.2-2.52.2,3.28,2.87,2.86,4.31c-.24.83-1,.67-1.55.39"/><path class="cls-83" d="M190.33,298.16s3.24-1.09,5.29-.18,0,1.5,0,1.5,3.18.22,4.33,1.39-2.22,1.28-2.22,1.28,5.38,1.11,6.21,2.57-3.07,1.57-3.07,1.57,5.64,3.72,5.66,6.22-3.86-.36-3.86-.36,3.1,4.36,3.27,6.43-3.64-1.38-3.64-1.38,1.77,6,.54,7.4-3.31-4-3.31-4,2.77,6.3,1.49,6.64-4.86-2.42-4.86-2.42l-10.24-.14s-5.57,8.14-6.43,4.82a11.16,11.16,0,0,1,0-5.84s-4.26,6.3-4.18,2.89a18.31,18.31,0,0,1,1.94-7S174,324,173,323s1.12-7,1.12-7-1.27,3.26-2.62,2.55,2.92-8.55,2.92-8.55-4.56,4.26-4.34,1,5.62-5.64,5.62-5.64-5.47,1.24-2.78-1.11a19.52,19.52,0,0,1,6.53-3.42s-6.23,1.52-2.79-.68a9.57,9.57,0,0,1,6.84-1.39,6.46,6.46,0,0,0,2.58.22C187.19,298.82,190.33,298.16,190.33,298.16Z"/><ellipse class="cls-84" cx="187.7" cy="314.59" rx="11.4" ry="13.67"/><ellipse class="cls-85" cx="187.53" cy="321.79" rx="7.4" ry="7.83"/><path class="cls-86" d="M192.5,316.72s3.63,1.85,3.86,2.41-1.35.45-1.35.45,3.07,3.3,2.67,4.42-1.66.25-1.66.25,1.6,2.77.91,4.7-4,.3-4,.3.06,5-1.95,5-3.23-3.59-3.23-3.59-2.56,4.44-4.28,3.59-.58-5.3-.58-5.3-2.35,2.44-3.61,1.76.52-5.93.52-5.93-1.63,1.46-2.64,0,.75-3.38.75-3.38a1.83,1.83,0,0,1-1.65-.58c-.74-.79,4.71-3.25,4.71-3.25l2.05-.85h9.44"/><path class="cls-85" d="M181.38,311s1.16-3.11,2.58-3.19,2.72,2.14,3.12,2.14,2.07-2.64,3.29-2.64,4.1,3.53,2.77,4.26-5.61.21-5.61.21-5.5,1.08-6,.47A1.12,1.12,0,0,1,181.38,311Z"/><ellipse class="cls-84" cx="187.53" cy="322.21" rx="7.4" ry="7.41"/><ellipse class="cls-87" cx="190.52" cy="310.03" rx="0.9" ry="0.88"/><ellipse class="cls-87" cx="184.2" cy="310.39" rx="0.9" ry="0.88"/><path class="cls-87" d="M187.26,318.27s1.08-1.23,1.57-.86-.35,2-.87,2-.67-.38-.84-.38-.32.38-.53.38c-.42,0-1.75-1.44-1.33-1.85S187.26,318.27,187.26,318.27Z"/><path class="cls-87" d="M182.19,324.25a11.65,11.65,0,0,0,5.06,1.06,27.77,27.77,0,0,0,6.14-1.06Z"/><path class="cls-86" d="M209.07,347.11s-8.06.62-7.34,1.82,3,1,3,1-5.29.52-5.75,1.87,2.31,1.17,2.31,1.17-6.5.28-6.79,1.7,2.24,1.33,2.24,1.33-6.95.7-6.93,2,1.46,1.62,1.46,1.62-4.41-.56-5.12.65,1.84,1.2,1.84,1.2-5.25,1.06-5.36,1.77,1.07,1.64,1.07,1.64-3.87.41-2.84,1.51,1.5,1,1.5,1-1.51,1-1.38,1.73,2.35.52,2.35.52-1.65,1-1.61,1.55,1.7.69,1.7.69,1.88,2.27,3,2.37.42-1.89.42-1.89.41,1.93,1.22,2.21,1.18-2.84,1.18-2.84-.34,1.54.38,2,1.85-2.48,1.85-2.48-.42,1.85.28,2.07,1.69-2.47,1.69-2.47-.35,1.37.39,1.69,1.65-3.45,1.65-3.45-.26,2.11.78,2.24,2.44-4.38,2.44-4.38-.57,3.11.26,3.25,2.74-5.17,2.74-5.17-.38,3,1,3.1,2.21-5.68,2.21-5.68.3,3.29,1.58,3.37,2.36-6.09,2.36-6.09.09,2.75,1.64,2.78,1.45-4.81,1.45-4.81.35,2.5,1.37,2.4,1.12-5.13,1.12-5.13.29,2.17,1.31,2-.29-5.61-.29-5.61.88,1.32,1.49,1.15-1.56-3.64-2.8-4.57-4.72-2.58-5.85-2.5S209.07,347.11,209.07,347.11Z"/><path class="cls-88" d="M184.81,364.23s.87-6.24,2-6,1,4.36,1,4.36,5.59-5,6.63-4.36-2.79,5.3-2.79,5.3,5.24-3.67,6-2.48-5.23,5.22-5.23,5.22,5.5-2.22,6.19-1.11-4.71,3.08-4.71,3.08,3.14-.43,3.23.77-7.86,2.91-7.86,2.91-4.45,1.28-5.58-.86S184.81,364.23,184.81,364.23Z"/><path class="cls-86" d="M168.93,334.77s-4.19,4.4-3.27,5.44,2.51-.15,2.51-.15-3.58,4.4-2.51,5.6,2.51,0,2.51,0-3.35,4.7-2.51,5.37,2.66-.23,2.66-.23-3.73,5.45-2.82,6.19,3-.15,3-.15-4,4.85-3.27,6,3.12-.22,3.12-.22-3.88,5-2.82,5.66,3.12-.3,3.12-.3-.91,4.78-.07,5.15,3.5-.15,3.5-.15,5.48,2.24,6.09,2.09.15-3.66.15-3.66a1.49,1.49,0,0,0,1.37,1.12c1.14.08.61-4.55.61-4.55s.38,1.27,1.22,1.42-.61-4.17-.61-4.17,2.21,1.41,2.82.74-3.28-7.31-3.28-7.31,2.21,2.76,3.12,2.39-3.27-8.95-3.27-8.95,1.14,1.79,2.36,1.34-2.66-8.2-2.66-8.2,2.05,3.28,3.73,2.31-4-9.26-4-9.26,1.59,1.88,3.11,1.43-4.56-4.55-4.56-4.55,3.12,1.57,3.42.23-6.47-3-6.47-3,3.73.45,3-.59-5.71-.9-6.7-.23-6.39,3-5.94,3.66S168.93,334.77,168.93,334.77Z"/><path class="cls-88" d="M179.22,371.67s3.89-5,2.9-5.62-3.83,2.42-3.83,2.42-.37-7.38-1.54-7.68-1.85,5.68-1.85,5.68-1.05-6.23-2.47-5.92-.06,7.31-.06,7.31-2.29-5.38-3.58-5.08,1.11,5.45,1.11,5.45-1.92-2.48-2.84-1.7,3.45,7.5,3.45,7.5,2.23,4,4.57,3.27S179.22,371.67,179.22,371.67Z"/><g id="Malaysia_Flag" data-name="Malaysia Flag"><path class="cls-89" d="M150,353.48a15,15,0,0,1-.83,2.59,15.64,15.64,0,0,1-1,1.95,14.69,14.69,0,0,1-9.86,6.72,12.76,12.76,0,0,1-1.66.2c-.31,0-.64,0-1,0h-86c-.32,0-.64,0-1,0s-.67-.05-1-.09a14.68,14.68,0,0,1-7.31-3.18,14.59,14.59,0,0,1-4.1-5.35,14.09,14.09,0,0,1-.93-2.84Z"/><path class="cls-90" d="M150.3,342v8.39a2.18,2.18,0,0,1,0,.25,14.16,14.16,0,0,1-.32,2.86H35.32a13.92,13.92,0,0,1-.34-3.11V342Z"/><rect class="cls-89" x="34.98" y="330.48" width="115.32" height="11.5"/><rect class="cls-90" x="34.98" y="318.99" width="115.32" height="11.5"/><path class="cls-89" d="M150.3,310.59V319H35v-8.4a14.43,14.43,0,0,1,.33-3.1H150a13.38,13.38,0,0,1,.33,2.85A2.18,2.18,0,0,1,150.3,310.59Z"/><path class="cls-90" d="M150,307.49H35.31a13.93,13.93,0,0,1,1-2.94,14.11,14.11,0,0,1,1.06-1.95,14.74,14.74,0,0,1,10.35-6.49,15.19,15.19,0,0,1,1.91-.12h86a14,14,0,0,1,1.59.09,14.56,14.56,0,0,1,7.6,3.15,14.37,14.37,0,0,1,4.06,5.14A13.83,13.83,0,0,1,150,307.49Z"/><path class="cls-91" d="M49.65,296h43a0,0,0,0,1,0,0v20A14.67,14.67,0,0,1,78,330.68H35a0,0,0,0,1,0,0v-20A14.67,14.67,0,0,1,49.65,296Z"/><path class="cls-52" d="M62.62,325.43a13.12,13.12,0,0,1-3.67.51,13.3,13.3,0,1,1,0-26.6,13.49,13.49,0,0,1,2.72.28,13.1,13.1,0,0,0,.95,25.81Z"/><polygon class="cls-52" points="70.71 302.79 71.8 307.78 74.95 303.75 73.75 308.72 78.35 306.45 75.11 310.42 80.24 310.36 75.59 312.53 80.24 314.7 75.11 314.64 78.35 318.6 73.75 316.34 74.95 321.31 71.8 317.28 70.71 322.27 69.62 317.28 66.47 321.31 67.66 316.34 63.07 318.6 66.31 314.64 61.18 314.7 65.82 312.53 61.18 310.36 66.31 310.42 63.07 306.45 67.66 308.72 66.47 303.75 69.62 307.78 70.71 302.79"/></g></g></g></svg>