<svg xmlns="http://www.w3.org/2000/svg" xmlns:xlink="http://www.w3.org/1999/xlink" viewBox="0 0 400 400"><defs><style>.cls-1,.cls-11,.cls-18,.cls-26,.cls-27,.cls-45,.cls-46,.cls-47,.cls-49,.cls-55,.cls-97{fill:none;}.cls-2{clip-path:url(#clip-path);}.cls-3{fill:#b3defe;}.cls-4{fill:#006994;}.cls-5{fill:#e4eff2;}.cls-6{fill:#7b7c7c;}.cls-7{fill:#a5a7aa;}.cls-8{fill:#d1d2d4;}.cls-9{fill:#779cad;}.cls-10{fill:#779ba9;}.cls-11{stroke:#6f90a1;}.cls-11,.cls-18,.cls-26,.cls-27,.cls-45,.cls-46,.cls-47,.cls-49,.cls-55,.cls-83,.cls-90,.cls-97{stroke-miterlimit:10;}.cls-12{fill:#6c6d71;}.cls-13{fill:#6d6e70;}.cls-14{fill:#454649;}.cls-15{fill:#27292b;}.cls-16{fill:#f0e0c8;}.cls-17{fill:#d5cbb8;}.cls-18{stroke:#b6ab99;}.cls-19{fill:#b6ab99;}.cls-20{fill:#057ca0;}.cls-21{fill:#b5d3e2;}.cls-22{fill:#7d990a;}.cls-23{fill:#abd302;}.cls-24{fill:#94c105;}.cls-25{fill:#663510;}.cls-26{stroke:#646566;}.cls-26,.cls-27{stroke-linecap:round;stroke-width:2px;}.cls-27{stroke:#77787a;}.cls-28{fill:#b63c29;}.cls-29{fill:#993025;}.cls-30{fill:#a03025;}.cls-31{fill:#a2ceea;}.cls-32{fill:#bbdef2;}.cls-33{fill:#ffa705;}.cls-34{fill:#f10b20;}.cls-35{fill:#4f393e;}.cls-36{fill:#05914e;}.cls-37{fill:#d5e0db;}.cls-38{fill:#000805;}.cls-39{fill:#c12d2d;}.cls-40{fill:#2b2023;}.cls-41{fill:#37363d;}.cls-42{fill:#ba2b24;}.cls-43{fill:#d13333;}.cls-44{fill:#513f43;}.cls-45{stroke:#e5c333;}.cls-46{stroke:#fcdc42;}.cls-47{stroke:#545454;}.cls-48{fill:#dd0016;}.cls-49{stroke:#a5190a;}.cls-49,.cls-90{stroke-width:0.75px;}.cls-50{fill:#3f1e05;}.cls-51{fill:#c90a2b;}.cls-52{fill:#f7f7f7;}.cls-53{fill:#af5a1b;}.cls-54{fill:#bc6c37;}.cls-55{stroke:gray;}.cls-55,.cls-83{stroke-width:0.5px;}.cls-56{fill:#151314;}.cls-57{fill:#fbb03b;}.cls-58{fill:#494640;}.cls-59{fill:#8e8f81;}.cls-60,.cls-83{fill:#b2021c;}.cls-61{fill:#c4c5bf;}.cls-62{fill:#e6c6cb;}.cls-63{fill:#673a25;}.cls-64{fill:#e7d9b4;}.cls-65{fill:#d87c7d;}.cls-66{fill:#bc6c4a;}.cls-67{fill:#80472c;}.cls-68{fill:#dece9a;}.cls-69{fill:#c21308;}.cls-70{fill:#424951;}.cls-71{fill:#d4ab1d;}.cls-72{fill:#ead7be;}.cls-73{fill:#cd6d6e;}.cls-74{fill:#bfdde8;}.cls-75{fill:#935234;}.cls-76{fill:#72a97f;}.cls-77{fill:#e1d07e;}.cls-78{fill:#dab0ea;}.cls-79{fill:#f4b990;}.cls-80{fill:#232221;}.cls-81{fill:#746c62;}.cls-82{fill:#3c1109;}.cls-83,.cls-90{stroke:#c4c5bf;}.cls-84{fill:#9e0e2a;}.cls-85{fill:#aca9a0;}.cls-86{fill:#840624;}.cls-87{fill:#ead5ca;}.cls-88{fill:#120a08;}.cls-89,.cls-90{fill:#b50926;}.cls-91{fill:#990525;}.cls-92{fill:#93000e;}.cls-93{fill:#b7b6b6;}.cls-94{fill:#eae8e8;}.cls-95{fill:#dddbdb;}.cls-96{fill:#cecccc;}.cls-97{stroke:#3c1109;stroke-width:0.25px;}.cls-98{fill:#e00030;}.cls-99{fill:#fff;}</style><clipPath id="clip-path"><circle class="cls-1" cx="200" cy="200" r="150"/></clipPath></defs><g id="Layer_1" data-name="Layer 1"><g id="Singapore"><g class="cls-2"><path class="cls-3" d="M350,200a149.87,149.87,0,0,1-4.88,38.08c-.44,1.68-.9,3.35-1.4,5H56.28c-.5-1.65-1-3.32-1.4-5a150.67,150.67,0,0,1,7.39-97.59c1.2-2.78,2.49-5.53,3.86-8.22Q68.8,127,71.88,122q2.67-4.39,5.63-8.57a150.58,150.58,0,0,1,9.33-11.86q4.66-5.36,9.82-10.26A150,150,0,0,1,350,200Z"/><rect class="cls-4" x="50" y="235.96" width="300" height="96.75"/><ellipse class="cls-5" cx="202.23" cy="141.59" rx="16.38" ry="11.06"/><circle class="cls-5" cx="211.41" cy="129.86" r="15.06"/><ellipse class="cls-5" cx="221.85" cy="138.71" rx="13.73" ry="8.85"/><path class="cls-5" d="M95.36,112.38a10,10,0,0,1-.86,4.05,13.09,13.09,0,0,1-6.7,6.39,17.29,17.29,0,0,1-7.15,1.5A17,17,0,0,1,71.88,122q2.67-4.39,5.63-8.57a150.58,150.58,0,0,1,9.33-11.86,13.16,13.16,0,0,1,7.88,7.33h0A9.79,9.79,0,0,1,95.36,112.38Z"/><path class="cls-5" d="M96.66,91.28A17.23,17.23,0,0,1,110,101.47a15.37,15.37,0,0,1,1.19,6,16.4,16.4,0,0,1-10.47,15,18.64,18.64,0,0,1-12.9.38,17,17,0,0,1-10.29-9.42,150.58,150.58,0,0,1,9.33-11.86Z"/><ellipse class="cls-5" cx="109.2" cy="112.89" rx="15.46" ry="11.44"/><rect class="cls-6" x="50" y="284.08" width="300" height="65.92"/><path class="cls-1" d="M350,200a149.87,149.87,0,0,1-4.88,38.08c-.44,1.68-.9,3.35-1.4,5q-1.23,4.11-2.68,8.12c-.18.47-.35.94-.52,1.4a150,150,0,0,1-14.14,28.24c-1.91,3-3.92,5.88-6,8.7a148.2,148.2,0,0,1-10.27,12.36,151.51,151.51,0,0,1-19.32,17.53A150.12,150.12,0,0,1,59.48,252.6L59,251.2q-1.45-4-2.69-8.12c-.5-1.65-1-3.32-1.4-5a150.67,150.67,0,0,1,7.39-97.59c1.2-2.78,2.49-5.53,3.86-8.22A150,150,0,0,1,350,200Z"/><ellipse class="cls-5" cx="256.92" cy="82.91" rx="14.94" ry="16.04"/><path class="cls-5" d="M290.43,80.32a13.17,13.17,0,0,1-6.34,4.8,26.67,26.67,0,0,1-10,1.84c-.91,0-1.8,0-2.68-.12a25.59,25.59,0,0,1-7.33-1.72c-4.45-1.82-7.36-4.81-7.36-8.21s2.85-6.33,7.24-8.15a24.37,24.37,0,0,1,5.83-1.58A149.72,149.72,0,0,1,290.43,80.32Z"/><ellipse class="cls-5" cx="274.08" cy="91.05" rx="11.29" ry="12.81"/><rect class="cls-7" x="50" y="221.1" width="300" height="28.9"/><path class="cls-8" d="M268.44,123.8l-1.6,5.78-4.62.3-.86.05-1.72.11-4,.26-4.19.26-5.25.32-1.95.12h0l-2.18.13-4.19.25-4.39.25-4.17.23-4.19.21c-2.76.14-4.85.22-5.88.22h-.31c-3.44,0-14.69.27-25.41.51l-3.56.07-4,.09-4.19.09-5.25.1c-1.81,0-3.25,0-4.17,0h-1.05l-3.14-.1-4.39-.11-4.17-.11-4.18-.11-5.54-.14L124.93,132l-5.42-.14-4.05-.11-4.19-.12-5.25-.17-1,0c-.54,0-1.64-.13-3.17-.28-1.17-.1-2.59-.24-4.19-.4l-4.38-.44-4.17-.44-4.19-.44-.38,0h0c-8-.84-16.47-1.79-22.27-2.49q1.8-4.19,3.86-8.23l15.75,1.25s43.37,2.48,45.85,2.72,50.56.46,56,.71,45.66-1.25,52.27-1.5l29-1.09Z"/><polygon class="cls-9" points="80.47 130.72 81.68 171.34 73.81 232.29 124.19 232.29 124.93 131.31 82.14 129.24 80.47 130.72"/><polygon class="cls-9" points="149.75 132.26 193.44 132.51 196.22 232.29 148.56 232.29 152.69 182.98 149.75 132.26"/><polygon class="cls-10" points="218.31 132.32 262.2 129.54 266.72 232.38 223.73 232.19 223.91 199.81 218.31 132.32"/><line class="cls-11" x1="84.92" y1="128.83" x2="84.92" y2="232.36"/><line class="cls-11" x1="89.11" y1="128.55" x2="89.11" y2="231.83"/><line class="cls-11" x1="93.28" y1="128.61" x2="93.28" y2="232.05"/><line class="cls-11" x1="97.66" y1="130.19" x2="97.66" y2="232.32"/><line class="cls-11" x1="101.85" y1="129.66" x2="101.63" y2="232.38"/><line class="cls-11" x1="106.02" y1="129.87" x2="105.93" y2="232.66"/><line class="cls-11" x1="111.27" y1="129.14" x2="111.27" y2="232.19"/><line class="cls-11" x1="115.46" y1="130.75" x2="115.35" y2="232.24"/><line class="cls-11" x1="119.51" y1="129.34" x2="119.51" y2="232.24"/><polygon class="cls-12" points="83.73 129.24 83.73 126.57 123.06 128.67 123.06 131.22 83.73 129.24"/><line class="cls-11" x1="155.3" y1="130.57" x2="155.3" y2="231.94"/><line class="cls-11" x1="159.49" y1="130.29" x2="159.49" y2="231.99"/><line class="cls-11" x1="163.66" y1="130.35" x2="163.66" y2="232"/><line class="cls-11" x1="168.05" y1="131.92" x2="168.05" y2="231.84"/><line class="cls-11" x1="172.24" y1="131.39" x2="172.24" y2="231.79"/><line class="cls-11" x1="176.41" y1="131.61" x2="176.41" y2="231.88"/><line class="cls-11" x1="181.66" y1="130.88" x2="181.66" y2="232.18"/><line class="cls-11" x1="185.85" y1="132.49" x2="185.85" y2="232.28"/><line class="cls-11" x1="189.89" y1="131.08" x2="189.89" y2="232.24"/><polygon class="cls-13" points="191.15 132.51 191.15 130.32 152.56 129.77 152.56 132.51 191.15 132.51"/><line class="cls-11" x1="225.05" y1="130.63" x2="225.05" y2="231.99"/><line class="cls-11" x1="229.24" y1="130.35" x2="229.24" y2="232.05"/><line class="cls-11" x1="233.41" y1="130.4" x2="233.41" y2="232.05"/><line class="cls-11" x1="237.8" y1="130.45" x2="237.8" y2="231.9"/><line class="cls-11" x1="241.99" y1="130.5" x2="241.99" y2="231.85"/><line class="cls-11" x1="246.16" y1="130.18" x2="246.16" y2="231.94"/><line class="cls-11" x1="251.41" y1="129.69" x2="251.41" y2="232.24"/><line class="cls-11" x1="255.6" y1="129.85" x2="255.6" y2="232.34"/><line class="cls-11" x1="259.64" y1="129.96" x2="259.64" y2="232.3"/><polygon class="cls-13" points="220.46 132.22 220.46 130.04 261.36 127.68 261.36 130.12 220.46 132.22"/><path class="cls-14" d="M326.38,289.93c-1.91,3-3.92,5.88-6,8.7A148.2,148.2,0,0,1,310.08,311H239.73L245,298.63l3.67-8.7Z"/><path class="cls-15" d="M310.08,311a151.51,151.51,0,0,1-19.32,17.53h-51V311Z"/><path class="cls-16" d="M318,245.29s2.3,9.77,2.3,17-1.53,22.22-2.3,24.52-4.79,14.17-9,16.28-16.28,5-20.69,4.4-21.64-.57-26-11.3a31.42,31.42,0,0,1-1.53-19.79l2.49-12.29s5.7-2.91,8-.47,3.37,7,3.37,7a47.45,47.45,0,0,0-.81,5.78,3.68,3.68,0,0,0,1.74,3.4c1.17.82,2.33,1.63,4.19.82s2.09-1.1,3-4.22,1.51-11.83,1.51-11.83l-10-36.15,3.6-12.56,20.11,1.75Z"/><path class="cls-17" d="M267.53,223.48l1.24,17.15s5.37-1.5,8,.42,5.38,9.28,4.93,12.44a12.21,12.21,0,0,1-1.94,5.16l-8.12,9.22-9-1.63s1.24-9.77.79-12.48-1.69-10.19-4.06-14.14S253.33,229.87,252,228s-4.41-5.92-1.93-7.49,8,.44,8,.44Z"/><path class="cls-17" d="M270.72,267.63l10.62-11.72s6.52-2.44,8.12,2.46-1,5.47-1,5.47,3.54,2.4,2.74,6.05-1.83,3.42-1.83,3.42a5.71,5.71,0,0,1-.68,5.59c-2.05,2.5-4,2.16-4,2.16l-2.95-1.91s.63-3.22-.72-4.47a5.65,5.65,0,0,0-5.34-.8A2.56,2.56,0,0,0,274,275.4s.72-4.17-1.25-6Z"/><path class="cls-18" d="M268.3,242.63a27.45,27.45,0,0,1,.86,9.06c-.53,4-2.78,15.22-2.78,15.22"/><line class="cls-18" x1="281.34" y1="255.91" x2="270.72" y2="267.63"/><path class="cls-18" d="M288.43,263.84a49.29,49.29,0,0,0-6.27,1.62c-1.33.45-8.5,5.47-8.5,5.47"/><path class="cls-18" d="M289.34,273.31s-1.25-1.09-4.1-.47a10,10,0,0,0-4.24,1.84"/><path class="cls-18" d="M286.21,242.63s1.05,2.8,3.8,2.8,4.14-2.8,4.14-2.8"/><path class="cls-18" d="M307,264.59s1,2.8,3.8,2.8,4.14-2.8,4.14-2.8"/><path class="cls-18" d="M293,257.15s1.05,2.79,3.8,2.79,4.13-2.79,4.13-2.79"/><path class="cls-18" d="M271.57,274.38a2.18,2.18,0,0,0-1.06-2.11,2.55,2.55,0,0,0-2.47.31"/><path class="cls-18" d="M269.2,288.35a2.81,2.81,0,0,0-3,.66,3.29,3.29,0,0,0-.4,3.19"/><path class="cls-18" d="M288.59,282.33s.16,3,2.79,3.8,4.78-1.44,4.78-1.44"/><path class="cls-18" d="M286.43,296.09s-1.53,2.56.18,4.72,4.76,1.49,4.76,1.49"/><path class="cls-18" d="M300.28,292.2s1.05,2.79,3.8,2.79,4.14-2.79,4.14-2.79"/><path class="cls-18" d="M277.92,282.22a3.37,3.37,0,0,0-.06,3.64,3.92,3.92,0,0,0,3.6,1.36"/><path class="cls-18" d="M290.18,233.17s1.05,2.8,3.8,2.8,4.13-2.8,4.13-2.8"/><path class="cls-16" d="M253.56,182.93s-2.16-3.59-1.44-5.93,5-3.77,5-3.77l7.36-1.43s1.18-3.5,2.26-3.83l2.67-.84s1.5-2.16,2.58-2.33l1.09-.16A7,7,0,0,1,278.6,159c4.84-.92,8.75-1.58,12.5-1.33a49.86,49.86,0,0,1,9.25,2,22.69,22.69,0,0,1,7.08,3.08,39.88,39.88,0,0,1,7.25,6.08,20.69,20.69,0,0,1,3.5,7.08c.75,2.92,1.17,7.17,1.58,9a77,77,0,0,1,1.17,7.67,50.5,50.5,0,0,0,.92,5.16l-5.09.25s1.75,7,1.75,7.92a40,40,0,0,0,1.84,7.41c.41.59,2.91,5.58,2.91,7a8.09,8.09,0,0,0,.17,2h-7.75s3.08,4.83,3.42,8A49.89,49.89,0,0,0,321,239c.42,1.08,3,5.66,3,5.66H312.68L296.77,240V225l-8.25-2.25a19.09,19.09,0,0,1-5.08,1.92c-3.17.75-4.25.5-4.25.5v13.33s-5.17.75-7.5,2.5-7.5,2.25-7.5,2.25l.08-16.67a11.18,11.18,0,0,0-2-3.33l-1.08-1a14.57,14.57,0,0,1,1-4.08c.75-1.5-.42-3.17.25-5.83s1.17-6,1.17-6a7.76,7.76,0,0,1-3.63-2.49A8.72,8.72,0,0,1,258.9,200l1.51-1.65s1.13-3.25,1.74-3.39,2.5,1.46,2.5,1.46a13.56,13.56,0,0,0,3.44.19c1.88-.14,4.23-1.79,4.28-4s-2.4-4-3.06-4.19a18.84,18.84,0,0,0-5.09.14c-1,.28-2.87,3.49-2.87,3.49L258.9,194a2,2,0,0,1-1.22-1.18c-.29-.89-.57-2-.57-2s-3-1.56-3.39-3.53A18.14,18.14,0,0,1,253.56,182.93Z"/><path class="cls-19" d="M268,170.48l6,2.17-4.73,2.17s-1.78-.4-2-1.78A3.88,3.88,0,0,1,268,170.48Z"/><path class="cls-19" d="M284.73,168.81a14.49,14.49,0,0,0,.2-4.3,7,7,0,0,0-2.35-3.62,8.89,8.89,0,0,0-3.32,3.32,8.5,8.5,0,0,0-.59,4.11l3.23.57.1.72a2.54,2.54,0,0,0,1.69-.26A2.8,2.8,0,0,1,284.73,168.81Z"/><path class="cls-18" d="M284,161a11.26,11.26,0,0,1,4.24,4.78c1,2.14.91,4.08.65,6.85-.58,6.42-.88,9.63-2.39,14-.53,1.54-2.32,5-5.87,11.74-3.4,6.48-5.13,9.77-6.63,12s-2.67,3.57-5.76,8c-1.55,2.23-2.78,4.08-3.59,5.32"/><path class="cls-18" d="M285.33,160.39a10.47,10.47,0,0,1,5,3.9c1.33,2,1.59,4.13,1.56,7a52.09,52.09,0,0,1-2.34,14.51c-1.43,5-2.35,7.27-4.36,13.26-2.92,8.69-3.38,10.17-3.91,12.33a75.51,75.51,0,0,0-1.87,11.86"/><path class="cls-18" d="M295,179.27c-1,6.92-2.22,12.45-3.13,16.22-1.19,5-2,7.24-2.65,11.39a66.76,66.76,0,0,0-.78,13.89"/><path class="cls-18" d="M306.75,165.26a38.21,38.21,0,0,1,5.1,9.8,38.85,38.85,0,0,1,1.88,17.17"/><path class="cls-18" d="M296.51,224.39c-.12-.9-.29-2.19-.4-3.75a61.62,61.62,0,0,1,.27-11.14c.4-4.32.92-9.22,1.61-14.62"/><path class="cls-18" d="M314.92,221.21A36.09,36.09,0,0,1,311,210.78c-1.11-5.41,0-6.65-.47-14.09a74.38,74.38,0,0,0-3.44-18,70.14,70.14,0,0,0-3.79-9.36"/><path class="cls-1" d="M253.48,182.82l.92-.46,2.6-3.14s3.29-2.91,5-3.53a11.68,11.68,0,0,1,4.44-.23,16.66,16.66,0,0,1-1.07-2.62,1.58,1.58,0,0,0-.77-1"/><path class="cls-18" d="M264.24,243.29s6.06-.5,7.5-2.25,7.49-2.5,7.49-2.5V225.21s4.07.35,5.44-.82a9.79,9.79,0,0,1,3.9-1.6l8.24,2.25v15l15.92,4.66h11.33s-2.79-4.41-3.46-7.17"/><path class="cls-20" d="M134.92,272.69c7-4.3,11.86-17.25,11.86-17.25,0-2.06,7.61-24.88,25.74-41.17,13.54-12.17,26.4-17.41,44.18-21.72,17.28-4.18,44.35,2.57,44.35,2.57s-13.45-1.44-18.43-.69-32.06,7.3-41.42,16.65-16.33,26.21-16.33,32.2-.6,17.59,1,20.77-.34,5.47,1.45,6.59S134.92,272.69,134.92,272.69Z"/><ellipse class="cls-21" cx="144.35" cy="268.65" rx="14.3" ry="9.33"/><ellipse class="cls-21" cx="156.95" cy="272.34" rx="9.52" ry="5.84"/><ellipse class="cls-21" cx="165.78" cy="266.73" rx="8.82" ry="7.85"/><ellipse class="cls-21" cx="175.07" cy="273.37" rx="13.41" ry="5.9"/><ellipse class="cls-21" cx="183.46" cy="269.53" rx="10.91" ry="9.31"/></g></g></g><g id="Layer_2" data-name="Layer 2"><g id="NEW_SG" data-name="NEW SG"><path class="cls-22" d="M63.36,162.51s7.9-24.89,17.08-25c23.13-.37,44.19,10.8,44.19,10.8S88,150.76,81.1,153.85s-14,9.33-14,9.33Z"/><path class="cls-23" d="M61.84,158s-4.73-20.39,3.69-27.58c6-5.08,32.84-4.4,32.84-4.4S76.67,136,72.62,143,65,162.6,65,162.6Z"/><path class="cls-22" d="M61,161s-20.37,2.83-24.45,12.22c-8.26,19-3.7,39.92-3.7,39.92s8.52-21.7,13.25-31C49.9,174.69,61.37,166,61.37,166Z"/><path class="cls-24" d="M63.93,163.4s10.28-14.43,27.86-13S120,199.06,120,199.06s-22-23.65-33.88-27.8S63.93,163.4,63.93,163.4Z"/><path class="cls-24" d="M63.35,161.63A54.89,54.89,0,0,1,89.6,180.57c10.53,14.4,3.84,42.22,3.84,42.22a121.66,121.66,0,0,1-19.07-26.38C66.69,181.53,63.35,161.63,63.35,161.63Z"/><path class="cls-24" d="M62.28,164.89s-11.73-8-21.92-15.37-27.9-5.84-27.9-5.84,22-17.62,37.77-4.82S62.28,164.89,62.28,164.89Z"/><path class="cls-25" d="M38.63,310c-1.36-12.67-2.08-25.32-2.47-38-.22-6.35-.25-12.73-.21-19.13s.28-12.8.87-19.45c.15-1.66.34-3.38.66-5.17.07-.45.19-.95.28-1.42l.16-.72.15-.59.61-2.35c.79-3.14,1.69-6.23,2.57-9.32s1.92-6.13,2.93-9.16,2-6.07,3.15-9.06,2.22-6,3.37-9,2.39-5.91,3.61-8.85c2.51-5.86,5.07-11.68,8-17.39l3.29,1.21-8.8,36.8c-1.39,6.12-2.85,12.21-4.08,18.31-.63,3-1.28,6.09-1.82,9.12l-.42,2.28-.1.57,0,.45c0,.3-.09.57-.11.91-.11,1.34-.23,2.77-.28,4.26-.27,5.95-.06,12.22,0,18.44s.37,12.5.54,18.77c.4,12.54.83,25.15.92,37.71Z"/><path class="cls-23" d="M55.88,159.26s-13-7.49-25.65-3.91C16.73,159.17,4.3,188,4.3,188s12.15-12.47,29.56-16.34c8.19-1.82,27.51-5.75,27.51-5.75Z"/><rect class="cls-25" x="255.6" y="216.01" width="6.3" height="144.16"/><line class="cls-26" x1="255.61" y1="219.99" x2="261.89" y2="220.57"/><path class="cls-27" d="M63.35,161.63s22.48,46.33,73.47,57c67.27,14.12,122.42,2.06,122.42,2.06"/><rect class="cls-28" x="92.37" y="330.95" width="1.94" height="9.61" transform="translate(186.68 671.51) rotate(180)"/><rect class="cls-28" x="104.47" y="331.18" width="2.02" height="10.15" transform="translate(210.95 672.5) rotate(180)"/><rect class="cls-29" x="100.86" y="333.44" width="0.95" height="6.3" transform="translate(202.67 673.18) rotate(180)"/><rect class="cls-29" x="97.25" y="333.26" width="0.95" height="6.3" transform="translate(195.46 672.82) rotate(180)"/><rect class="cls-29" x="112.53" y="333.19" width="0.95" height="6.3" transform="translate(226.02 672.68) rotate(180)"/><rect class="cls-29" x="108.92" y="333.01" width="0.95" height="6.3" transform="translate(218.8 672.32) rotate(180)"/><rect class="cls-28" x="92.65" y="332.25" width="23.63" height="1.9" transform="translate(208.93 666.41) rotate(180)"/><rect class="cls-28" x="92.65" y="338.89" width="24.3" height="0.85" transform="translate(209.6 678.63) rotate(180)"/><rect class="cls-30" x="115.92" y="316.49" width="100.61" height="25.16" transform="translate(332.45 658.14) rotate(180)"/><rect class="cls-31" x="197.95" y="323.41" width="15.29" height="1.98" transform="translate(411.2 648.8) rotate(180)"/><rect class="cls-32" x="197.95" y="327.75" width="15.29" height="12.82" transform="translate(411.2 668.31) rotate(180)"/><rect class="cls-31" x="178.59" y="323.41" width="15.29" height="1.98" transform="translate(372.47 648.8) rotate(180)"/><rect class="cls-32" x="178.59" y="327.75" width="15.29" height="12.82" transform="translate(372.47 668.31) rotate(180)"/><rect class="cls-31" x="159.24" y="323.41" width="15.29" height="1.98" transform="translate(333.77 648.8) rotate(180)"/><rect class="cls-32" x="159.24" y="327.75" width="15.29" height="12.82" transform="translate(333.77 668.31) rotate(180)"/><rect class="cls-31" x="139.67" y="323.41" width="15.29" height="1.98" transform="translate(294.64 648.8) rotate(180)"/><rect class="cls-32" x="139.67" y="327.75" width="15.29" height="12.82" transform="translate(294.64 668.31) rotate(180)"/><rect class="cls-31" x="119.1" y="323.41" width="15.29" height="1.98" transform="translate(253.49 648.8) rotate(180)"/><rect class="cls-32" x="119.1" y="327.75" width="15.29" height="12.82" transform="translate(253.49 668.31) rotate(180)"/><rect class="cls-29" x="237.11" y="332.82" width="0.88" height="8.22" transform="translate(475.1 673.85) rotate(180)"/><rect class="cls-29" x="232.17" y="332.62" width="0.88" height="8.22" transform="translate(465.22 673.46) rotate(180)"/><rect class="cls-29" x="226.21" y="332.62" width="0.88" height="8.22" transform="translate(453.3 673.46) rotate(180)"/><rect class="cls-29" x="221.25" y="332.62" width="0.88" height="8.22" transform="translate(443.37 673.46) rotate(180)"/><polygon class="cls-28" points="247.99 340.56 238.26 331.74 216.53 331.74 216.53 340.56 217.51 340.56 217.51 332.86 237.74 332.86 246.06 340.56 247.99 340.56"/><polygon class="cls-33" points="91.71 340.56 91.71 351.86 253.35 351.06 253.35 345.49 250.35 342.74 247.99 340.56 91.71 340.56"/><polygon class="cls-34" points="91.71 340.56 91.71 342.74 250.35 342.74 247.99 340.56 91.71 340.56"/><path class="cls-35" d="M86,348.92l.4,1.84,2,9.5s53.83,4.52,92.39,4.52c26.09,0,26.8-.46,47.51-1.68l.77,0,1.7-.11,3.72-.23,1.28-.08,3.48-.22.95-.07.6,0,.78-.05.69-.05.56,0H243l1.82-.13,1.27-.09,2-.14,4.07-.3,1.17-.09h0l.25,0,3.39-.26,1-.07.9-.08,1.06-.08.69-.06.61-.05h0l.25,0,.48,0,.91-.07,1-.08.65-.06.62,0,.37,0,.18,0,.39,0h.09l.53-.05H267l.66-.06.78-1h0l.7-.93,1-1.32,2.37-3.13.74-1,.87-1.15,2.91-3.83h0l0,0h0l-30.55.14-3.67,0h-3.24l-8.15,0-28.06.16-5.06,0-36.58.21-5.16,0-33.06.18-4,0Z"/><path class="cls-36" d="M229.08,363.05h0l1.7-.11,3.72-.23,1.28-.08,3.48-.22.95-.07.6,0,.78-.05.69-.05.56,0H243l1.82-.13,1.27-.09,2-.14,4.07-.3,1.17-.09h0l.25,0,3.39-.26,1-.07.9-.08,1.06-.08.69-.06.6,0h0l.25,0,.48,0,.91-.07,1-.08.65-.06.62,0,.37,0,.18,0,.39,0h.09l.53-.05H267l.66-.06.78-1h0l.7-.93,1-1.32,2.37-3.13.74-1h0l.87-1.15,2.91-3.83h0l0,0h0l-30.55.14-1.23,1.06-.6.52h0l-3.5,3h0l-6,5.14h0l-6.14,5.3Z"/><polygon class="cls-37" points="263.3 353.85 272.56 353.85 274.17 351.73 274.3 349.28 268.15 349.28 263.3 353.85"/><ellipse class="cls-37" cx="258.65" cy="352.44" rx="2.55" ry="2.08"/><ellipse class="cls-38" cx="258.87" cy="352.46" rx="1.67" ry="1.4"/><path class="cls-39" d="M236.27,361.82c-1.77-.09-2.91-.18-2.91-.18l14.2-11.78,22.41-.63-3.8,3.57,7.13.08,3.8-5-30.55.14-3.66,0v1.56h1.82l-15.63,13.46,13.89-.88S238,361.9,236.27,361.82Z"/><polygon class="cls-37" points="243.54 349.59 245.48 349.59 230.16 362.99 228.32 363.1 243.54 349.59"/><path class="cls-37" d="M253.6,361.4l3.39-.26,1-.07.9-.08,1.06-.08.69-.06.6,0h0l.25,0,.48,0,.91-.07,1-.08.65-.06.62,0,.37,0,.18,0,.39,0h.09l.53-.05H267l.66-.06.78-1h0l.7-.93,1-1.32h0L254,361.3Z"/><path class="cls-39" d="M253.35,361.42l.25,0,3.39-.26,1-.07.9-.08,1.06-.08.69-.06.61-.05h0l.25,0,.48,0,.91-.07,1-.08.65-.06.62,0,.37,0,.18,0,.39,0h.09l.53-.05H267l.66-.06.78-1h0l.7-.93a64.34,64.34,0,0,1-6.58,1.48c-4.28.72-7.33,1.28-8.61,1.52Z"/><path class="cls-40" d="M280.11,344.27s-74,3.6-101.6,3.6c-46,0-93.88.56-93.88.56v2.32s55.73.31,92.6.31c17.93,0,100.58-3.19,100.58-3.19Z"/><path class="cls-41" d="M229.92,352a5.71,5.71,0,0,0,4.54,5.61,4.91,4.91,0,0,0,.77.1h0l.34,0a5.85,5.85,0,0,0,.59,0,5.66,5.66,0,0,0,5-5.12h0a5.44,5.44,0,0,0,0-.57,2.75,2.75,0,0,0,0-.4,5.54,5.54,0,0,0-.7-2.39,5.65,5.65,0,0,0-10.06.35A5.7,5.7,0,0,0,229.92,352Zm2.69,0a3,3,0,0,1,1.5-2.6,2.89,2.89,0,0,1,1.45-.39,3.05,3.05,0,0,1,1.29.29,3,3,0,0,1,1.67,2.7,3,3,0,1,1-5.91,0Z"/><path class="cls-41" d="M195.26,353.39a5.65,5.65,0,1,0,8.17-5.14,5.59,5.59,0,0,0-2.51-.59,5.49,5.49,0,0,0-2.55.62,5.68,5.68,0,0,0-2.44,2.41A5.8,5.8,0,0,0,195.26,353.39Zm2.69,0a3,3,0,0,1,2-2.85,3.1,3.1,0,0,1,.92-.14,2.73,2.73,0,0,1,.76.1,3,3,0,1,1-3.72,2.89Z"/><path class="cls-41" d="M153.58,353.6a5.66,5.66,0,1,0,11.32,0,5.83,5.83,0,0,0-.59-2.55,5.68,5.68,0,0,0-2.52-2.56,5.4,5.4,0,0,0-2-.59,4.93,4.93,0,0,0-.55,0,5.63,5.63,0,0,0-.58,0h0a5.6,5.6,0,0,0-2,.62,5.72,5.72,0,0,0-2.45,2.51A5.65,5.65,0,0,0,153.58,353.6Zm2.69,0a3,3,0,0,1,1.48-2.59,2.87,2.87,0,0,1,1.47-.4,2.92,2.92,0,0,1,1.49.4,3,3,0,1,1-4.44,2.59Z"/><path class="cls-41" d="M115.92,354.06a5.66,5.66,0,1,0,5.66-5.72,5.71,5.71,0,0,0-5.66,5.72Zm2.69,0a3,3,0,1,1,3,3A3,3,0,0,1,118.61,354.1Z"/><rect class="cls-42" x="197.95" y="318.12" width="15.29" height="4.13" transform="translate(411.2 640.37) rotate(180)"/><rect class="cls-43" x="198.74" y="320.18" width="6.53" height="1.36" transform="translate(404.01 641.72) rotate(180)"/><rect class="cls-43" x="198.74" y="318.42" width="6.53" height="1.36" transform="translate(404.01 638.21) rotate(180)"/><rect class="cls-43" x="206.33" y="320.18" width="6.53" height="1.36" transform="translate(419.2 641.72) rotate(180)"/><rect class="cls-43" x="206.33" y="318.42" width="6.53" height="1.36" transform="translate(419.2 638.21) rotate(180)"/><rect class="cls-42" x="178.6" y="318.12" width="15.29" height="4.13" transform="translate(372.48 640.37) rotate(180)"/><rect class="cls-43" x="179.38" y="320.18" width="6.53" height="1.36" transform="translate(365.3 641.72) rotate(180)"/><rect class="cls-43" x="179.38" y="318.42" width="6.53" height="1.36" transform="translate(365.3 638.21) rotate(180)"/><rect class="cls-43" x="186.98" y="320.18" width="6.53" height="1.36" transform="translate(380.48 641.72) rotate(180)"/><rect class="cls-43" x="186.98" y="318.42" width="6.53" height="1.36" transform="translate(380.48 638.21) rotate(180)"/><rect class="cls-42" x="159.14" y="318.12" width="15.29" height="4.13" transform="translate(333.56 640.37) rotate(180)"/><rect class="cls-43" x="159.92" y="320.18" width="6.53" height="1.36" transform="translate(326.37 641.72) rotate(180)"/><rect class="cls-43" x="159.92" y="318.42" width="6.53" height="1.36" transform="translate(326.37 638.21) rotate(180)"/><rect class="cls-43" x="167.52" y="320.18" width="6.53" height="1.36" transform="translate(341.56 641.72) rotate(180)"/><rect class="cls-43" x="167.52" y="318.42" width="6.53" height="1.36" transform="translate(341.56 638.21) rotate(180)"/><rect class="cls-42" x="139.67" y="318.12" width="15.29" height="4.13" transform="translate(294.64 640.37) rotate(180)"/><rect class="cls-43" x="140.46" y="320.18" width="6.53" height="1.36" transform="translate(287.45 641.72) rotate(180)"/><rect class="cls-43" x="140.46" y="318.42" width="6.53" height="1.36" transform="translate(287.45 638.21) rotate(180)"/><rect class="cls-43" x="148.06" y="320.18" width="6.53" height="1.36" transform="translate(302.64 641.72) rotate(180)"/><rect class="cls-43" x="148.06" y="318.42" width="6.53" height="1.36" transform="translate(302.64 638.21) rotate(180)"/><rect class="cls-42" x="119.1" y="318.42" width="15.29" height="4.13" transform="translate(253.49 640.98) rotate(180)"/><rect class="cls-43" x="119.89" y="320.49" width="6.53" height="1.36" transform="translate(246.31 642.34) rotate(180)"/><rect class="cls-43" x="119.89" y="318.73" width="6.53" height="1.36" transform="translate(246.31 638.82) rotate(180)"/><rect class="cls-43" x="127.48" y="320.49" width="6.53" height="1.36" transform="translate(261.5 642.34) rotate(180)"/><rect class="cls-43" x="127.48" y="318.73" width="6.53" height="1.36" transform="translate(261.5 638.82) rotate(180)"/><rect class="cls-44" x="112.65" y="312.58" width="107.61" height="3.91" transform="translate(332.9 629.07) rotate(180)"/><line class="cls-45" x1="111.1" y1="236.56" x2="111.1" y2="239.94"/><line class="cls-45" x1="112.31" y1="236.44" x2="112.29" y2="240.66"/><line class="cls-45" x1="112.93" y1="236.56" x2="113.08" y2="241.09"/><line class="cls-45" x1="113.81" y1="236.27" x2="113.96" y2="241.21"/><line class="cls-45" x1="114.87" y1="236.74" x2="115.12" y2="241.26"/><line class="cls-45" x1="111.53" y1="236.27" x2="111.58" y2="241.26"/><line class="cls-45" x1="115.51" y1="236.56" x2="116.04" y2="241.24"/><line class="cls-45" x1="116.32" y1="236.56" x2="116.61" y2="241.98"/><line class="cls-45" x1="116.04" y1="236.27" x2="115.78" y2="241.41"/><line class="cls-45" x1="114.26" y1="236.41" x2="114.45" y2="240.89"/><line class="cls-46" x1="110.51" y1="236.72" x2="110.58" y2="241.75"/><line class="cls-46" x1="111.3" y1="236.45" x2="111.56" y2="240.96"/><line class="cls-46" x1="112.87" y1="236.72" x2="112.87" y2="241.69"/><line class="cls-46" x1="114.38" y1="236.13" x2="114.31" y2="241.95"/><line class="cls-46" x1="115.58" y1="236.72" x2="115.3" y2="241.69"/><line class="cls-46" x1="116.63" y1="236.13" x2="116.63" y2="241.22"/><line class="cls-46" x1="113.58" y1="236.72" x2="113.58" y2="242.42"/><line class="cls-47" x1="113.39" y1="215.65" x2="113.39" y2="209.29"/><ellipse class="cls-48" cx="113.57" cy="226" rx="12.27" ry="10.12"/><path class="cls-49" d="M110.71,216.41s-3.54,4.14-3.54,9.18,3.54,10.1,3.54,10.1"/><path class="cls-49" d="M112.41,216.41A48.56,48.56,0,0,0,111.1,226a64.23,64.23,0,0,0,1.31,9.69"/><path class="cls-49" d="M110,216.41s-6.86,4.26-6.86,10,6.86,9.3,6.86,9.3"/><path class="cls-49" d="M116.43,216.41s3.54,4.14,3.54,9.18-3.54,10.1-3.54,10.1"/><path class="cls-49" d="M114.73,216.41A47.76,47.76,0,0,1,116,226a62.86,62.86,0,0,1-1.31,9.69"/><path class="cls-49" d="M117.12,216.41s6.85,4.26,6.85,10-6.85,9.3-6.85,9.3"/><rect class="cls-50" x="109.64" y="214.89" width="7.49" height="1.53"/><rect class="cls-50" x="110.03" y="235.69" width="7.1" height="1.17"/><line class="cls-45" x1="79.8" y1="213.05" x2="79.8" y2="216.44"/><line class="cls-45" x1="81.01" y1="212.93" x2="80.99" y2="217.15"/><line class="cls-45" x1="81.62" y1="213.05" x2="81.77" y2="217.58"/><line class="cls-45" x1="82.51" y1="212.77" x2="82.66" y2="217.7"/><line class="cls-45" x1="83.57" y1="213.23" x2="83.81" y2="217.75"/><line class="cls-45" x1="80.22" y1="212.77" x2="80.27" y2="217.75"/><line class="cls-45" x1="84.2" y1="213.05" x2="84.74" y2="217.73"/><line class="cls-45" x1="85.01" y1="213.05" x2="85.31" y2="218.47"/><line class="cls-45" x1="84.74" y1="212.77" x2="84.47" y2="217.9"/><line class="cls-45" x1="82.95" y1="212.91" x2="83.15" y2="217.38"/><line class="cls-46" x1="79.21" y1="213.21" x2="79.27" y2="218.24"/><line class="cls-46" x1="79.99" y1="212.94" x2="80.26" y2="217.45"/><line class="cls-46" x1="81.57" y1="213.21" x2="81.57" y2="218.18"/><line class="cls-46" x1="83.07" y1="212.62" x2="83.01" y2="218.44"/><line class="cls-46" x1="84.28" y1="213.21" x2="83.99" y2="218.18"/><line class="cls-46" x1="85.33" y1="212.62" x2="85.33" y2="217.71"/><line class="cls-46" x1="82.28" y1="213.21" x2="82.28" y2="218.91"/><line class="cls-47" x1="82.08" y1="192.14" x2="82.08" y2="185.78"/><ellipse class="cls-48" cx="82.27" cy="202.49" rx="12.27" ry="10.12"/><path class="cls-49" d="M79.4,192.91s-3.53,4.14-3.53,9.17,3.53,10.1,3.53,10.1"/><path class="cls-49" d="M81.11,192.91a47.61,47.61,0,0,0-1.31,9.58,62.86,62.86,0,0,0,1.31,9.69"/><path class="cls-49" d="M78.72,192.91s-6.85,4.25-6.85,10,6.85,9.3,6.85,9.3"/><path class="cls-49" d="M85.13,192.91s3.54,4.14,3.54,9.17-3.54,10.1-3.54,10.1"/><path class="cls-49" d="M83.43,192.91a48.41,48.41,0,0,1,1.31,9.58,64.23,64.23,0,0,1-1.31,9.69"/><path class="cls-49" d="M85.81,192.91s6.86,4.25,6.86,10-6.86,9.3-6.86,9.3"/><rect class="cls-50" x="78.34" y="191.38" width="7.49" height="1.53"/><rect class="cls-50" x="78.72" y="212.18" width="7.1" height="1.17"/><line class="cls-45" x1="148.58" y1="247.14" x2="148.58" y2="250.52"/><line class="cls-45" x1="149.79" y1="247.02" x2="149.77" y2="251.23"/><line class="cls-45" x1="150.41" y1="247.14" x2="150.55" y2="251.67"/><line class="cls-45" x1="151.29" y1="246.85" x2="151.44" y2="251.79"/><line class="cls-45" x1="152.35" y1="247.32" x2="152.59" y2="251.84"/><line class="cls-45" x1="149" y1="246.85" x2="149.05" y2="251.84"/><line class="cls-45" x1="152.99" y1="247.14" x2="153.52" y2="251.81"/><line class="cls-45" x1="153.8" y1="247.14" x2="154.09" y2="252.56"/><line class="cls-45" x1="153.52" y1="246.85" x2="153.25" y2="251.99"/><line class="cls-45" x1="151.73" y1="246.99" x2="151.93" y2="251.47"/><line class="cls-46" x1="147.99" y1="247.29" x2="148.05" y2="252.33"/><line class="cls-46" x1="148.77" y1="247.03" x2="149.04" y2="251.54"/><line class="cls-46" x1="150.35" y1="247.29" x2="150.35" y2="252.27"/><line class="cls-46" x1="151.85" y1="246.71" x2="151.79" y2="252.53"/><line class="cls-46" x1="153.06" y1="247.29" x2="152.77" y2="252.27"/><line class="cls-46" x1="154.11" y1="246.71" x2="154.11" y2="251.8"/><line class="cls-46" x1="151.06" y1="247.29" x2="151.06" y2="252.99"/><line class="cls-47" x1="150.86" y1="226.23" x2="150.86" y2="219.86"/><ellipse class="cls-48" cx="151.05" cy="236.58" rx="12.27" ry="10.12"/><path class="cls-49" d="M148.19,227s-3.54,4.14-3.54,9.18,3.54,10.1,3.54,10.1"/><path class="cls-49" d="M149.89,227a47.76,47.76,0,0,0-1.31,9.59,62.86,62.86,0,0,0,1.31,9.69"/><path class="cls-49" d="M147.5,227s-6.85,4.25-6.85,10,6.85,9.3,6.85,9.3"/><path class="cls-49" d="M153.91,227s3.54,4.14,3.54,9.18-3.54,10.1-3.54,10.1"/><path class="cls-49" d="M152.21,227a48.56,48.56,0,0,1,1.31,9.59,64.23,64.23,0,0,1-1.31,9.69"/><path class="cls-49" d="M154.59,227s6.86,4.25,6.86,10-6.86,9.3-6.86,9.3"/><rect class="cls-50" x="147.12" y="225.46" width="7.49" height="1.53"/><rect class="cls-50" x="147.5" y="246.27" width="7.1" height="1.17"/><line class="cls-45" x1="188.21" y1="251.63" x2="188.21" y2="255.01"/><line class="cls-45" x1="189.43" y1="251.5" x2="189.4" y2="255.72"/><line class="cls-45" x1="190.04" y1="251.63" x2="190.19" y2="256.15"/><line class="cls-45" x1="190.93" y1="251.34" x2="191.07" y2="256.28"/><line class="cls-45" x1="191.98" y1="251.8" x2="192.23" y2="256.33"/><line class="cls-45" x1="188.64" y1="251.34" x2="188.69" y2="256.33"/><line class="cls-45" x1="192.62" y1="251.63" x2="193.16" y2="256.3"/><line class="cls-45" x1="193.43" y1="251.63" x2="193.73" y2="257.05"/><line class="cls-45" x1="193.16" y1="251.34" x2="192.89" y2="256.48"/><line class="cls-45" x1="191.37" y1="251.48" x2="191.57" y2="255.95"/><line class="cls-46" x1="187.63" y1="251.78" x2="187.69" y2="256.82"/><line class="cls-46" x1="188.41" y1="251.52" x2="188.67" y2="256.02"/><line class="cls-46" x1="189.98" y1="251.78" x2="189.98" y2="256.75"/><line class="cls-46" x1="191.49" y1="251.19" x2="191.43" y2="257.02"/><line class="cls-46" x1="192.7" y1="251.78" x2="192.41" y2="256.75"/><line class="cls-46" x1="193.74" y1="251.19" x2="193.74" y2="256.29"/><line class="cls-46" x1="190.7" y1="251.78" x2="190.7" y2="257.48"/><line class="cls-47" x1="190.5" y1="230.72" x2="190.5" y2="224.35"/><ellipse class="cls-48" cx="190.68" cy="241.06" rx="12.27" ry="10.12"/><path class="cls-49" d="M187.82,231.48s-3.54,4.14-3.54,9.18,3.54,10.09,3.54,10.09"/><path class="cls-49" d="M189.53,231.48a47.61,47.61,0,0,0-1.31,9.58,62.65,62.65,0,0,0,1.31,9.69"/><path class="cls-49" d="M187.14,231.48s-6.85,4.25-6.85,10,6.85,9.3,6.85,9.3"/><path class="cls-49" d="M193.55,231.48s3.54,4.14,3.54,9.18-3.54,10.09-3.54,10.09"/><path class="cls-49" d="M191.84,231.48a47.61,47.61,0,0,1,1.31,9.58,62.65,62.65,0,0,1-1.31,9.69"/><path class="cls-49" d="M194.23,231.48s6.85,4.25,6.85,10-6.85,9.3-6.85,9.3"/><rect class="cls-50" x="186.76" y="229.95" width="7.49" height="1.53"/><rect class="cls-50" x="187.14" y="250.75" width="7.1" height="1.17"/><line class="cls-45" x1="227.19" y1="250.43" x2="227.19" y2="253.81"/><line class="cls-45" x1="228.41" y1="250.3" x2="228.38" y2="254.52"/><line class="cls-45" x1="229.02" y1="250.43" x2="229.17" y2="254.95"/><line class="cls-45" x1="229.91" y1="250.14" x2="230.06" y2="255.08"/><line class="cls-45" x1="230.96" y1="250.6" x2="231.21" y2="255.13"/><line class="cls-45" x1="227.62" y1="250.14" x2="227.67" y2="255.13"/><line class="cls-45" x1="231.6" y1="250.43" x2="232.14" y2="255.1"/><line class="cls-45" x1="232.41" y1="250.43" x2="232.71" y2="255.85"/><line class="cls-45" x1="232.14" y1="250.14" x2="231.87" y2="255.27"/><line class="cls-45" x1="230.35" y1="250.28" x2="230.55" y2="254.75"/><line class="cls-46" x1="226.61" y1="250.58" x2="226.67" y2="255.62"/><line class="cls-46" x1="227.39" y1="250.31" x2="227.66" y2="254.82"/><line class="cls-46" x1="228.97" y1="250.58" x2="228.97" y2="255.55"/><line class="cls-46" x1="230.47" y1="249.99" x2="230.41" y2="255.82"/><line class="cls-46" x1="231.68" y1="250.58" x2="231.39" y2="255.55"/><line class="cls-46" x1="232.73" y1="249.99" x2="232.73" y2="255.09"/><line class="cls-46" x1="229.68" y1="250.58" x2="229.68" y2="256.28"/><line class="cls-47" x1="229.48" y1="229.51" x2="229.48" y2="223.15"/><ellipse class="cls-48" cx="229.67" cy="239.86" rx="12.27" ry="10.12"/><path class="cls-49" d="M226.8,230.28s-3.53,4.14-3.53,9.18,3.53,10.09,3.53,10.09"/><path class="cls-49" d="M228.51,230.28a47.61,47.61,0,0,0-1.31,9.58,62.65,62.65,0,0,0,1.31,9.69"/><path class="cls-49" d="M226.12,230.28s-6.85,4.25-6.85,10,6.85,9.3,6.85,9.3"/><path class="cls-49" d="M232.53,230.28s3.54,4.14,3.54,9.18-3.54,10.09-3.54,10.09"/><path class="cls-49" d="M230.83,230.28a48.41,48.41,0,0,1,1.31,9.58,64,64,0,0,1-1.31,9.69"/><path class="cls-49" d="M233.21,230.28s6.85,4.25,6.85,10-6.85,9.3-6.85,9.3"/><rect class="cls-50" x="225.74" y="228.75" width="7.49" height="1.53"/><rect class="cls-50" x="226.12" y="249.55" width="7.1" height="1.17"/><g id="Singapore_Flag" data-name="Singapore Flag"><path class="cls-51" d="M150.12,310.64v19.89h-115V310.64A14.61,14.61,0,0,1,49.73,296h85.78A14.61,14.61,0,0,1,150.12,310.64Z"/><path class="cls-52" d="M150.12,330.53v19.88A14.61,14.61,0,0,1,135.51,365H49.73a14.61,14.61,0,0,1-14.61-14.61V330.53Z"/><path class="cls-52" d="M60.87,324.73a11.17,11.17,0,0,1-2.4.25,11.71,11.71,0,0,1,0-23.41,11.23,11.23,0,0,1,2.61.3,11.75,11.75,0,0,0-.21,22.86Z"/><polygon class="cls-52" points="64.72 304 65.48 305.53 67.18 305.78 65.95 306.98 66.24 308.66 64.72 307.87 63.21 308.66 63.5 306.98 62.27 305.78 63.97 305.53 64.72 304"/><polygon class="cls-52" points="68.58 316.04 69.34 317.57 71.03 317.82 69.81 319.02 70.09 320.7 68.58 319.91 67.06 320.7 67.35 319.02 66.13 317.82 67.82 317.57 68.58 316.04"/><polygon class="cls-52" points="71.03 308.64 71.79 310.18 73.48 310.42 72.26 311.62 72.55 313.31 71.03 312.51 69.52 313.31 69.81 311.62 68.58 310.42 70.27 310.18 71.03 308.64"/><polygon class="cls-52" points="60.64 316.04 61.4 317.57 63.09 317.82 61.87 319.02 62.16 320.7 60.64 319.91 59.13 320.7 59.42 319.02 58.19 317.82 59.88 317.57 60.64 316.04"/><polygon class="cls-52" points="58.42 308.64 59.18 310.18 60.88 310.42 59.65 311.62 59.94 313.31 58.42 312.51 56.91 313.31 57.2 311.62 55.97 310.42 57.67 310.18 58.42 308.64"/></g><ellipse class="cls-53" cx="61.37" cy="156.82" rx="6.19" ry="6.27"/><ellipse class="cls-54" cx="67.15" cy="165.1" rx="8.18" ry="8.28"/><line class="cls-55" x1="58.67" y1="274.48" x2="58.67" y2="293.16"/><line class="cls-55" x1="57.89" y1="274.48" x2="57.89" y2="293.16"/><line class="cls-55" x1="54" y1="275.53" x2="63.24" y2="291.71"/><line class="cls-55" x1="53.32" y1="275.93" x2="62.56" y2="292.11"/><line class="cls-55" x1="50.48" y1="278.8" x2="66.47" y2="288.15"/><line class="cls-55" x1="50.08" y1="279.49" x2="66.08" y2="288.84"/><line class="cls-55" x1="49.04" y1="283.42" x2="67.51" y2="283.42"/><line class="cls-55" x1="49.04" y1="284.22" x2="67.51" y2="284.22"/><line class="cls-55" x1="50.08" y1="288.15" x2="66.08" y2="278.8"/><line class="cls-55" x1="50.48" y1="288.84" x2="66.47" y2="279.49"/><line class="cls-55" x1="53.32" y1="291.71" x2="62.56" y2="275.53"/><line class="cls-55" x1="54" y1="292.11" x2="63.24" y2="275.93"/><path class="cls-56" d="M58.28,271.84a12,12,0,1,0,11.84,12A11.91,11.91,0,0,0,58.28,271.84Zm0,21.56a9.59,9.59,0,1,1,9.47-9.58A9.53,9.53,0,0,1,58.28,293.4Z"/><path class="cls-57" d="M58.28,274.71a9.11,9.11,0,1,1-9,9.11,9.06,9.06,0,0,1,9-9.11m0-1a10.11,10.11,0,1,0,10,10.11,10.07,10.07,0,0,0-10-10.11Z"/><ellipse class="cls-58" cx="58.28" cy="283.82" rx="1.19" ry="1.21"/><rect class="cls-59" x="87.91" y="257.75" width="13.22" height="13.37"/><rect class="cls-60" x="90.51" y="260.87" width="10.61" height="10.33"/><rect class="cls-61" x="93.42" y="268.86" width="4.21" height="1.27"/><rect class="cls-62" x="90.12" y="248.53" width="9.36" height="13.75"/><ellipse class="cls-63" cx="97.7" cy="251.14" rx="1.19" ry="1.29" transform="matrix(0.04, -1, 1, 0.04, -157.42, 337.93)"/><ellipse class="cls-64" cx="97.45" cy="252.52" rx="1.19" ry="1.29" transform="translate(-159.03 338.99) rotate(-87.53)"/><ellipse class="cls-65" cx="97.26" cy="253.97" rx="1.19" ry="1.29" transform="translate(-160.67 340.19) rotate(-87.53)"/><polygon class="cls-66" points="95.94 254.31 98.48 254.38 96.72 261.33 95.94 254.31"/><path class="cls-67" d="M95.5,254.84a2.2,2.2,0,0,1-4.37.07c0-1.09.91-2.62,2.12-2.64S95.49,253.75,95.5,254.84Z"/><path class="cls-68" d="M95.58,256.75a2.27,2.27,0,0,1-4.39.07,2.2,2.2,0,0,1,4.39-.07Z"/><polygon class="cls-69" points="91.31 257.38 95.53 257.2 94.46 260.07 92.03 260.21 91.31 257.38"/><path class="cls-68" d="M91.74,257.83c.22,0,.33-.18.62-.16s.22.11.44.16c.4.08.51-.23.94-.21s.66.27,1,.23a1.18,1.18,0,0,0,.62-.18.47.47,0,0,0,.17-.51c0-.4-4.2-.52-4.33.14C91.16,257.49,91.49,257.8,91.74,257.83Z"/><path class="cls-67" d="M91.33,255.7a.84.84,0,0,0,1,.52c.17-.08.16-.22.35-.29s.54.24,1,.15c.21,0,.18-.14.38-.17.37,0,.57.3.86.21a1.21,1.21,0,0,0,.41-.35l-.46-1.65-2.62-.05-.87,1.58"/><rect class="cls-70" x="76.45" y="250.19" width="14.11" height="20.55"/><polygon class="cls-71" points="82.86 252.69 80.81 253.66 76.45 251.85 76.45 251.75 78.38 251.27 82.86 252.69"/><polygon class="cls-72" points="82.63 250.82 82.63 252.72 80.81 253.44 76.45 251.75 76.45 250.19 82.63 250.82"/><polygon class="cls-71" points="76.45 250.19 80.81 251.75 82.86 250.71 80.02 250.19 76.45 250.19"/><polygon class="cls-71" points="82.22 257.6 80.37 258.58 76.45 256.75 76.45 256.64 78.19 256.16 82.22 257.6"/><polygon class="cls-73" points="82.01 255.71 82.01 257.63 80.37 258.36 76.45 256.65 76.45 255.07 82.01 255.71"/><polygon class="cls-71" points="76.45 255.07 80.37 256.65 82.22 255.6 76.45 253.44 76.45 255.07"/><polygon class="cls-71" points="82.22 262.71 80.37 263.69 76.45 261.86 76.45 261.76 78.19 261.27 82.22 262.71"/><polygon class="cls-74" points="82.02 260.83 82.02 262.75 80.37 263.47 76.45 261.76 76.45 260.18 82.02 260.83"/><polygon class="cls-71" points="76.45 260.18 80.37 261.76 82.22 260.71 76.45 258.55 76.45 260.18"/><polygon class="cls-71" points="82.22 268.64 80.37 269.62 76.45 267.79 76.45 267.68 78.19 267.2 82.22 268.64"/><polygon class="cls-75" points="82.01 266.75 82.01 268.67 80.37 269.39 76.45 267.69 76.45 266.11 82.01 266.75"/><polygon class="cls-71" points="76.45 266.11 80.37 267.69 82.22 266.63 76.45 264.48 76.45 266.11"/><polygon class="cls-71" points="84.15 252.69 86.2 253.66 90.56 251.85 90.56 251.75 88.63 251.27 84.15 252.69"/><polygon class="cls-76" points="84.38 250.82 84.38 252.72 86.2 253.44 90.56 251.75 90.56 250.19 84.38 250.82"/><polygon class="cls-71" points="90.56 250.19 86.2 251.75 84.15 250.71 86.99 250.19 90.56 250.19"/><polygon class="cls-71" points="84.79 257.6 86.64 258.58 90.56 256.75 90.56 256.64 88.82 256.16 84.79 257.6"/><polygon class="cls-77" points="85 255.71 85 257.63 86.64 258.36 90.56 256.65 90.56 255.07 85 255.71"/><polygon class="cls-71" points="90.56 255.07 86.64 256.65 84.79 255.6 90.56 253.44 90.56 255.07"/><polygon class="cls-71" points="84.79 262.71 86.64 263.69 90.56 261.86 90.56 261.76 88.82 261.27 84.79 262.71"/><polygon class="cls-78" points="84.99 260.83 84.99 262.75 86.64 263.47 90.56 261.76 90.56 260.18 84.99 260.83"/><polygon class="cls-71" points="90.56 260.18 86.64 261.76 84.79 260.71 90.56 258.55 90.56 260.18"/><polygon class="cls-71" points="84.79 268.64 86.64 269.62 90.56 267.79 90.56 267.68 88.82 267.2 84.79 268.64"/><polygon class="cls-79" points="85 266.75 85 268.67 86.64 269.39 90.56 267.69 90.56 266.11 85 266.75"/><polygon class="cls-71" points="90.56 266.11 86.64 267.69 84.79 266.63 90.56 264.48 90.56 266.11"/><rect class="cls-80" x="60.56" y="258.66" width="1.61" height="13.17"/><rect class="cls-81" x="61.02" y="255.4" width="5.14" height="9.71"/><rect class="cls-82" x="61.02" y="262.37" width="14.72" height="5.49"/><rect class="cls-60" x="44.76" y="258.66" width="15.93" height="12.91"/><path class="cls-83" d="M52.57,263.81s2-1.13,2.8-.46,0,4.45-2.34,4.52-4.22-1.1-4.5-2.37.07-2.47,1.6-2.36A5.57,5.57,0,0,1,52.57,263.81Z"/><path class="cls-83" d="M52.54,265.59s.83-.95,1.6-.7S54,267.68,53,267.71s-3.56-1.73-2.86-2.5S52.54,265.59,52.54,265.59Z"/><rect class="cls-84" x="47.01" y="271.57" width="16.04" height="14.44"/><path class="cls-61" d="M63.05,271.57V286H55.33a1.06,1.06,0,0,0,.17-.89c-.53-1.27-1.48-.68-2.44-1.06s-3-2.17-2.85-4.36,4.1-3.89,4-5.43c0-.85-1-1.92-1.77-2.7Z"/><rect class="cls-85" x="63.05" y="276.85" width="10.46" height="7.91"/><rect class="cls-86" x="85.7" y="270.92" width="16.48" height="13.29"/><path class="cls-61" d="M98.29,284.21H85.7v-8.79c2-.33,4.26-1.22,6.16,2.14,2.3,4.08,3.62,2.85,5.87,5.47A2.43,2.43,0,0,1,98.29,284.21Z"/><rect class="cls-82" x="73.51" y="270.91" width="12.19" height="13.3"/><rect class="cls-87" x="75.73" y="221.28" width="1.3" height="47.07"/><rect class="cls-88" x="75.43" y="268.35" width="2.07" height="15.86"/><path class="cls-89" d="M61,265.86S63.2,267,68.83,267s6.9-1.16,6.9-1.16v15.35a17.55,17.55,0,0,1-7.36,1.4A16.33,16.33,0,0,1,61,281.09Z"/><path class="cls-90" d="M69.16,270.66s3-1.73,4.26-.7-.06,6.78-3.57,6.89-6.44-1.67-6.86-3.61.1-3.77,2.45-3.61A8.76,8.76,0,0,1,69.16,270.66Z"/><path class="cls-91" d="M61,265.86H75.73S74.47,267,68.83,267,61,265.86,61,265.86Z"/><path class="cls-90" d="M69.1,273.38s1.28-1.45,2.45-1.08-.26,4.26-1.75,4.31-5.43-2.64-4.37-3.82S69.1,273.38,69.1,273.38Z"/><rect class="cls-61" x="64.28" y="278.19" width="8.68" height="1.83"/><line class="cls-55" x1="91.34" y1="274.47" x2="91.34" y2="293.16"/><line class="cls-55" x1="90.56" y1="274.47" x2="90.56" y2="293.16"/><line class="cls-55" x1="86.67" y1="275.53" x2="95.91" y2="291.71"/><line class="cls-55" x1="85.99" y1="275.92" x2="95.23" y2="292.11"/><line class="cls-55" x1="83.15" y1="278.8" x2="99.14" y2="288.14"/><line class="cls-55" x1="82.75" y1="279.49" x2="98.75" y2="288.83"/><line class="cls-55" x1="81.71" y1="283.42" x2="100.18" y2="283.42"/><line class="cls-55" x1="81.71" y1="284.21" x2="100.18" y2="284.21"/><line class="cls-55" x1="82.75" y1="288.14" x2="98.75" y2="278.8"/><line class="cls-55" x1="83.15" y1="288.83" x2="99.14" y2="279.49"/><line class="cls-55" x1="85.99" y1="291.71" x2="95.23" y2="275.53"/><line class="cls-55" x1="86.67" y1="292.11" x2="95.91" y2="275.92"/><path class="cls-56" d="M91,271.83a12,12,0,1,0,11.84,12A11.92,11.92,0,0,0,91,271.83Zm0,21.57a9.59,9.59,0,1,1,9.47-9.58A9.53,9.53,0,0,1,91,293.4Z"/><path class="cls-57" d="M91,274.71a9.11,9.11,0,1,1-9,9.11,9.06,9.06,0,0,1,9-9.11m0-1a10.11,10.11,0,1,0,10,10.11,10.06,10.06,0,0,0-10-10.11Z"/><ellipse class="cls-58" cx="90.95" cy="283.82" rx="1.19" ry="1.21"/><path class="cls-92" d="M105.36,284.18H103.2c-.19-7.16-5.72-12.86-12.43-12.77s-11.92,5.76-12.07,12.77H76.54c.15-8.27,6.4-15,14.2-15.09S105.17,275.73,105.36,284.18Z"/><rect class="cls-82" x="63.05" y="284.76" width="10.46" height="0.88"/><rect class="cls-61" x="49.13" y="268.65" width="6.32" height="1.59"/><rect class="cls-93" x="66.98" y="254.59" width="0.47" height="2.15"/><rect class="cls-94" x="66.15" y="254.71" width="0.54" height="7.67"/><rect class="cls-95" x="66.69" y="255.4" width="0.57" height="6.97"/><rect class="cls-96" x="67.26" y="254.2" width="0.49" height="8.17"/><rect class="cls-94" x="67.56" y="255.01" width="0.44" height="7.37"/><rect class="cls-93" x="67.68" y="254.59" width="0.47" height="2.15"/><rect class="cls-95" x="67.39" y="255.4" width="0.57" height="6.97"/><rect class="cls-96" x="67.97" y="254.2" width="0.49" height="8.17"/><rect class="cls-94" x="67.28" y="254.92" width="0.44" height="7.37"/><rect class="cls-94" x="68.18" y="254.71" width="0.54" height="7.67"/><rect class="cls-97" x="66.15" y="257.34" width="9.58" height="5.03"/><line class="cls-97" x1="66.15" y1="261.12" x2="75.73" y2="261.12"/><line class="cls-97" x1="66.15" y1="259.86" x2="75.73" y2="259.86"/><line class="cls-97" x1="66.15" y1="258.6" x2="75.73" y2="258.6"/><line class="cls-97" x1="74.14" y1="257.34" x2="74.14" y2="262.37"/><line class="cls-97" x1="72.54" y1="257.34" x2="72.54" y2="262.37"/><line class="cls-97" x1="70.94" y1="257.34" x2="70.94" y2="262.37"/><line class="cls-97" x1="69.34" y1="262.37" x2="69.34" y2="257.34"/><line class="cls-97" x1="67.75" y1="257.34" x2="67.75" y2="262.37"/><path class="cls-98" d="M38.38,233.78h76L99.54,222s-11-6.16-23.16-6.16-24,6.51-24,6.51Z"/><polygon class="cls-99" points="88.03 233.78 85.77 238.09 65.3 238.09 63.34 233.78 88.03 233.78"/><polygon class="cls-98" points="38.38 233.78 63.34 233.78 60.39 238.09 39.2 238.09 38.38 233.78"/><polygon class="cls-98" points="114.39 233.78 113.02 238.09 89.61 238.09 88.03 233.78 114.39 233.78"/><polygon class="cls-99" points="76.38 215.87 67.38 224.01 63.34 233.78 88.03 233.78 86.46 224.17 76.38 215.87"/></g></g></svg>