<svg id="Layer_1" data-name="Layer 1" xmlns="http://www.w3.org/2000/svg" xmlns:xlink="http://www.w3.org/1999/xlink" viewBox="0 0 400 400"><defs><style>.cls-1,.cls-5,.cls-6,.cls-7,.cls-8{fill:none;}.cls-2{clip-path:url(#clip-path);}.cls-3{fill:#b3defe;}.cls-4{fill:#006994;}.cls-5,.cls-6,.cls-7,.cls-8{stroke:#191817;stroke-linejoin:bevel;}.cls-5{stroke-width:0.75px;}.cls-6{stroke-width:0.5px;}.cls-7{stroke-width:2px;}.cls-9{fill:#34271b;}.cls-10{fill:#aa6d35;}.cls-11{fill:#ce9257;}.cls-12{fill:#bf8660;}.cls-13{fill:#a56b41;}.cls-14{fill:#dbab7f;}.cls-15{fill:#302210;}.cls-16{fill:#ba7d47;}.cls-17{fill:#231705;}.cls-18{fill:#9b7046;}.cls-19{fill:#110f0d;}.cls-20{fill:#cec8bc;}.cls-21{fill:#d8d2c7;}.cls-22{fill:#161310;}.cls-23{fill:#b7b3ac;}.cls-24{fill:#cecac0;}.cls-25{fill:#c4beb5;}.cls-26{fill:#eae4d5;}.cls-27{fill:#593116;}.cls-28{fill:#231304;}.cls-29{fill:#9f826b;}.cls-30{fill:#040307;}.cls-31{fill:#8b8066;}.cls-32{fill:#b4987f;}.cls-33{fill:#99806e;}.cls-34{fill:#b79d83;}.cls-35{fill:#29190d;}.cls-36{fill:#998371;}.cls-37{fill:#bfac93;}.cls-38{fill:#91806b;}.cls-39{fill:#877163;}.cls-40{fill:#120407;}.cls-41{fill:#e4eff2;}</style><clipPath id="clip-path"><circle class="cls-1" cx="200" cy="200" r="150"/></clipPath></defs><g id="Aus"><g class="cls-2"><polygon class="cls-3" points="20.85 217.5 385.59 217.76 359.09 42.88 36.73 37.45 20.85 217.5"/><polygon class="cls-4" points="50 200 389.15 200 287.85 358.37 86.08 358.37 24.41 199.74 50 200"/><line class="cls-5" x1="314.08" y1="193.37" x2="377.5" y2="193.37"/><polyline class="cls-6" points="314.08 191.28 316.48 187.02 320.89 193.37 325.48 186.65 330.23 193.37 334.93 186.65 339.23 193.37 343.66 186.65 347.63 193.37 351.95 186.65 354.7 191.22 355.92 193.37 360.15 186.74 363.49 193.37"/><line class="cls-7" x1="376.27" y1="186.74" x2="30.78" y2="186.74"/><line class="cls-5" x1="30.78" y1="193.74" x2="71.39" y2="193.74"/><polyline class="cls-6" points="30.78 191.65 33.17 187.38 37.59 193.74 42.18 187.01 46.92 193.74 51.63 187.01 55.93 193.74 60.35 187.01 64.33 193.74 68.64 187.01 71.39 191.59"/><path class="cls-8" d="M298.83,207.66s-55.15-52.14-108.6-52.14S86.08,207.66,86.08,207.66"/><path class="cls-8" d="M86.08,178.79s48.16-31.62,105.42-31.62,107.33,31.62,107.33,31.62"/><polyline class="cls-5" points="86.87 206.87 86.87 178.28 97.06 197.6 97.06 172.47 106.36 190.06 106.36 167.82 116.59 182.63 116.59 163.28 125.04 177.12 125.04 159.96 134.04 171.88 134.04 156.83 142.53 167.54 142.53 154.26 151.25 163.73 151.25 152.02 158.9 160.93 158.9 150.39 167.53 158.43 167.53 148.94 175.24 156.82 175.24 148 183.36 155.51 183.36 147.38 190.23 155.51"/><polyline class="cls-5" points="295.19 204.91 295.19 176.64 285 195.64 285 171.15 275.69 189.09 275.69 166.97 265.48 181.59 265.48 162.91 257.02 177.12 257.02 159.58 248.03 171.88 248.03 156.47 239.53 167.54 239.53 153.91 230.81 163.73 230.81 152.02 223.16 160.93 223.16 150.39 214.53 158.43 214.53 148.94 206.82 156.82 206.82 148 198.7 155.51 198.7 147.34 191.83 155.51"/><line class="cls-5" x1="191.18" y1="186.3" x2="191.18" y2="147.18"/><line class="cls-5" x1="183.36" y1="155.22" x2="183.36" y2="186.3"/><line class="cls-5" x1="175.24" y1="156.47" x2="175.24" y2="186.3"/><line class="cls-5" x1="158.9" y1="160.44" x2="158.9" y2="186.3"/><line class="cls-5" x1="167.53" y1="158.03" x2="167.53" y2="186.3"/><line class="cls-5" x1="151.25" y1="163.14" x2="151.25" y2="186.3"/><line class="cls-5" x1="142.53" y1="166.82" x2="142.53" y2="186.3"/><line class="cls-5" x1="134.04" y1="171" x2="134.04" y2="186.3"/><line class="cls-5" x1="125.04" y1="176.05" x2="125.04" y2="186.3"/><line class="cls-5" x1="116.59" y1="181.37" x2="116.59" y2="186.3"/><line class="cls-5" x1="198.7" y1="155.22" x2="198.7" y2="186.3"/><line class="cls-5" x1="206.82" y1="156.47" x2="206.82" y2="186.3"/><line class="cls-5" x1="214.53" y1="158.03" x2="214.53" y2="186.3"/><line class="cls-5" x1="223.16" y1="160.44" x2="223.16" y2="186.3"/><line class="cls-5" x1="230.81" y1="163.14" x2="230.81" y2="186.3"/><line class="cls-5" x1="239.53" y1="166.82" x2="239.53" y2="186.3"/><line class="cls-5" x1="248.02" y1="171" x2="248.02" y2="186.3"/><line class="cls-5" x1="257.02" y1="176.05" x2="257.02" y2="186.3"/><line class="cls-5" x1="265.47" y1="180.37" x2="265.47" y2="186.3"/><rect class="cls-9" x="84.23" y="177.15" width="3.07" height="3.95"/><rect class="cls-9" x="85.19" y="205.1" width="3.16" height="4"/><rect class="cls-10" x="70.36" y="204.17" width="14.83" height="5.27"/><path class="cls-11" d="M84.23,173.49v30.68H71.32V173.49a12.4,12.4,0,0,0,.56-2.34,18.93,18.93,0,0,0,0-2.14,1,1,0,0,1,.6-.2h10.6a1.05,1.05,0,0,1,.6.2,12.26,12.26,0,0,0,.09,2.14C83.9,172.1,84.23,173.49,84.23,173.49Z"/><path class="cls-12" d="M72.25,168.82v-1.73a.85.85,0,0,1,.8-.9h9.46a.85.85,0,0,1,.79.9v1.73Z"/><path class="cls-13" d="M73.63,166.19l1.3-3.49a.7.7,0,0,1,.64-.5H80a.69.69,0,0,1,.64.51l1.3,3.48Z"/><polygon class="cls-14" points="80.86 187.01 74.69 187.01 74.69 185.39 76.25 185.39 80.86 185.39 80.86 187.01"/><path class="cls-15" d="M79.63,185.39H75.92c0-2.89.83-5.22,1.86-5.22S79.63,182.5,79.63,185.39Z"/><path class="cls-16" d="M84.23,173.49H71.32a12.4,12.4,0,0,0,.56-2.34,18.93,18.93,0,0,0,0-2.14v-.2h11.8v.2a12.26,12.26,0,0,0,.09,2.14C83.9,172.1,84.23,173.49,84.23,173.49Z"/><rect class="cls-17" x="31.13" y="208.96" width="63.79" height="2.9"/><rect class="cls-9" x="298.53" y="177.15" width="3.07" height="3.95" transform="translate(600.14 358.25) rotate(-180)"/><rect class="cls-9" x="297.48" y="205.1" width="3.16" height="4" transform="translate(598.13 414.2) rotate(-180)"/><rect class="cls-18" x="300.65" y="204.17" width="14.83" height="5.27"/><path class="cls-11" d="M301.61,173.49v30.68h12.91V173.49a12.4,12.4,0,0,1-.56-2.34,18.93,18.93,0,0,1,0-2.14,1,1,0,0,0-.61-.2H302.76a1.05,1.05,0,0,0-.6.2,11.51,11.51,0,0,1-.1,2.14C301.93,172.1,301.61,173.49,301.61,173.49Z"/><path class="cls-12" d="M313.58,168.82v-1.73a.85.85,0,0,0-.79-.9h-9.46a.85.85,0,0,0-.8.9v1.73Z"/><path class="cls-13" d="M312.2,166.19l-1.29-3.49a.71.71,0,0,0-.65-.5h-4.4a.7.7,0,0,0-.65.51l-1.29,3.48Z"/><polygon class="cls-14" points="304.97 187.01 311.15 187.01 311.15 185.39 309.59 185.39 304.97 185.39 304.97 187.01"/><path class="cls-15" d="M306.21,185.39h3.7c0-2.89-.82-5.22-1.86-5.22S306.21,182.5,306.21,185.39Z"/><path class="cls-16" d="M301.61,173.49h12.91a12.4,12.4,0,0,1-.56-2.34,18.93,18.93,0,0,1,0-2.14v-.2h-11.8v.2a11.51,11.51,0,0,1-.1,2.14C301.93,172.1,301.61,173.49,301.61,173.49Z"/><rect class="cls-17" x="290.92" y="208.96" width="63.79" height="2.9" transform="translate(645.62 420.83) rotate(-180)"/><polyline class="cls-6" points="363.49 193.37 367.44 186.65 370.51 193.37 374.47 186.65"/><polygon class="cls-19" points="336.16 184.86 315.95 231.05 310.75 231.05 336.16 184.86"/><path class="cls-20" d="M336.16,184.86l-24,46.08-3,.07-1.5,0L274.84,198a32.14,32.14,0,0,1,3.37-2.92,34.4,34.4,0,0,1,5.57-3.5A81.14,81.14,0,0,1,310,183.77C322.12,182.3,336.16,184.86,336.16,184.86Z"/><path class="cls-21" d="M345.07,210.73l-11.34,19.76-.32.56-3-.56s-6.56-13.16-8.45-16.53-5.92-9.85-5.92-9.85a115.19,115.19,0,0,1,16.45,2.57c4.74,1.27,9.23,2.82,11.34,3.59l1.24.45Z"/><path class="cls-22" d="M137.06,225.67l-3.62-4.13s11.6-4.82,16.41-5.73a51.81,51.81,0,0,1,8-1l.73,9.19-9.74,3.64Z"/><path class="cls-22" d="M396.27,201.93s-7.07,7.15-9.59,10.11a91.21,91.21,0,0,0-5.71,7.9l-20.38,15.48,3.49-15.48Z"/><path class="cls-21" d="M345.08,210.73s11.84-4.37,15.57-5.22,11.45-3.3,20.87-3.78a92.21,92.21,0,0,1,14.75.2s-13.21,9.27-20.23,15.4-17.65,21-17.65,21L349.53,236Z"/><path class="cls-23" d="M356.69,237.8s-6.8-18-7.11-19.33-2.16-8.6-2.16-8.6l-2.34.86,6.78,23.05,4.13,4Z"/><path class="cls-23" d="M345.07,210.73l-10.85,20-.35-.1-.18-.07s4.67-10.16,5.55-12a64.1,64.1,0,0,1,4.57-8.21l1.24.45Z"/><path class="cls-24" d="M333.55,230.55s3.87-8,4.76-9.48a110.43,110.43,0,0,1,6.77-10.34s3.11,10,4.63,13.51c3.2,7.46,6.63,13.56,6.63,13.56l-23.43-3.27Z"/><path class="cls-25" d="M309.19,231.05h-1.54L274.84,198a32.14,32.14,0,0,1,3.37-2.92l30.94,36Z"/><path class="cls-24" d="M274.84,198l19.94,18.48c3.7,3.42,12.86,14.6,12.86,14.6L269.4,232Z"/><polygon class="cls-24" points="274.84 197.96 231.65 232.84 269.4 231.96 274.84 197.96"/><polygon class="cls-25" points="272.82 194.29 274.84 197.96 231.56 234.12 227.33 233.01 272.82 194.29"/><polygon class="cls-26" points="224.28 233.01 218.41 196.69 215.69 213.25 221.44 233.7 224.28 233.01"/><path class="cls-24" d="M223.35,233a46.5,46.5,0,0,1-5.4-18.9,93.43,93.43,0,0,1,.46-17.43l-3-14-26.45,37.83L188,234.25Z"/><path class="cls-25" d="M214.37,179l1.32,4.92s-8.15,12.39-10.31,15.71-11.56,20.79-11.56,20.79L192.16,222l6.4-29.27Z"/><polygon class="cls-27" points="189.32 229.09 193.3 220 217.8 223.3 222.06 234.51 189.32 229.09"/><polygon class="cls-26" points="187.44 229.14 184.04 204.75 176.93 204.55 181.53 228.7 187.44 229.14"/><path class="cls-24" d="M186.44,229.3s-3.33-7.22-3.3-14.13c0-7.92.9-10.42.9-10.42l-1.89-12.55L163,205.45l-4.47,16.09Z"/><polygon class="cls-27" points="158.93 221.6 162.88 214.85 180.28 218.62 184.56 228.36 158.93 221.6"/><polygon class="cls-28" points="160.95 221.5 163.75 215.81 179.33 219.33 181.9 226.98 181.9 230.31 161.92 227.74 160.95 221.5"/><polygon class="cls-28" points="191.38 229.06 194.66 221.21 215.49 223.88 218.54 232.87 219.02 236.39 200.66 235.27 191.38 229.06"/><path class="cls-28" d="M232.91,232.81l14.81-11.61s8.67,1.53,12.67,2.81,8.34,2.85,8.34,2.85v5.65l1,3.45-37.13-.88Z"/><path class="cls-28" d="M271.62,232v-5.77s9.46-2.25,15-2.57,11.94,0,11.94,0a39.89,39.89,0,0,1,3.85,4.07,18.57,18.57,0,0,1,1.85,3.55v2.88l-32.32-.56Z"/><path class="cls-28" d="M334.09,230.6l2.47-4.67h12.83s1.09,2.2,2.54,5.65c.76,1.82,1.8,5.32,1.8,5.32l-14.4,1.39Z"/><polygon class="cls-22" points="372.51 223.03 382.95 223.03 398.09 230.79 395.42 235.42 360.59 235.42 372.51 223.03"/><polygon class="cls-22" points="382.92 223.03 382.92 213.59 372.49 223.03 382.92 223.03"/><polygon class="cls-22" points="325.67 220.68 331.53 231.59 320.26 231.59 316.43 227.22 325.67 220.68"/><rect class="cls-29" x="358.39" y="235.42" width="51.47" height="2.91"/><polygon class="cls-30" points="358.39 240.16 409.49 239.53 423.22 243.75 423.22 253.61 358.39 253.61 358.39 240.16"/><polygon class="cls-31" points="358.39 238.34 409.85 238.34 423.22 242.65 423.22 244.65 409.85 240.47 358.39 240.47 358.39 238.34"/><polygon class="cls-32" points="137.06 233.22 137.06 225.67 149.55 225.67 157.26 221.54 165.43 221.54 187.44 229.14 200.9 229.14 215.45 233.22 333.55 230.43 343.85 234.29 345.69 234.29 358.39 238.34 358.39 253.61 137.06 252.88 137.06 233.22"/><polygon class="cls-33" points="132.15 239.92 132.15 231.98 135.08 231.98 153.14 243.23 155.41 243.23 165.43 248.24 165.43 250.72 132.15 250.72 132.15 239.92"/><rect class="cls-34" x="127.36" y="239.21" width="19.4" height="11.51"/><rect class="cls-35" x="175.27" y="237.58" width="11.34" height="1.09"/><polygon class="cls-35" points="216.67 237.06 265.33 236.12 265.33 237.06 216.67 238.12 216.67 237.06"/><polygon class="cls-35" points="300.25 235.65 339.15 234.87 339.15 236.2 300.25 237.14 300.25 235.65"/><polygon class="cls-36" points="187.44 229.14 200.9 229.14 215.45 233.22 215.45 250.72 187.44 250.72 187.44 229.14"/><rect class="cls-35" x="189.72" y="237.58" width="24.06" height="0.55"/><rect class="cls-37" x="90.12" y="249.83" width="333.81" height="9.29"/><rect class="cls-38" x="90.12" y="256.79" width="333.81" height="8"/><polygon class="cls-39" points="205.29 239.93 204.84 245.08 213.78 245.08 213.78 239.93 205.29 239.93"/><rect class="cls-39" x="194.19" y="230.85" width="6.62" height="3.4"/><polygon class="cls-39" points="278.5 238.12 284.67 238.12 283.42 243.74 276.98 243.74 278.5 238.12"/><rect class="cls-40" x="278.37" y="243.74" width="4.43" height="6.09"/><path class="cls-21" d="M181.49,188.91s-10.76-3-18-3.22-19.85,1-19.85,1l13.65,34.81h1.27s8.53-13.42,12.49-17.94,11.13-11.4,11.13-11.4Z"/><path class="cls-21" d="M178.72,170.12l8.72,59,1.88,0s9.69-22.85,14.63-32S214.37,179,214.37,179a125.85,125.85,0,0,0-16.91-6A157.28,157.28,0,0,0,178.72,170.12Z"/><path class="cls-21" d="M224.28,233s-9.32-52.64-12.39-62.89c-3.17-10.6-6.69-23.06-6.69-23.06s21.77,4.12,31.39,9.87a114.48,114.48,0,0,1,22.74,17.61c6,6,13.49,19.75,13.49,19.75l-43.1,38.59Z"/><path class="cls-25" d="M274.84,198s-4.46,17.31-5.06,21.63-1,7.27-1,7.27V232h2.89v-5.77s1.11-15,1.2-16.2S274.84,198,274.84,198Z"/><ellipse class="cls-41" cx="85.81" cy="115.63" rx="25.18" ry="8.53"/><ellipse class="cls-41" cx="107.91" cy="105.94" rx="17.13" ry="13.18"/><ellipse class="cls-41" cx="122.73" cy="112.73" rx="24.56" ry="11.43"/><ellipse class="cls-41" cx="165.58" cy="89.12" rx="19.65" ry="10.82"/><ellipse class="cls-41" cx="179.21" cy="79.29" rx="17.44" ry="11.28"/><ellipse class="cls-41" cx="186.59" cy="88.58" rx="17.95" ry="9.29"/><ellipse class="cls-41" cx="284.03" cy="114.52" rx="15.76" ry="10.29"/><ellipse class="cls-41" cx="293.42" cy="108.02" rx="14.2" ry="10.15"/><ellipse class="cls-41" cx="310.85" cy="118.17" rx="18.53" ry="10.12"/></g></g></svg>