<svg id="Layer_1" data-name="Layer 1" xmlns="http://www.w3.org/2000/svg" xmlns:xlink="http://www.w3.org/1999/xlink" viewBox="0 0 400 400"><defs><style>.cls-1,.cls-26{fill:none;}.cls-2{clip-path:url(#clip-path);}.cls-3{fill:#b3defe;}.cls-4{fill:#e4eff2;}.cls-5{fill:#7b7c7c;}.cls-6{fill:#20181d;}.cls-7{fill:#011053;}.cls-8{fill:#0c0d07;}.cls-11,.cls-9{fill:#401713;}.cls-10{fill:#7a5925;}.cls-11,.cls-12,.cls-13{stroke:#f2c63b;stroke-linejoin:bevel;}.cls-11,.cls-12{stroke-width:0.5px;}.cls-12{fill:#b68e59;}.cls-13{fill:#3a2931;stroke-width:0.75px;}.cls-14{fill:#72231a;}.cls-15{fill:#b72f1d;}.cls-16{fill:#b0a4a3;}.cls-17{fill:#ddd8d0;stroke:#c6bdaf;stroke-width:2px;}.cls-17,.cls-26{stroke-miterlimit:10;}.cls-18{fill:#280706;}.cls-19{fill:#d18403;}.cls-20{fill:#05337c;}.cls-21{fill:#9e6613;}.cls-22{fill:#c88927;}.cls-23{fill:#af7510;}.cls-24{fill:#1e1c1b;}.cls-25{fill:#e0d7ca;}.cls-26{stroke:#e0d7ca;}.cls-27{fill:#c3a184;}.cls-28{fill:#996110;}.cls-29{fill:#4b0101;}.cls-30{fill:#112472;}.cls-31{fill:#77593c;}</style><clipPath id="clip-path"><circle class="cls-1" cx="200" cy="200" r="150"/></clipPath></defs><g id="China"><g class="cls-2"><rect class="cls-3" x="42.13" y="33.35" width="317.96" height="200.33"/><ellipse class="cls-4" cx="89.33" cy="113.58" rx="22.17" ry="14.06"/><ellipse class="cls-4" cx="107.76" cy="102.39" rx="15.53" ry="17.96"/><ellipse class="cls-4" cx="116.3" cy="119.59" rx="19.48" ry="10.58"/><ellipse class="cls-4" cx="225.43" cy="77.93" rx="22.43" ry="11.41"/><ellipse class="cls-4" cx="250.94" cy="69.71" rx="19.63" ry="12.9"/><ellipse class="cls-4" cx="257.81" cy="83.16" rx="22.29" ry="11.78"/><ellipse class="cls-4" cx="322.87" cy="122.78" rx="21.33" ry="13.43"/><ellipse class="cls-4" cx="303.93" cy="118.95" rx="26.28" ry="14.53"/><ellipse class="cls-4" cx="325.77" cy="136.55" rx="24.23" ry="11.26"/><rect class="cls-5" x="47.15" y="265.56" width="317.16" height="86.39"/><path class="cls-6" d="M100,141.07a16.06,16.06,0,0,1-7.88-3.25,62.1,62.1,0,0,1-8.27-8h231s-4.19,7.54-7.1,9.42a11.14,11.14,0,0,1-5.86,1.79Z"/><rect class="cls-7" x="100.02" y="141.07" width="201.85" height="8.35"/><path class="cls-6" d="M322.25,170.77a16.47,16.47,0,0,0,6.92-2.81c2.78-2.22,7.87-6.79,7.87-6.79H65.58s4.63,5.06,7.16,7.21,6.58,2.39,6.58,2.39Z"/><rect class="cls-8" x="77.3" y="176.67" width="246.95" height="2.59"/><rect class="cls-9" x="100.02" y="179.26" width="201.39" height="32.35"/><rect class="cls-10" x="100.02" y="207.21" width="201.39" height="4.41"/><rect class="cls-11" x="177.69" y="200.1" width="10.22" height="6.67"/><rect class="cls-11" x="101.91" y="181.09" width="29.23" height="3.32"/><rect class="cls-12" x="117.25" y="186.62" width="13.89" height="17.69"/><rect class="cls-12" x="101.91" y="186.62" width="13.89" height="17.69"/><rect class="cls-13" x="215" y="186.23" width="10.22" height="12.6"/><rect class="cls-13" x="202.35" y="186.23" width="10.22" height="12.6"/><rect class="cls-13" x="190.34" y="186.23" width="10.22" height="12.6"/><rect class="cls-13" x="177.69" y="186.23" width="10.22" height="12.6"/><rect class="cls-11" x="177.69" y="181.09" width="47.53" height="4"/><rect class="cls-11" x="270.76" y="181.09" width="29.23" height="3.32"/><rect class="cls-12" x="286.1" y="186.62" width="13.89" height="17.69"/><rect class="cls-12" x="270.76" y="186.62" width="13.89" height="17.69"/><rect class="cls-14" x="227.01" y="176.67" width="4.02" height="29.74" transform="translate(458.05 383.07) rotate(180)"/><rect class="cls-14" x="265.77" y="176.67" width="4.02" height="29.74" transform="translate(535.56 383.07) rotate(180)"/><rect class="cls-14" x="303.72" y="176.66" width="4.02" height="29.74" transform="translate(611.46 383.06) rotate(180)"/><rect class="cls-14" x="320.23" y="176.67" width="4.02" height="29.74" transform="translate(644.49 383.07) rotate(180)"/><rect class="cls-14" x="170.52" y="176.67" width="4.02" height="29.74"/><rect class="cls-14" x="131.77" y="176.67" width="4.02" height="29.74"/><rect class="cls-14" x="93.82" y="176.67" width="4.02" height="29.74"/><rect class="cls-14" x="77.3" y="176.67" width="4.02" height="29.74"/><rect class="cls-15" x="40.51" y="214.62" width="328.95" height="57"/><rect class="cls-16" x="40.51" y="265.62" width="328.95" height="9.84"/><rect class="cls-17" x="171.54" y="216.61" width="59.76" height="15.14"/><rect class="cls-18" x="134.68" y="240.85" width="29.34" height="34.61"/><rect class="cls-19" x="180.66" y="233.06" width="41.52" height="3.89"/><rect class="cls-18" x="240.2" y="240.85" width="29.34" height="34.61"/><rect class="cls-19" x="234.11" y="236.95" width="41.52" height="3.89"/><rect class="cls-19" x="128.45" y="236.95" width="41.52" height="3.89"/><rect class="cls-18" x="186.16" y="236.95" width="31.1" height="38.5"/><rect class="cls-7" x="79.32" y="170.77" width="242.93" height="5.89"/><rect class="cls-20" x="77.3" y="169.29" width="4.02" height="7.38"/><rect class="cls-20" x="93.82" y="171.88" width="4.02" height="4.78"/><rect class="cls-20" x="131.77" y="171.88" width="4.02" height="4.78"/><rect class="cls-20" x="170.52" y="171.88" width="4.02" height="4.78"/><rect class="cls-20" x="320.23" y="169.29" width="4.02" height="7.38" transform="translate(644.49 345.96) rotate(-180)"/><rect class="cls-20" x="303.72" y="171.88" width="4.02" height="4.78" transform="translate(611.46 348.55) rotate(-180)"/><rect class="cls-20" x="265.77" y="171.88" width="4.02" height="4.78" transform="translate(535.56 348.55) rotate(-180)"/><rect class="cls-20" x="227.01" y="171.88" width="4.02" height="4.78" transform="translate(458.05 348.55) rotate(-180)"/><rect class="cls-20" x="297.85" y="138.99" width="4.02" height="10.42" transform="translate(599.73 288.4) rotate(-180)"/><rect class="cls-20" x="100.02" y="138.99" width="4.02" height="10.42" transform="translate(204.07 288.4) rotate(-180)"/><rect class="cls-20" x="134.23" y="143.27" width="4.02" height="6.14"/><rect class="cls-20" x="171.29" y="143.27" width="4.02" height="6.14"/><rect class="cls-20" x="224.68" y="143.27" width="4.02" height="6.14"/><rect class="cls-20" x="261.74" y="143.27" width="4.02" height="6.14"/><path class="cls-21" d="M261.74,109.49s8.74,7.37,13,9.16,8.91,3.91,16.19,4.65,31.92,1.48,31.92,1.48v2.53l-61-2Z"/><path class="cls-21" d="M140.16,109.49s-8.74,7.37-13,9.16-8.91,3.91-16.19,4.65-31.92,1.48-31.92,1.48v2.53l61-2Z"/><path class="cls-22" d="M201,113.74h60.79s9.8,7.22,18,9.67,43.07,3.9,43.07,3.9a19.78,19.78,0,0,1-9.46,5c-5.48,1-112.58.24-112.58.24Z"/><path class="cls-22" d="M201,113.74H140.16s-9.8,7.22-18,9.67-43.07,3.9-43.07,3.9a19.78,19.78,0,0,0,9.46,5c5.48,1,112.58.24,112.58.24Z"/><rect class="cls-23" x="200.95" y="109.49" width="60.79" height="4.26"/><rect class="cls-23" x="140.16" y="109.49" width="60.79" height="4.26" transform="translate(341.11 223.23) rotate(-180)"/><rect class="cls-24" x="174.4" y="220.55" width="6.59" height="6.59"/><rect class="cls-24" x="198.1" y="220.45" width="6.59" height="6.59"/><rect class="cls-24" x="186.41" y="220.55" width="6.59" height="6.59"/><rect class="cls-24" x="208.95" y="220.55" width="6.59" height="6.59"/><rect class="cls-24" x="220.96" y="220.55" width="6.59" height="6.59"/><rect class="cls-11" x="190.34" y="200.1" width="10.22" height="6.67"/><rect class="cls-11" x="202.35" y="200.1" width="10.22" height="6.67"/><rect class="cls-11" x="215" y="200.1" width="10.22" height="6.67"/><rect class="cls-11" x="138.28" y="181.09" width="29.23" height="3.32"/><rect class="cls-13" x="153.62" y="186.62" width="13.89" height="12.21"/><rect class="cls-13" x="138.28" y="186.62" width="13.72" height="12.21"/><rect class="cls-11" x="153.62" y="200.02" width="13.89" height="7.17"/><rect class="cls-11" x="138.59" y="200.02" width="13.72" height="7.17"/><rect class="cls-11" x="233.85" y="181.09" width="29.23" height="3.32"/><rect class="cls-13" x="249.19" y="186.62" width="13.89" height="12.21"/><rect class="cls-13" x="233.93" y="186.62" width="13.64" height="12.21"/><rect class="cls-11" x="249.19" y="200.02" width="13.89" height="7.17"/><rect class="cls-11" x="234.24" y="200.02" width="13.64" height="7.17"/><polygon class="cls-25" points="328.17 206.41 328.17 214.61 72.73 214.61 72.73 206.41 188.46 206.41 188.46 210.89 212.09 210.89 212.09 206.41 328.17 206.41"/><line class="cls-26" x1="327.33" y1="202.69" x2="212.72" y2="202.69"/><line class="cls-26" x1="327.33" y1="200.31" x2="213.08" y2="200.31"/><rect class="cls-25" x="212.09" y="196.98" width="1.98" height="10.86"/><rect class="cls-25" x="249.91" y="197.27" width="1.98" height="10.86" transform="translate(501.8 405.39) rotate(180)"/><rect class="cls-25" x="228.46" y="196.98" width="1.98" height="10.86" transform="translate(458.91 404.81) rotate(180)"/><rect class="cls-25" x="291.5" y="196.98" width="1.98" height="10.86" transform="translate(584.98 404.81) rotate(180)"/><rect class="cls-25" x="272.02" y="197.27" width="1.98" height="10.86" transform="translate(546.03 405.39) rotate(180)"/><rect class="cls-25" x="326.09" y="196.98" width="1.98" height="10.86" transform="translate(654.17 404.81) rotate(180)"/><rect class="cls-25" x="308.09" y="196.98" width="1.98" height="10.86" transform="translate(618.17 404.81) rotate(180)"/><line class="cls-26" x1="73.48" y1="202.84" x2="188.1" y2="202.84"/><line class="cls-26" x1="73.48" y1="200.45" x2="187.73" y2="200.45"/><rect class="cls-25" x="186.74" y="197.12" width="1.98" height="10.86"/><rect class="cls-25" x="148.92" y="197.41" width="1.98" height="10.86"/><rect class="cls-25" x="170.37" y="197.12" width="1.98" height="10.86"/><rect class="cls-25" x="107.33" y="197.12" width="1.98" height="10.86"/><rect class="cls-25" x="126.81" y="197.41" width="1.98" height="10.86"/><rect class="cls-25" x="72.73" y="197.12" width="1.98" height="10.86"/><rect class="cls-25" x="90.73" y="197.12" width="1.98" height="10.86"/><rect class="cls-27" x="40.51" y="208.61" width="328.95" height="6.01"/><rect class="cls-27" x="40.51" y="205.24" width="7.53" height="5.11"/><rect class="cls-27" x="54.3" y="205.24" width="8.58" height="5.11"/><rect class="cls-27" x="69.77" y="205.24" width="7.53" height="5.11"/><rect class="cls-27" x="83.57" y="205.24" width="8.58" height="5.11"/><rect class="cls-27" x="98.74" y="205.24" width="7.53" height="5.11"/><rect class="cls-27" x="112.54" y="205.24" width="8.58" height="5.11"/><rect class="cls-27" x="128.01" y="205.24" width="7.53" height="5.11"/><rect class="cls-27" x="141.8" y="205.24" width="8.58" height="5.11"/><rect class="cls-27" x="157.61" y="205.24" width="7.53" height="5.11"/><rect class="cls-27" x="171.41" y="205.24" width="8.58" height="5.11"/><rect class="cls-27" x="186.58" y="205.24" width="7.53" height="5.11"/><rect class="cls-27" x="200.38" y="205.24" width="8.58" height="5.11"/><rect class="cls-27" x="215.85" y="205.24" width="7.53" height="5.11"/><rect class="cls-27" x="229.64" y="205.24" width="8.58" height="5.11"/><rect class="cls-27" x="244.7" y="205.24" width="7.53" height="5.11"/><rect class="cls-27" x="258.49" y="205.24" width="8.58" height="5.11"/><rect class="cls-27" x="273.66" y="205.24" width="7.53" height="5.11"/><rect class="cls-27" x="287.46" y="205.24" width="8.58" height="5.11"/><rect class="cls-27" x="303.32" y="205.24" width="7.53" height="5.11"/><rect class="cls-27" x="318.13" y="205.24" width="8.58" height="5.11"/><rect class="cls-27" x="334.38" y="205.24" width="7.53" height="5.11"/><rect class="cls-27" x="348.18" y="205.24" width="8.58" height="5.11"/><rect class="cls-27" x="363.24" y="205.24" width="6.21" height="5.11"/><path class="cls-23" d="M200.38,152.78v-3.37h101.5s13.79,3.9,20.78,4.43,21.43,1.41,21.43,1.41l.23,2.39-143.94.75Z"/><path class="cls-23" d="M200.37,149.42v9h-.94l-100.55-.52-42.45-.23.22-2.39s14.44-.88,21.43-1.41,20.8-4.42,20.8-4.42Z"/><path class="cls-28" d="M98.88,149.42v8.45l-42.45-.23.22-2.39s14.44-.88,21.43-1.41S98.88,149.42,98.88,149.42Z"/><path class="cls-28" d="M301.87,149.42v8.45l42.45-.23-.22-2.39s-14.44-.88-21.43-1.41S301.87,149.42,301.87,149.42Z"/><path class="cls-22" d="M199.43,152.78v11s127.31,1.46,137.56-2.58,7.33-3.53,7.33-3.53-19.49-.63-25.7-1.78-17.49-3.08-17.49-3.08Z"/><path class="cls-22" d="M201.31,152.78v11S74,165.21,63.76,161.17s-7.33-3.53-7.33-3.53,19.49-.63,25.7-1.78,17.49-3.08,17.49-3.08Z"/><rect class="cls-29" x="193.31" y="133.51" width="14.95" height="20.39"/><rect class="cls-30" x="195.92" y="136.04" width="9.74" height="15.06"/><rect class="cls-31" x="196.89" y="137.82" width="2.54" height="11.95"/><rect class="cls-31" x="201.97" y="137.82" width="2.54" height="11.95"/></g></g></svg>