<svg id="Layer_1" data-name="Layer 1" xmlns="http://www.w3.org/2000/svg" xmlns:xlink="http://www.w3.org/1999/xlink" viewBox="0 0 400 400"><defs><style>.cls-1,.cls-10,.cls-11,.cls-13,.cls-17,.cls-18,.cls-20,.cls-21,.cls-26,.cls-27,.cls-8{fill:none;}.cls-2{clip-path:url(#clip-path);}.cls-3{fill:#afdafa;}.cls-4{fill:#5ba037;}.cls-5{fill:#d8634c;}.cls-6{fill:#d9d7d8;}.cls-7{fill:#de7866;}.cls-8{stroke:#de7866;}.cls-10,.cls-11,.cls-13,.cls-17,.cls-18,.cls-20,.cls-21,.cls-26,.cls-27,.cls-8{stroke-miterlimit:10;}.cls-9{fill:#40456d;}.cls-10{stroke:#40456d;}.cls-11{stroke:#806a80;}.cls-12{fill:#e3e1e6;}.cls-13{stroke:#ebebeb;}.cls-14{fill:#efeef0;}.cls-15{fill:#e0ebee;}.cls-16{fill:#748084;}.cls-17{stroke:#9ca2a5;}.cls-18{stroke:#748084;}.cls-19{fill:#868d95;}.cls-20{stroke:#7a8288;stroke-width:0.5px;}.cls-21{stroke:#829da7;}.cls-22{fill:#80898d;}.cls-23{fill:#e1c57a;}.cls-24{fill:#eed28b;}.cls-25{fill:#d4d4d4;}.cls-26{stroke:gray;}.cls-27{stroke:#333532;stroke-width:4px;}.cls-28{fill:#333532;}.cls-29{fill:#5fd9d6;}.cls-30{fill:#4ca19c;}.cls-31{fill:#493c1e;}.cls-32{fill:#006994;}</style><clipPath id="clip-path"><path class="cls-1" d="M350,200a149.25,149.25,0,0,1-22,78.25c-2.09,3.4-4.3,6.72-6.65,9.93-.53.73-1.07,1.46-1.61,2.18l-1.64,2.14c-1,1.27-2,2.52-3.05,3.75l-1.43,1.69-1,1.16c-.82.94-1.66,1.86-2.5,2.78s-1.85,2-2.8,2.93l-1.45,1.47c-.74.74-1.49,1.48-2.25,2.2l-.09.08c-.82.78-1.65,1.56-2.49,2.32q-2.41,2.21-4.92,4.3a149.86,149.86,0,0,1-192.2,0l-.87-.74q-2.15-1.81-4.22-3.71l-2.32-2.17c-.57-.54-1.14-1.09-1.7-1.65s-1.4-1.39-2.09-2.1c-1-1-1.88-1.94-2.8-2.93s-1.68-1.84-2.5-2.78l-1-1.16L85,296.25c-1-1.23-2-2.48-3-3.75l-1.64-2.14c-.54-.72-1.08-1.45-1.61-2.18-2.35-3.21-4.56-6.53-6.65-9.93A149.25,149.25,0,0,1,50,200a151,151,0,0,1,2.53-27.58,148,148,0,0,1,6.63-24.13A150,150,0,0,1,350,200Z"/></clipPath></defs><g id="Malaysia"><g class="cls-2"><rect class="cls-3" x="31.59" y="39.96" width="330.63" height="272.88"/><rect class="cls-4" x="72.52" y="299.91" width="247.2" height="62.53"/><path class="cls-5" d="M278.46,201.22s2.36,2.88,2.63,4.41.37,4.24.37,4.24h9.71a38.43,38.43,0,0,1,.18-4.66c.48-1.44,2.94-4,2.94-4Z"/><rect class="cls-5" x="284.88" y="170.23" width="2.19" height="5.67"/><rect class="cls-6" x="284.88" y="163.51" width="2.19" height="6.72"/><rect class="cls-5" x="284.88" y="158.01" width="2.19" height="5.5"/><rect class="cls-6" x="284.88" y="151.67" width="2.19" height="6.33"/><rect class="cls-7" x="284.88" y="145.96" width="2.19" height="5.72"/><rect class="cls-6" x="284.88" y="139.77" width="2.19" height="6.18"/><line class="cls-8" x1="285.97" y1="133.72" x2="285.97" y2="139.77"/><polygon class="cls-9" points="280.67 175.9 291.24 175.9 291.24 177.14 289.04 177.14 289.04 184.34 283.19 184.34 283.19 177.34 280.67 177.34 280.67 175.9"/><rect class="cls-6" x="280.67" y="176.71" width="10.57" height="1.34"/><rect class="cls-6" x="280.68" y="179.17" width="10.57" height="1.34"/><rect class="cls-6" x="280.67" y="181.33" width="10.51" height="1.39"/><polygon class="cls-6" points="282.55 182.72 289.81 182.72 290.35 184.42 281.99 184.42 282.55 182.72"/><rect class="cls-6" x="276.75" y="184.42" width="20.14" height="2.85"/><line class="cls-10" x1="276.75" y1="185.85" x2="296.89" y2="185.85"/><line class="cls-11" x1="275.98" y1="184.34" x2="297.66" y2="184.34"/><polygon class="cls-9" points="273.23 187.27 299.1 187.27 294.29 201.22 278.46 201.22 273.23 187.27"/><polygon class="cls-6" points="299.1 187.27 298.52 188.97 273.87 188.97 273.23 187.27 299.1 187.27"/><polygon class="cls-6" points="274.72 191.23 297.77 191.22 296.89 193.69 275.64 193.69 274.72 191.23"/><polygon class="cls-6" points="276.36 195.6 296.23 195.6 295.41 197.99 277.25 197.99 276.36 195.6"/><polygon class="cls-6" points="277.9 199.72 294.81 199.72 294.29 201.22 278.46 201.22 277.9 199.72"/><line class="cls-11" x1="273.23" y1="187.27" x2="299.1" y2="187.27"/><line class="cls-11" x1="277.72" y1="201.22" x2="294.62" y2="201.22"/><polygon class="cls-12" points="281.42 210.74 277.9 310.81 294.81 310.81 291.16 210.74 281.42 210.74"/><line class="cls-13" x1="284.09" y1="209.79" x2="281.99" y2="310.81"/><line class="cls-13" x1="288.5" y1="209.79" x2="290.6" y2="310.81"/><line class="cls-13" x1="286.29" y1="210.26" x2="286.29" y2="310.81"/><rect class="cls-14" x="281.19" y="209.79" width="10.37" height="1.83"/><ellipse class="cls-15" cx="171.3" cy="122.11" rx="16.75" ry="9.22"/><ellipse class="cls-15" cx="180.1" cy="106.17" rx="15.29" ry="16.46"/><ellipse class="cls-15" cx="198.63" cy="117.51" rx="18.53" ry="9.17"/><rect class="cls-16" x="219.87" y="148.4" width="31.3" height="31.67"/><rect class="cls-16" x="216.11" y="180.06" width="37.9" height="131.98"/><line class="cls-17" x1="222.47" y1="311.83" x2="222.47" y2="148.18"/><rect class="cls-16" x="222.47" y="128.31" width="26.29" height="20.08"/><rect class="cls-16" x="225.28" y="113.83" width="20.52" height="14.48"/><rect class="cls-16" x="228.02" y="104.61" width="15.49" height="9.22"/><rect class="cls-16" x="229.97" y="99.43" width="11.51" height="5.18"/><rect class="cls-16" x="231.9" y="96.25" width="7.42" height="3.18"/><polygon class="cls-16" points="233.3 96.25 234.27 90.98 236.64 90.98 237.93 96.25 233.3 96.25"/><circle class="cls-16" cx="235.64" cy="86.79" r="1.55"/><line class="cls-18" x1="235.72" y1="90.98" x2="235.72" y2="64.47"/><line class="cls-17" x1="248.76" y1="311.83" x2="248.76" y2="148.18"/><line class="cls-17" x1="228.02" y1="311.83" x2="228.02" y2="128.31"/><line class="cls-17" x1="243.51" y1="311.83" x2="243.51" y2="128.31"/><line class="cls-17" x1="232.61" y1="311.83" x2="232.61" y2="100.21"/><line class="cls-17" x1="237.93" y1="311.83" x2="237.93" y2="100.99"/><rect class="cls-19" x="216.11" y="180.06" width="37.9" height="3.04"/><rect class="cls-19" x="219.87" y="148.4" width="31.3" height="3.04"/><rect class="cls-19" x="222.45" y="128.31" width="26.31" height="3.04"/><rect class="cls-19" x="225.28" y="113.83" width="20.52" height="2.34"/><rect class="cls-19" x="229.97" y="99.43" width="11.51" height="1.55"/><line class="cls-20" x1="201.29" y1="229.91" x2="186.86" y2="259.91"/><line class="cls-20" x1="201.29" y1="229.91" x2="215.72" y2="259.91"/><rect class="cls-16" x="152.59" y="148.28" width="31.3" height="31.67"/><rect class="cls-16" x="148.82" y="179.95" width="37.9" height="131.98"/><line class="cls-17" x1="155.18" y1="311.71" x2="155.18" y2="148.06"/><rect class="cls-16" x="155.18" y="128.19" width="26.29" height="20.08"/><rect class="cls-16" x="158" y="113.71" width="20.52" height="14.48"/><rect class="cls-16" x="160.74" y="104.49" width="15.49" height="9.22"/><rect class="cls-16" x="162.68" y="99.32" width="11.51" height="5.18"/><rect class="cls-16" x="164.62" y="96.13" width="7.42" height="3.18"/><polygon class="cls-16" points="166.02 96.13 166.99 90.86 169.35 90.86 170.64 96.13 166.02 96.13"/><circle class="cls-16" cx="168.36" cy="86.67" r="1.55"/><line class="cls-18" x1="168.44" y1="90.86" x2="168.44" y2="64.35"/><line class="cls-17" x1="181.47" y1="311.71" x2="181.47" y2="148.06"/><line class="cls-17" x1="160.74" y1="311.71" x2="160.74" y2="128.19"/><line class="cls-17" x1="176.22" y1="311.71" x2="176.22" y2="128.19"/><line class="cls-17" x1="165.33" y1="311.71" x2="165.33" y2="100.09"/><line class="cls-17" x1="170.64" y1="311.71" x2="170.64" y2="100.87"/><rect class="cls-19" x="148.82" y="179.95" width="37.9" height="3.04"/><rect class="cls-19" x="152.59" y="148.28" width="31.3" height="3.04"/><rect class="cls-19" x="155.16" y="128.19" width="26.31" height="3.04"/><rect class="cls-19" x="158" y="113.71" width="20.52" height="2.34"/><rect class="cls-19" x="162.68" y="99.32" width="11.51" height="1.55"/><rect class="cls-16" x="184.4" y="223.78" width="33.78" height="6.1"/><line class="cls-21" x1="185.85" y1="225.9" x2="199.2" y2="225.9"/><line class="cls-21" x1="185.85" y1="228.4" x2="199.2" y2="228.4"/><line class="cls-21" x1="185.85" y1="228.4" x2="199.2" y2="228.4"/><line class="cls-21" x1="185.85" y1="228.4" x2="199.2" y2="228.4"/><line class="cls-21" x1="202.88" y1="225.9" x2="216.22" y2="225.9"/><line class="cls-21" x1="202.88" y1="228.4" x2="216.22" y2="228.4"/><rect class="cls-22" x="200.59" y="228.89" width="1.41" height="2.03"/><rect class="cls-22" x="214.81" y="259.5" width="1.83" height="2.64"/><rect class="cls-22" x="185.95" y="259.5" width="1.83" height="2.64"/><ellipse class="cls-15" cx="289.48" cy="146.66" rx="13.26" ry="15.15"/><ellipse class="cls-15" cx="275.15" cy="143.35" rx="18.17" ry="11.84"/><ellipse class="cls-15" cx="303.83" cy="146.17" rx="13.2" ry="9.02"/><rect class="cls-23" x="64.02" y="275.52" width="76.01" height="36.93"/><rect class="cls-23" x="262.85" y="275.52" width="66.54" height="36.93"/><rect class="cls-24" x="139.73" y="275.52" width="123.12" height="36.93"/><path class="cls-25" d="M162.53,275.52s13.59-13.89,38.34-13.89,39.18,13.89,39.18,13.89Z"/><path class="cls-18" d="M200.87,261.63a39.28,39.28,0,0,0-22.61,13.89"/><path class="cls-18" d="M200.87,261.63a39.28,39.28,0,0,1,22.61,13.89"/><path class="cls-26" d="M181.89,264.56c2.24.22,12.19,2.22,19.56,2.22,7.05,0,18.06-1.4,19.59-1.89"/><path class="cls-26" d="M172,268.78c2.24.22,15.73,3.48,29.24,3.48a145.72,145.72,0,0,0,28.85-3.48"/><line class="cls-26" x1="200.87" y1="261.63" x2="200.87" y2="275.52"/><line class="cls-27" x1="178.26" y1="275.52" x2="178.26" y2="312.45"/><line class="cls-27" x1="223.48" y1="275.52" x2="223.48" y2="312.45"/><rect class="cls-28" x="147.89" y="307.78" width="106.11" height="4.67"/><line class="cls-27" x1="147.46" y1="275.52" x2="147.46" y2="312.45"/><line class="cls-27" x1="254.89" y1="275.52" x2="254.89" y2="312.45"/><rect class="cls-29" x="149.95" y="276.61" width="25.82" height="30.07"/><rect class="cls-29" x="226.27" y="276.61" width="25.82" height="30.07"/><rect class="cls-29" x="180.58" y="276.61" width="40.46" height="30.07"/><rect class="cls-30" x="149.95" y="290.62" width="25.82" height="3.94"/><rect class="cls-30" x="180.58" y="290.62" width="40.46" height="3.94"/><rect class="cls-30" x="226.27" y="290.62" width="25.82" height="3.94"/><rect class="cls-30" x="149.95" y="299.2" width="25.82" height="3.94"/><rect class="cls-30" x="180.58" y="299.2" width="40.46" height="3.94"/><rect class="cls-30" x="226.27" y="298.68" width="25.82" height="3.94"/><rect class="cls-30" x="149.95" y="279.33" width="25.82" height="3.94"/><rect class="cls-30" x="226.27" y="279.47" width="25.82" height="3.94"/><rect class="cls-30" x="180.58" y="279.5" width="40.46" height="3.94"/><path class="cls-31" d="M137.09,289.77v3.76H78.24v-3.76Z"/><path class="cls-31" d="M326.16,289.77v3.76H265v-3.76Z"/><polyline class="cls-31" points="78.24 302.08 137.09 302.08 137.09 305.83 78.24 305.83 78.24 302.08"/><polygon class="cls-31" points="326.16 302.08 265.03 302.08 265.03 305.83 320.81 305.83 326.16 305.75 326.16 302.08"/><polyline class="cls-24" points="78.24 295.21 137.09 295.21 137.09 299.15 78.24 299.15 78.24 295.21"/><path class="cls-23" d="M303.6,288.1v17.73h-.09c-.82.78-1.65,1.56-2.49,2.32v-20Z"/><rect class="cls-23" x="288.17" y="288.1" width="3.56" height="21.35"/><rect class="cls-23" x="273.62" y="287.72" width="4.02" height="21.95"/><polyline class="cls-24" points="326.16 295.21 265.03 295.21 265.03 299.15 326.16 299.15 326.16 295.21"/><rect class="cls-23" x="122.18" y="287.64" width="2.59" height="22.48"/><rect class="cls-23" x="109.33" y="287.64" width="3.56" height="21.35"/><path class="cls-23" d="M98.81,287.9V308c-1-.05-1.63.8-2.39.06-.58-.53-1.07.5-1.63-.06V287.9Z"/><path class="cls-28" d="M329.39,285.46v2.17H73.49v-2.17Z"/><rect class="cls-25" x="146.95" y="285.46" width="107.43" height="2.18"/><path class="cls-32" d="M124.77,348.9s2.34-21.71,19.54-22.14,15.46,7.09,33.95,8.59,16.35-2.58,31.29-6.45,27.15-3.43,39.21-.42S284.89,339,284.89,339l1.49,15.26L120,355.77Z"/><ellipse class="cls-15" cx="64.35" cy="155.05" rx="17.41" ry="11.25"/><ellipse class="cls-15" cx="76.71" cy="142.02" rx="15.58" ry="19.08"/><ellipse class="cls-15" cx="87.45" cy="151" rx="20.96" ry="11.93"/></g></g></svg>