<svg id="Layer_1" data-name="Layer 1" xmlns="http://www.w3.org/2000/svg" xmlns:xlink="http://www.w3.org/1999/xlink" viewBox="0 0 400 400"><defs><style>.cls-1,.cls-11,.cls-18{fill:none;}.cls-2{clip-path:url(#clip-path);}.cls-3{fill:#b3defe;}.cls-4{fill:#006994;}.cls-5{fill:#e4eff2;}.cls-6{fill:#7b7c7c;}.cls-7{fill:#a5a7aa;}.cls-8{fill:#d1d2d4;}.cls-9{fill:#779cad;}.cls-10{fill:#779ba9;}.cls-11{stroke:#6f90a1;}.cls-11,.cls-18{stroke-miterlimit:10;}.cls-12{fill:#6c6d71;}.cls-13{fill:#6d6e70;}.cls-14{fill:#454649;}.cls-15{fill:#27292b;}.cls-16{fill:#f0e0c8;}.cls-17{fill:#d5cbb8;}.cls-18{stroke:#b6ab99;}.cls-19{fill:#b6ab99;}.cls-20{fill:#057ca0;}.cls-21{fill:#b5d3e2;}</style><clipPath id="clip-path"><circle class="cls-1" cx="200" cy="200" r="150"/></clipPath></defs><g id="Singapore"><g class="cls-2"><path class="cls-3" d="M350,200a149.87,149.87,0,0,1-4.88,38.08c-.44,1.68-.9,3.35-1.4,5H56.28c-.5-1.65-1-3.32-1.4-5a150.67,150.67,0,0,1,7.39-97.59c1.2-2.78,2.49-5.53,3.86-8.22Q68.8,127,71.88,122q2.67-4.39,5.63-8.57a150.58,150.58,0,0,1,9.33-11.86q4.66-5.36,9.82-10.26A150,150,0,0,1,350,200Z"/><rect class="cls-4" x="50" y="235.96" width="300" height="96.75"/><ellipse class="cls-5" cx="202.23" cy="141.59" rx="16.38" ry="11.06"/><circle class="cls-5" cx="211.41" cy="129.86" r="15.06"/><ellipse class="cls-5" cx="221.85" cy="138.71" rx="13.73" ry="8.85"/><path class="cls-5" d="M95.36,112.38a10,10,0,0,1-.86,4.05,13.09,13.09,0,0,1-6.7,6.39,17.29,17.29,0,0,1-7.15,1.5A17,17,0,0,1,71.88,122q2.67-4.39,5.63-8.57a150.58,150.58,0,0,1,9.33-11.86,13.16,13.16,0,0,1,7.88,7.33h0A9.79,9.79,0,0,1,95.36,112.38Z"/><path class="cls-5" d="M96.66,91.28A17.23,17.23,0,0,1,110,101.47a15.37,15.37,0,0,1,1.19,6,16.4,16.4,0,0,1-10.47,15,18.64,18.64,0,0,1-12.9.38,17,17,0,0,1-10.29-9.42,150.58,150.58,0,0,1,9.33-11.86Z"/><ellipse class="cls-5" cx="109.2" cy="112.89" rx="15.46" ry="11.44"/><rect class="cls-6" x="50" y="284.08" width="300" height="65.92"/><path class="cls-1" d="M350,200a149.87,149.87,0,0,1-4.88,38.08c-.44,1.68-.9,3.35-1.4,5q-1.23,4.11-2.68,8.12c-.18.47-.35.94-.52,1.4a150,150,0,0,1-14.14,28.24c-1.91,3-3.92,5.88-6,8.7a148.2,148.2,0,0,1-10.27,12.36,151.51,151.51,0,0,1-19.32,17.53A150.12,150.12,0,0,1,59.48,252.6L59,251.2q-1.45-4-2.69-8.12c-.5-1.65-1-3.32-1.4-5a150.67,150.67,0,0,1,7.39-97.59c1.2-2.78,2.49-5.53,3.86-8.22A150,150,0,0,1,350,200Z"/><ellipse class="cls-5" cx="256.92" cy="82.91" rx="14.94" ry="16.04"/><path class="cls-5" d="M290.43,80.32a13.17,13.17,0,0,1-6.34,4.8,26.67,26.67,0,0,1-10,1.84c-.91,0-1.8,0-2.68-.12a25.59,25.59,0,0,1-7.33-1.72c-4.45-1.82-7.36-4.81-7.36-8.21s2.85-6.33,7.24-8.15a24.37,24.37,0,0,1,5.83-1.58A149.72,149.72,0,0,1,290.43,80.32Z"/><ellipse class="cls-5" cx="274.08" cy="91.05" rx="11.29" ry="12.81"/><rect class="cls-7" x="50" y="221.1" width="300" height="28.9"/><path class="cls-8" d="M268.44,123.8l-1.6,5.78-4.62.3-.86.05-1.72.11-4,.26-4.19.26-5.25.32-1.95.12h0l-2.18.13-4.19.25-4.39.25-4.17.23-4.19.21c-2.76.14-4.85.22-5.88.22h-.31c-3.44,0-14.69.27-25.41.51l-3.56.07-4,.09-4.19.09-5.25.1c-1.81,0-3.25,0-4.17,0h-1.05l-3.14-.1-4.39-.11-4.17-.11-4.18-.11-5.54-.14L124.93,132l-5.42-.14-4.05-.11-4.19-.12-5.25-.17-1,0c-.54,0-1.64-.13-3.17-.28-1.17-.1-2.59-.24-4.19-.4l-4.38-.44-4.17-.44-4.19-.44-.38,0h0c-8-.84-16.47-1.79-22.27-2.49q1.8-4.19,3.86-8.23l15.75,1.25s43.37,2.48,45.85,2.72,50.56.46,56,.71,45.66-1.25,52.27-1.5l29-1.09Z"/><polygon class="cls-9" points="80.47 130.72 81.68 171.34 73.81 232.29 124.19 232.29 124.93 131.31 82.14 129.24 80.47 130.72"/><polygon class="cls-9" points="149.75 132.26 193.44 132.51 196.22 232.29 148.56 232.29 152.69 182.98 149.75 132.26"/><polygon class="cls-10" points="218.31 132.32 262.2 129.54 266.72 232.38 223.73 232.19 223.91 199.81 218.31 132.32"/><line class="cls-11" x1="84.92" y1="128.83" x2="84.92" y2="232.36"/><line class="cls-11" x1="89.11" y1="128.55" x2="89.11" y2="231.83"/><line class="cls-11" x1="93.28" y1="128.61" x2="93.28" y2="232.05"/><line class="cls-11" x1="97.66" y1="130.19" x2="97.66" y2="232.32"/><line class="cls-11" x1="101.85" y1="129.66" x2="101.63" y2="232.38"/><line class="cls-11" x1="106.02" y1="129.87" x2="105.93" y2="232.66"/><line class="cls-11" x1="111.27" y1="129.14" x2="111.27" y2="232.19"/><line class="cls-11" x1="115.46" y1="130.75" x2="115.35" y2="232.24"/><line class="cls-11" x1="119.51" y1="129.34" x2="119.51" y2="232.24"/><polygon class="cls-12" points="83.73 129.24 83.73 126.57 123.06 128.67 123.06 131.22 83.73 129.24"/><line class="cls-11" x1="155.3" y1="130.57" x2="155.3" y2="231.94"/><line class="cls-11" x1="159.49" y1="130.29" x2="159.49" y2="231.99"/><line class="cls-11" x1="163.66" y1="130.35" x2="163.66" y2="232"/><line class="cls-11" x1="168.05" y1="131.92" x2="168.05" y2="231.84"/><line class="cls-11" x1="172.24" y1="131.39" x2="172.24" y2="231.79"/><line class="cls-11" x1="176.41" y1="131.61" x2="176.41" y2="231.88"/><line class="cls-11" x1="181.66" y1="130.88" x2="181.66" y2="232.18"/><line class="cls-11" x1="185.85" y1="132.49" x2="185.85" y2="232.28"/><line class="cls-11" x1="189.89" y1="131.08" x2="189.89" y2="232.24"/><polygon class="cls-13" points="191.15 132.51 191.15 130.32 152.56 129.77 152.56 132.51 191.15 132.51"/><line class="cls-11" x1="225.05" y1="130.63" x2="225.05" y2="231.99"/><line class="cls-11" x1="229.24" y1="130.35" x2="229.24" y2="232.05"/><line class="cls-11" x1="233.41" y1="130.4" x2="233.41" y2="232.05"/><line class="cls-11" x1="237.8" y1="130.45" x2="237.8" y2="231.9"/><line class="cls-11" x1="241.99" y1="130.5" x2="241.99" y2="231.85"/><line class="cls-11" x1="246.16" y1="130.18" x2="246.16" y2="231.94"/><line class="cls-11" x1="251.41" y1="129.69" x2="251.41" y2="232.24"/><line class="cls-11" x1="255.6" y1="129.85" x2="255.6" y2="232.34"/><line class="cls-11" x1="259.64" y1="129.96" x2="259.64" y2="232.3"/><polygon class="cls-13" points="220.46 132.22 220.46 130.04 261.36 127.68 261.36 130.12 220.46 132.22"/><path class="cls-14" d="M326.38,289.93c-1.91,3-3.92,5.88-6,8.7A148.2,148.2,0,0,1,310.08,311H239.73L245,298.63l3.67-8.7Z"/><path class="cls-15" d="M310.08,311a151.51,151.51,0,0,1-19.32,17.53h-51V311Z"/><path class="cls-16" d="M318,245.29s2.3,9.77,2.3,17-1.53,22.22-2.3,24.52-4.79,14.17-9,16.28-16.28,5-20.69,4.4-21.64-.57-26-11.3a31.42,31.42,0,0,1-1.53-19.79l2.49-12.29s5.7-2.91,8-.47,3.37,7,3.37,7a47.45,47.45,0,0,0-.81,5.78,3.68,3.68,0,0,0,1.74,3.4c1.17.82,2.33,1.63,4.19.82s2.09-1.1,3-4.22,1.51-11.83,1.51-11.83l-10-36.15,3.6-12.56,20.11,1.75Z"/><path class="cls-17" d="M267.53,223.48l1.24,17.15s5.37-1.5,8,.42,5.38,9.28,4.93,12.44a12.21,12.21,0,0,1-1.94,5.16l-8.12,9.22-9-1.63s1.24-9.77.79-12.48-1.69-10.19-4.06-14.14S253.33,229.87,252,228s-4.41-5.92-1.93-7.49,8,.44,8,.44Z"/><path class="cls-17" d="M270.72,267.63l10.62-11.72s6.52-2.44,8.12,2.46-1,5.47-1,5.47,3.54,2.4,2.74,6.05-1.83,3.42-1.83,3.42a5.71,5.71,0,0,1-.68,5.59c-2.05,2.5-4,2.16-4,2.16l-2.95-1.91s.63-3.22-.72-4.47a5.65,5.65,0,0,0-5.34-.8A2.56,2.56,0,0,0,274,275.4s.72-4.17-1.25-6Z"/><path class="cls-18" d="M268.3,242.63a27.45,27.45,0,0,1,.86,9.06c-.53,4-2.78,15.22-2.78,15.22"/><line class="cls-18" x1="281.34" y1="255.91" x2="270.72" y2="267.63"/><path class="cls-18" d="M288.43,263.84a49.29,49.29,0,0,0-6.27,1.62c-1.33.45-8.5,5.47-8.5,5.47"/><path class="cls-18" d="M289.34,273.31s-1.25-1.09-4.1-.47a10,10,0,0,0-4.24,1.84"/><path class="cls-18" d="M286.21,242.63s1.05,2.8,3.8,2.8,4.14-2.8,4.14-2.8"/><path class="cls-18" d="M307,264.59s1,2.8,3.8,2.8,4.14-2.8,4.14-2.8"/><path class="cls-18" d="M293,257.15s1.05,2.79,3.8,2.79,4.13-2.79,4.13-2.79"/><path class="cls-18" d="M271.57,274.38a2.18,2.18,0,0,0-1.06-2.11,2.55,2.55,0,0,0-2.47.31"/><path class="cls-18" d="M269.2,288.35a2.81,2.81,0,0,0-3,.66,3.29,3.29,0,0,0-.4,3.19"/><path class="cls-18" d="M288.59,282.33s.16,3,2.79,3.8,4.78-1.44,4.78-1.44"/><path class="cls-18" d="M286.43,296.09s-1.53,2.56.18,4.72,4.76,1.49,4.76,1.49"/><path class="cls-18" d="M300.28,292.2s1.05,2.79,3.8,2.79,4.14-2.79,4.14-2.79"/><path class="cls-18" d="M277.92,282.22a3.37,3.37,0,0,0-.06,3.64,3.92,3.92,0,0,0,3.6,1.36"/><path class="cls-18" d="M290.18,233.17s1.05,2.8,3.8,2.8,4.13-2.8,4.13-2.8"/><path class="cls-16" d="M253.56,182.93s-2.16-3.59-1.44-5.93,5-3.77,5-3.77l7.36-1.43s1.18-3.5,2.26-3.83l2.67-.84s1.5-2.16,2.58-2.33l1.09-.16A7,7,0,0,1,278.6,159c4.84-.92,8.75-1.58,12.5-1.33a49.86,49.86,0,0,1,9.25,2,22.69,22.69,0,0,1,7.08,3.08,39.88,39.88,0,0,1,7.25,6.08,20.69,20.69,0,0,1,3.5,7.08c.75,2.92,1.17,7.17,1.58,9a77,77,0,0,1,1.17,7.67,50.5,50.5,0,0,0,.92,5.16l-5.09.25s1.75,7,1.75,7.92a40,40,0,0,0,1.84,7.41c.41.59,2.91,5.58,2.91,7a8.09,8.09,0,0,0,.17,2h-7.75s3.08,4.83,3.42,8A49.89,49.89,0,0,0,321,239c.42,1.08,3,5.66,3,5.66H312.68L296.77,240V225l-8.25-2.25a19.09,19.09,0,0,1-5.08,1.92c-3.17.75-4.25.5-4.25.5v13.33s-5.17.75-7.5,2.5-7.5,2.25-7.5,2.25l.08-16.67a11.18,11.18,0,0,0-2-3.33l-1.08-1a14.57,14.57,0,0,1,1-4.08c.75-1.5-.42-3.17.25-5.83s1.17-6,1.17-6a7.76,7.76,0,0,1-3.63-2.49A8.72,8.72,0,0,1,258.9,200l1.51-1.65s1.13-3.25,1.74-3.39,2.5,1.46,2.5,1.46a13.56,13.56,0,0,0,3.44.19c1.88-.14,4.23-1.79,4.28-4s-2.4-4-3.06-4.19a18.84,18.84,0,0,0-5.09.14c-1,.28-2.87,3.49-2.87,3.49L258.9,194a2,2,0,0,1-1.22-1.18c-.29-.89-.57-2-.57-2s-3-1.56-3.39-3.53A18.14,18.14,0,0,1,253.56,182.93Z"/><path class="cls-19" d="M268,170.48l6,2.17-4.73,2.17s-1.78-.4-2-1.78A3.88,3.88,0,0,1,268,170.48Z"/><path class="cls-19" d="M284.73,168.81a14.49,14.49,0,0,0,.2-4.3,7,7,0,0,0-2.35-3.62,8.89,8.89,0,0,0-3.32,3.32,8.5,8.5,0,0,0-.59,4.11l3.23.57.1.72a2.54,2.54,0,0,0,1.69-.26A2.8,2.8,0,0,1,284.73,168.81Z"/><path class="cls-18" d="M284,161a11.26,11.26,0,0,1,4.24,4.78c1,2.14.91,4.08.65,6.85-.58,6.42-.88,9.63-2.39,14-.53,1.54-2.32,5-5.87,11.74-3.4,6.48-5.13,9.77-6.63,12s-2.67,3.57-5.76,8c-1.55,2.23-2.78,4.08-3.59,5.32"/><path class="cls-18" d="M285.33,160.39a10.47,10.47,0,0,1,5,3.9c1.33,2,1.59,4.13,1.56,7a52.09,52.09,0,0,1-2.34,14.51c-1.43,5-2.35,7.27-4.36,13.26-2.92,8.69-3.38,10.17-3.91,12.33a75.51,75.51,0,0,0-1.87,11.86"/><path class="cls-18" d="M295,179.27c-1,6.92-2.22,12.45-3.13,16.22-1.19,5-2,7.24-2.65,11.39a66.76,66.76,0,0,0-.78,13.89"/><path class="cls-18" d="M306.75,165.26a38.21,38.21,0,0,1,5.1,9.8,38.85,38.85,0,0,1,1.88,17.17"/><path class="cls-18" d="M296.51,224.39c-.12-.9-.29-2.19-.4-3.75a61.62,61.62,0,0,1,.27-11.14c.4-4.32.92-9.22,1.61-14.62"/><path class="cls-18" d="M314.92,221.21A36.09,36.09,0,0,1,311,210.78c-1.11-5.41,0-6.65-.47-14.09a74.38,74.38,0,0,0-3.44-18,70.14,70.14,0,0,0-3.79-9.36"/><path class="cls-1" d="M253.48,182.82l.92-.46,2.6-3.14s3.29-2.91,5-3.53a11.68,11.68,0,0,1,4.44-.23,16.66,16.66,0,0,1-1.07-2.62,1.58,1.58,0,0,0-.77-1"/><path class="cls-18" d="M264.24,243.29s6.06-.5,7.5-2.25,7.49-2.5,7.49-2.5V225.21s4.07.35,5.44-.82a9.79,9.79,0,0,1,3.9-1.6l8.24,2.25v15l15.92,4.66h11.33s-2.79-4.41-3.46-7.17"/><path class="cls-20" d="M134.92,272.69c7-4.3,11.86-17.25,11.86-17.25,0-2.06,7.61-24.88,25.74-41.17,13.54-12.17,26.4-17.41,44.18-21.72,17.28-4.18,44.35,2.57,44.35,2.57s-13.45-1.44-18.43-.69-32.06,7.3-41.42,16.65-16.33,26.21-16.33,32.2-.6,17.59,1,20.77-.34,5.47,1.45,6.59S134.92,272.69,134.92,272.69Z"/><ellipse class="cls-21" cx="144.35" cy="268.65" rx="14.3" ry="9.33"/><ellipse class="cls-21" cx="156.95" cy="272.34" rx="9.52" ry="5.84"/><ellipse class="cls-21" cx="165.78" cy="266.73" rx="8.82" ry="7.85"/><ellipse class="cls-21" cx="175.07" cy="273.37" rx="13.41" ry="5.9"/><ellipse class="cls-21" cx="183.46" cy="269.53" rx="10.91" ry="9.31"/></g></g></svg>