<svg id="Layer_1" data-name="Layer 1" xmlns="http://www.w3.org/2000/svg" xmlns:xlink="http://www.w3.org/1999/xlink" viewBox="0 0 400 400"><defs><style>.cls-1,.cls-10,.cls-30,.cls-35,.cls-36,.cls-41,.cls-42,.cls-43,.cls-46,.cls-7,.cls-9{fill:none;}.cls-2{clip-path:url(#clip-path);}.cls-3{fill:#afdafa;}.cls-4{fill:#d7e9f4;}.cls-5{fill:#ebf2ef;}.cls-6{fill:#7b7c7c;}.cls-7{stroke:#7b7c7c;}.cls-10,.cls-30,.cls-35,.cls-36,.cls-41,.cls-42,.cls-43,.cls-46,.cls-7{stroke-miterlimit:10;}.cls-35,.cls-36,.cls-41,.cls-46,.cls-7{stroke-width:0.5px;}.cls-8{fill:#323437;}.cls-9{stroke:#ebf2ef;stroke-linejoin:bevel;stroke-width:1.5px;}.cls-10{stroke:#dae0df;stroke-width:2px;}.cls-11{fill:#9baabc;}.cls-12{fill:#5b5855;}.cls-13{fill:#006994;}.cls-14{fill:#3f3d3b;}.cls-15{fill:#846649;}.cls-16{fill:#252628;}.cls-17{fill:#997b5b;}.cls-18{fill:#a68d70;}.cls-19{fill:#917c67;}.cls-20{fill:#9e8163;}.cls-21{fill:#2b2722;}.cls-22{fill:#23201c;}.cls-23{fill:#6f5a3e;}.cls-24{fill:#aa8d6d;}.cls-25{fill:#5b4a36;}.cls-26{fill:#262728;}.cls-27{fill:#846c4e;}.cls-28{fill:#231f20;}.cls-29{fill:#594938;}.cls-30{stroke:#929998;}.cls-30,.cls-42{stroke-width:0.25px;}.cls-31{fill:#b8976a;}.cls-32{fill:#aa8b66;}.cls-33{fill:#586361;}.cls-34{fill:#667572;}.cls-35{stroke:#231f20;}.cls-36{stroke:#937857;}.cls-37{fill:#3a3839;}.cls-38{fill:#8e7338;}.cls-39{fill:#d6af0b;}.cls-40{fill:#c6c4c5;}.cls-41,.cls-42,.cls-43{stroke:#3a3839;}.cls-43{stroke-width:0.15px;}.cls-44{fill:#2b2a2a;}.cls-45{fill:#937857;}.cls-46{stroke:#594938;}.cls-47{fill:#826549;}.cls-48{fill:#897053;}.cls-49{fill:#785c41;}.cls-50{fill:#70573a;}</style><clipPath id="clip-path"><circle class="cls-1" cx="200" cy="200" r="150"/></clipPath></defs><g id="UK"><g class="cls-2"><polygon class="cls-3" points="45.37 287.45 380.39 287.45 380.39 41.13 29.76 41.13 45.37 287.45"/><ellipse class="cls-4" cx="54" cy="142.74" rx="16.42" ry="14.11"/><ellipse class="cls-4" cx="86.39" cy="144.53" rx="21.46" ry="12.31"/><circle class="cls-4" cx="72.89" cy="131.09" r="17.41"/><ellipse class="cls-4" cx="302.16" cy="144.13" rx="22.3" ry="12.5"/><ellipse class="cls-4" cx="276.9" cy="132.79" rx="25.74" ry="17.4"/><ellipse class="cls-4" cx="252.7" cy="144.13" rx="17.63" ry="11.34"/><ellipse class="cls-4" cx="179.61" cy="81.87" rx="21.85" ry="10.11"/><ellipse class="cls-4" cx="153.29" cy="91.98" rx="23.34" ry="15.51"/><ellipse class="cls-4" cx="160.57" cy="74.3" rx="20.53" ry="12.02"/><path class="cls-5" d="M117.9,190.6a257.48,257.48,0,0,1-4.71,26q-2.94,12.83-6.62,25.43t-8.06,25a255.75,255.75,0,0,1-10,24.44,254.88,254.88,0,0,1,4.7-26q2.94-12.82,6.63-25.42t8.07-25A257.22,257.22,0,0,1,117.9,190.6Z"/><path class="cls-5" d="M116.8,190.42A259.67,259.67,0,0,1,127,214.88q4.54,12.41,8.33,25t6.88,25.47a256.38,256.38,0,0,1,5,26.05A257.13,257.13,0,0,1,137,267q-4.53-12.41-8.31-25t-6.88-25.47A259.72,259.72,0,0,1,116.8,190.42Z"/><rect class="cls-6" x="178.03" y="226.78" width="3.28" height="3.28" transform="matrix(0.5, -0.87, 0.87, 0.5, -107.98, 269.81)"/><rect class="cls-6" x="52.92" y="154.54" width="3.28" height="3.28" transform="translate(-107.98 125.34) rotate(-60)"/><line class="cls-7" x1="180.63" y1="228.97" x2="53.56" y2="155.61"/><rect class="cls-6" x="161.9" y="246" width="3.28" height="3.28" transform="translate(-120.92 163.06) rotate(-40)"/><rect class="cls-6" x="69.04" y="135.33" width="3.28" height="3.28" transform="translate(-71.5 77.48) rotate(-40)"/><line class="cls-7" x1="164.26" y1="248.49" x2="69.94" y2="136.08"/><rect class="cls-6" x="140.18" y="258.54" width="3.28" height="3.28" transform="translate(-80.44 64.2) rotate(-20)"/><rect class="cls-6" x="90.77" y="122.78" width="3.28" height="3.28" transform="translate(-36.98 39.11) rotate(-20)"/><line class="cls-7" x1="142.2" y1="261.22" x2="92.02" y2="123.34"/><rect class="cls-6" x="115.47" y="262.9" width="3.28" height="3.28" transform="translate(234.22 529.08) rotate(-180)"/><rect class="cls-6" x="115.47" y="118.43" width="3.28" height="3.28" transform="translate(234.23 240.13) rotate(-180)"/><line class="cls-7" x1="117.12" y1="265.65" x2="117.12" y2="118.92"/><rect class="cls-6" x="90.76" y="258.54" width="3.28" height="3.28" transform="translate(-183.69 258.03) rotate(-70)"/><rect class="cls-6" x="140.18" y="122.78" width="3.28" height="3.28" transform="translate(-23.6 215.14) rotate(-70)"/><line class="cls-7" x1="92.03" y1="261.22" x2="142.21" y2="123.34"/><rect class="cls-6" x="69.04" y="246" width="3.28" height="3.28" transform="translate(-164.45 142.6) rotate(-50)"/><rect class="cls-6" x="161.91" y="135.33" width="3.28" height="3.28" transform="translate(-46.5 174.21) rotate(-50)"/><line class="cls-7" x1="69.97" y1="248.49" x2="164.29" y2="136.09"/><rect class="cls-6" x="52.91" y="226.78" width="3.28" height="3.28" transform="translate(-106.9 57.88) rotate(-30)"/><rect class="cls-6" x="178.03" y="154.55" width="3.28" height="3.28" transform="translate(-54.02 110.76) rotate(-30)"/><line class="cls-7" x1="53.6" y1="228.98" x2="180.67" y2="155.61"/><rect class="cls-6" x="44.33" y="203.2" width="3.28" height="3.28" transform="translate(-34.87 11.1) rotate(-10)"/><rect class="cls-6" x="186.61" y="178.12" width="3.28" height="3.28" transform="translate(-28.36 35.42) rotate(-10)"/><line class="cls-7" x1="44.89" y1="205.04" x2="189.39" y2="179.56"/><rect class="cls-6" x="44.33" y="178.12" width="3.28" height="3.28" transform="translate(-139.04 193.82) rotate(-80)"/><rect class="cls-6" x="186.61" y="203.21" width="3.28" height="3.28" transform="translate(-46.17 354.67) rotate(-80)"/><line class="cls-7" x1="44.89" y1="179.57" x2="189.38" y2="205.05"/><circle class="cls-8" cx="117.06" cy="192.33" r="3.01"/><polyline class="cls-9" points="117.11 118.96 132.64 111.95 142.15 123.39"/><polyline class="cls-9" points="117.01 118.96 101.48 111.95 91.97 123.39"/><polyline class="cls-9" points="69.73 136.27 77.06 120.89 91.71 123.48"/><polyline class="cls-9" points="69.82 136.19 53.42 140.82 53.49 155.69"/><polyline class="cls-9" points="44.83 179.49 40.63 162.97 53.55 155.6"/><polyline class="cls-9" points="164.33 136.22 156.98 120.84 142.34 123.45"/><polyline class="cls-9" points="164.41 136.29 180.8 140.94 180.7 155.82"/><polyline class="cls-9" points="189.38 180 193.7 163.51 180.83 156.05"/><polyline class="cls-9" points="189.36 179.89 198.92 194 189.27 205.32"/><polyline class="cls-9" points="180.55 229.1 194.41 219.18 189.28 205.22"/><polyline class="cls-9" points="92.53 261.47 75.55 262.9 70.4 248.94"/><polyline class="cls-9" points="92.63 261.5 104.93 273.3 117.71 265.69"/><polyline class="cls-9" points="142.97 260.96 130.93 273.02 117.99 265.69"/><polyline class="cls-9" points="53.64 229.21 55.37 246.16 70.04 248.64"/><polyline class="cls-9" points="53.59 229.12 39.72 219.21 44.84 205.24"/><polyline class="cls-9" points="44.82 179.54 35.2 193.61 44.79 204.97"/><polyline class="cls-9" points="142.87 261 159.87 262.12 164.76 248.07"/><polyline class="cls-9" points="180.87 228.53 179.32 245.5 164.68 248.14"/><path class="cls-10" d="M117.11,110.81a81.52,81.52,0,1,0,81.52,81.52A81.51,81.51,0,0,0,117.11,110.81Zm0,154.88a73.37,73.37,0,1,1,73.37-73.36A73.37,73.37,0,0,1,117.11,265.69Z"/><path class="cls-11" d="M122.65,275.25c0-2.4-2.47-4.34-5.51-4.34s-5.52,1.94-5.52,4.34,2.47,4.34,5.52,4.34S122.65,277.65,122.65,275.25Z"/><path class="cls-11" d="M83.11,270.33c0-2.4,2.46-4.34,5.51-4.34s5.52,1.94,5.52,4.34-2.47,4.34-5.52,4.34S83.11,272.73,83.11,270.33Z"/><path class="cls-11" d="M57.38,256.83c0-2.4,2.47-4.34,5.52-4.34s5.51,1.94,5.51,4.34-2.46,4.34-5.51,4.34S57.38,259.23,57.38,256.83Z"/><path class="cls-11" d="M38.13,234.7c0-2.39,2.46-4.33,5.51-4.33s5.52,1.94,5.52,4.33S46.69,239,43.64,239,38.13,237.1,38.13,234.7Z"/><path class="cls-11" d="M151,270.33c0-2.4-2.46-4.34-5.51-4.34s-5.52,1.94-5.52,4.34,2.47,4.34,5.52,4.34S151,272.73,151,270.33Z"/><path class="cls-11" d="M176.74,256.83c0-2.4-2.47-4.34-5.52-4.34s-5.51,1.94-5.51,4.34,2.46,4.34,5.51,4.34S176.74,259.23,176.74,256.83Z"/><path class="cls-11" d="M196,234.7c0-2.39-2.46-4.33-5.51-4.33S185,232.31,185,234.7s2.47,4.34,5.52,4.34S196,237.1,196,234.7Z"/><path class="cls-11" d="M122.65,109.4c0,2.4-2.47,4.34-5.51,4.34s-5.52-1.94-5.52-4.34,2.47-4.34,5.52-4.34S122.65,107,122.65,109.4Z"/><path class="cls-11" d="M83.11,114.32c0,2.4,2.46,4.34,5.51,4.34s5.52-1.94,5.52-4.34S91.67,110,88.62,110,83.11,111.93,83.11,114.32Z"/><path class="cls-11" d="M57.38,127.82c0,2.4,2.47,4.34,5.52,4.34s5.51-1.94,5.51-4.34-2.46-4.34-5.51-4.34S57.38,125.43,57.38,127.82Z"/><path class="cls-11" d="M38.13,150c0,2.4,2.46,4.34,5.51,4.34s5.52-1.94,5.52-4.34-2.47-4.34-5.52-4.34S38.13,147.55,38.13,150Z"/><path class="cls-11" d="M30,178.14c0,2.4,2.47,4.34,5.51,4.34S41,180.54,41,178.14s-2.46-4.34-5.52-4.34S30,175.74,30,178.14Z"/><path class="cls-11" d="M29.69,206.33c0,2.4,2.46,4.34,5.51,4.34s5.52-1.94,5.52-4.34S38.25,202,35.2,202,29.69,203.93,29.69,206.33Z"/><path class="cls-11" d="M151,114.32c0,2.4-2.46,4.34-5.51,4.34s-5.52-1.94-5.52-4.34,2.47-4.34,5.52-4.34S151,111.93,151,114.32Z"/><path class="cls-11" d="M176.74,127.82c0,2.4-2.47,4.34-5.52,4.34s-5.51-1.94-5.51-4.34,2.46-4.34,5.51-4.34S176.74,125.43,176.74,127.82Z"/><path class="cls-11" d="M196,150c0,2.4-2.46,4.34-5.51,4.34S185,152.35,185,150s2.47-4.34,5.52-4.34S196,147.55,196,150Z"/><path class="cls-11" d="M204.15,178.14c0,2.4-2.47,4.34-5.51,4.34s-5.52-1.94-5.52-4.34,2.46-4.34,5.52-4.34S204.15,175.74,204.15,178.14Z"/><path class="cls-11" d="M204.43,206.33c0,2.4-2.46,4.34-5.51,4.34s-5.52-1.94-5.52-4.34,2.47-4.34,5.52-4.34S204.43,203.93,204.43,206.33Z"/><polyline class="cls-12" points="53.08 275.09 344.31 275.09 286.94 355.63 68.14 355.63 53.08 275.09"/><polyline class="cls-13" points="47.48 291.11 338.71 291.11 281.34 368.45 62.54 368.45 47.48 291.11"/><rect class="cls-14" x="67.96" y="287.45" width="256.5" height="12.84"/><polygon class="cls-8" points="46.1 224.89 48.84 214.74 203.37 214.95 203.37 226 46.1 224.89"/><rect class="cls-15" x="228.17" y="218.26" width="28.49" height="57.07"/><polygon class="cls-8" points="205.86 196.64 210 187.94 219.45 187.94 222.88 196.64 205.86 196.64"/><polygon class="cls-8" points="262.16 193.79 264.82 186.95 275.77 186.95 278.94 193.79 278.94 197.79 262.16 197.79 262.16 193.79"/><rect class="cls-16" x="228.17" y="206.76" width="28.49" height="11.51"/><rect class="cls-17" x="201.01" y="200.91" width="27.17" height="74.49"/><rect class="cls-17" x="256.66" y="200.91" width="28.68" height="74.43"/><rect class="cls-18" x="201.01" y="224.65" width="27.17" height="1.36"/><rect class="cls-19" x="228.17" y="224.65" width="28.49" height="1.36"/><rect class="cls-18" x="256.68" y="224.65" width="28.66" height="1.36"/><rect class="cls-18" x="201.01" y="218.31" width="27.17" height="1.86"/><rect class="cls-19" x="228.17" y="218.31" width="28.49" height="1.86"/><rect class="cls-18" x="256.68" y="218.31" width="28.66" height="1.86"/><rect class="cls-20" x="201.01" y="200.91" width="27.17" height="2.72"/><rect class="cls-20" x="256.66" y="200.91" width="28.68" height="2.72"/><rect class="cls-18" x="201.01" y="261.16" width="27.17" height="1.36"/><rect class="cls-19" x="228.17" y="261.16" width="28.49" height="1.36"/><rect class="cls-18" x="256.68" y="261.16" width="28.66" height="1.36"/><rect class="cls-21" x="210.15" y="228.08" width="8.1" height="32.89"/><rect class="cls-21" x="266.96" y="228.08" width="8.1" height="32.89"/><rect class="cls-22" x="232.64" y="228.06" width="7.35" height="32.89"/><rect class="cls-23" x="201.01" y="241.85" width="27.17" height="5.35"/><rect class="cls-23" x="256.66" y="241.85" width="28.54" height="5.35"/><path class="cls-21" d="M211.28,215h6.09s.31-8.19-3.17-8.19S211.28,215,211.28,215Z"/><path class="cls-21" d="M268,215.07h6.09s.31-8.2-3.17-8.2S268,215.07,268,215.07Z"/><polygon class="cls-24" points="201.01 200.91 202.19 173.33 204.2 173.33 205.86 196.64 222.88 196.64 224.76 173.33 226.42 173.33 228.17 200.91 201.01 200.91"/><polyline class="cls-24" points="256.66 200.91 257.79 172.36 258.99 172.36 262.58 196.64 278.53 196.64 281.87 173.33 283.03 173.33 285.34 200.91"/><rect class="cls-21" x="210.15" y="269.05" width="2.55" height="6.35"/><rect class="cls-21" x="217.72" y="269.05" width="2.55" height="6.35"/><rect class="cls-21" x="266.37" y="269.05" width="2.55" height="6.35"/><rect class="cls-21" x="273.94" y="269.05" width="2.55" height="6.35"/><polygon class="cls-22" points="238.34 275.35 234.3 275.32 234.3 269.03 238.34 269.06 238.34 275.35"/><polygon class="cls-22" points="250.09 275.36 246.05 275.33 246.05 269.04 250.09 269.07 250.09 275.36"/><rect class="cls-22" x="244.39" y="228.06" width="7.35" height="32.89"/><rect class="cls-25" x="228.17" y="241.85" width="28.49" height="5.35"/><polygon class="cls-26" points="285.19 228.08 287.47 228.08 287.47 275.33 285.34 275.33 285.19 228.08"/><rect class="cls-27" x="286.95" y="124.93" width="29.94" height="5.25"/><path class="cls-28" d="M291.89,129.76h1.64s.22-3.85-.74-3.85S291.89,129.76,291.89,129.76Z"/><path class="cls-28" d="M294.85,129.76h1.63s.23-3.85-.73-3.85S294.85,129.76,294.85,129.76Z"/><path class="cls-28" d="M297.57,129.69h1.64s.22-3.85-.73-3.85S297.57,129.69,297.57,129.69Z"/><path class="cls-28" d="M300.53,129.69h1.64s.22-3.85-.74-3.85S300.53,129.69,300.53,129.69Z"/><path class="cls-28" d="M303.82,129.76h1.64s.22-3.85-.74-3.85S303.82,129.76,303.82,129.76Z"/><path class="cls-28" d="M306.78,129.76h1.63s.23-3.85-.73-3.85S306.78,129.76,306.78,129.76Z"/><path class="cls-28" d="M310.19,129.76h1.64s.22-3.85-.73-3.85S310.19,129.76,310.19,129.76Z"/><polygon class="cls-29" points="286.95 124.93 286.08 122.98 317.76 122.98 316.89 124.93 286.95 124.93"/><line class="cls-30" x1="301.27" y1="69.96" x2="301.27" y2="54.99"/><rect class="cls-31" x="286.69" y="157.42" width="30.46" height="117.89"/><rect class="cls-32" x="291.18" y="157.86" width="21.89" height="117.44"/><rect class="cls-27" x="284.8" y="152.97" width="33.56" height="4.89"/><rect class="cls-31" x="284.04" y="129.98" width="35.26" height="23.81"/><rect class="cls-33" x="292.84" y="98.26" width="16.8" height="2.29"/><path class="cls-34" d="M293.55,98.26s3.38-5.19,4.33-9,2.79-19.55,2.79-19.55h1.17s1.16,15.87,2.62,19.71A64.77,64.77,0,0,0,309,98.26Z"/><line class="cls-35" x1="283.34" y1="130.27" x2="319.83" y2="130.27"/><line class="cls-36" x1="284.04" y1="153.79" x2="284.04" y2="126.84"/><line class="cls-36" x1="319.13" y1="153.79" x2="319.13" y2="126.84"/><line class="cls-36" x1="284.36" y1="141.61" x2="319.13" y2="141.61"/><polygon class="cls-34" points="286.08 121.24 293.46 109.26 309.09 109.26 317.76 121.24 286.08 121.24"/><rect class="cls-33" x="286.08" y="121.24" width="31.68" height="1.74"/><path class="cls-28" d="M309.24,118.59s.23-2.24.95-2.24.95,2.24.95,2.24Z"/><path class="cls-28" d="M303.82,118.59s.22-2.24.95-2.24,1,2.24,1,2.24Z"/><path class="cls-28" d="M306.21,113.42s.23-2.24,1-2.24,1,2.24,1,2.24Z"/><path class="cls-28" d="M300.71,113.42s.23-2.24,1-2.24,1,2.24,1,2.24Z"/><path class="cls-28" d="M295.55,113.42s.23-2.24.95-2.24,1,2.24,1,2.24Z"/><path class="cls-28" d="M297.85,118.59s.23-2.24.95-2.24,1,2.24,1,2.24Z"/><path class="cls-28" d="M292.43,118.59s.23-2.24.95-2.24.95,2.24.95,2.24Z"/><path class="cls-37" d="M290.77,157.42s.09-2.73,1.23-2.73,1.08,2.73,1.08,2.73Z"/><path class="cls-37" d="M293.92,157.42s.1-2.73,1.23-2.73,1.08,2.73,1.08,2.73Z"/><path class="cls-37" d="M297,157.42s.09-2.73,1.23-2.73,1.08,2.73,1.08,2.73Z"/><path class="cls-37" d="M300.13,157.42s.1-2.73,1.23-2.73,1.08,2.73,1.08,2.73Z"/><path class="cls-37" d="M303,157.42s.1-2.73,1.23-2.73,1.08,2.73,1.08,2.73Z"/><path class="cls-37" d="M306.12,157.42s.1-2.73,1.23-2.73,1.08,2.73,1.08,2.73Z"/><path class="cls-37" d="M309.18,157.42s.1-2.73,1.23-2.73,1.08,2.73,1.08,2.73Z"/><path class="cls-37" d="M312.33,157.42s.1-2.73,1.23-2.73,1.08,2.73,1.08,2.73Z"/><rect class="cls-27" x="293.46" y="101.61" width="15.63" height="7.19"/><path class="cls-28" d="M296.12,108.83h1.64s.22-6-.74-6S296.12,108.83,296.12,108.83Z"/><path class="cls-28" d="M299.08,108.83h1.63s.23-6-.73-6S299.08,108.83,299.08,108.83Z"/><path class="cls-28" d="M301.81,108.73h1.63s.23-6-.73-6S301.81,108.73,301.81,108.73Z"/><path class="cls-28" d="M304.76,108.73h1.64s.22-6-.73-6S304.76,108.73,304.76,108.73Z"/><rect class="cls-33" x="293.46" y="108.8" width="15.63" height="0.47"/><polygon class="cls-29" points="293.46 101.61 292.84 100.55 309.64 100.55 309.09 101.61 293.46 101.61"/><rect class="cls-33" x="299.91" y="68.96" width="2.73" height="1.47" rx="0.73"/><polyline class="cls-30" points="297.86 62.62 301.28 58.72 304.15 62.62"/><rect class="cls-28" x="289.58" y="130.73" width="24.64" height="22.82"/><rect class="cls-38" x="290.43" y="131.45" width="22.94" height="21.55"/><ellipse class="cls-39" cx="301.87" cy="142.22" rx="11.44" ry="10.75"/><ellipse class="cls-40" cx="301.87" cy="142.22" rx="10.7" ry="10.05"/><ellipse class="cls-41" cx="301.87" cy="142.22" rx="10.7" ry="10.05"/><ellipse class="cls-42" cx="301.87" cy="142.22" rx="8.56" ry="8.04"/><ellipse class="cls-43" cx="301.87" cy="142.22" rx="6.55" ry="6.15"/><line class="cls-42" x1="301.87" y1="152.28" x2="301.87" y2="150.27"/><line class="cls-42" x1="301.87" y1="134.18" x2="301.87" y2="132.17"/><line class="cls-42" x1="307.22" y1="150.93" x2="306.15" y2="149.18"/><line class="cls-42" x1="297.59" y1="135.27" x2="296.53" y2="133.52"/><line class="cls-42" x1="311.14" y1="147.24" x2="309.28" y2="146.23"/><line class="cls-42" x1="294.47" y1="138.2" x2="292.62" y2="137.2"/><line class="cls-42" x1="312.58" y1="142.22" x2="310.42" y2="142.22"/><line class="cls-42" x1="293.32" y1="142.22" x2="291.18" y2="142.22"/><line class="cls-42" x1="311.14" y1="137.2" x2="309.28" y2="138.2"/><line class="cls-42" x1="294.47" y1="146.23" x2="292.62" y2="147.24"/><line class="cls-42" x1="307.22" y1="133.52" x2="306.15" y2="135.27"/><line class="cls-42" x1="297.59" y1="149.18" x2="296.53" y2="150.93"/><path class="cls-44" d="M301.3,144.53c.09-.93.29-1.84.47-2.75s.49-1.79.74-2.68.54-1.77.77-2.67c.06-.23,0-.48.07-.7l.22-.66a13,13,0,0,1,.49-1.31h.05c0,.47-.11.93-.19,1.39l-.14.68c0,.23-.21.42-.26.65-.24.9-.42,1.81-.62,2.71s-.38,1.82-.64,2.71-.54,1.77-.91,2.63Z"/><path class="cls-44" d="M299.48,141.59a11.41,11.41,0,0,1,1.85.23c.61.12,1.2.32,1.8.5s1.18.38,1.78.52c.15,0,.32,0,.47,0a3.88,3.88,0,0,1,.45.14,5.07,5.07,0,0,1,.86.39v0a5,5,0,0,1-.95-.06c-.15,0-.3,0-.45-.08s-.28-.17-.43-.21c-.6-.15-1.21-.25-1.82-.37s-1.22-.22-1.82-.41a11.1,11.1,0,0,1-1.74-.66Z"/><ellipse class="cls-37" cx="301.92" cy="142.22" rx="0.65" ry="0.61"/><line class="cls-43" x1="301.87" y1="150.27" x2="301.87" y2="148.38"/><line class="cls-43" x1="301.87" y1="136.08" x2="301.87" y2="134.18"/><line class="cls-43" x1="306.15" y1="149.18" x2="305.15" y2="147.55"/><line class="cls-43" x1="298.59" y1="136.9" x2="297.59" y2="135.27"/><line class="cls-43" x1="309.28" y1="146.23" x2="307.55" y2="145.3"/><line class="cls-43" x1="296.21" y1="139.16" x2="294.46" y2="138.2"/><line class="cls-43" x1="310.42" y1="142.22" x2="308.43" y2="142.22"/><line class="cls-43" x1="295.33" y1="142.22" x2="293.32" y2="142.22"/><line class="cls-43" x1="309.28" y1="138.2" x2="307.55" y2="139.14"/><line class="cls-43" x1="296.21" y1="145.28" x2="294.46" y2="146.23"/><line class="cls-43" x1="306.15" y1="135.27" x2="305.15" y2="136.9"/><line class="cls-43" x1="298.59" y1="147.55" x2="297.59" y2="149.18"/><line class="cls-35" x1="283.34" y1="153.79" x2="319.92" y2="153.79"/><path class="cls-28" d="M305.62,98.26s.22-2.24.95-2.24.95,2.24.95,2.24Z"/><path class="cls-28" d="M300.12,98.26s.22-2.24.95-2.24.95,2.24.95,2.24Z"/><path class="cls-28" d="M295,98.26s.22-2.24,1-2.24.95,2.24.95,2.24Z"/><path class="cls-28" d="M302.87,95.07s.22-2.24.95-2.24.95,2.24.95,2.24Z"/><path class="cls-28" d="M297.37,95.07s.22-2.24.95-2.24.95,2.24.95,2.24Z"/><rect class="cls-45" x="290.77" y="157.86" width="3.15" height="117.44"/><rect class="cls-45" x="295.48" y="157.86" width="3.15" height="117.44"/><rect class="cls-45" x="300.15" y="157.93" width="3.15" height="117.44"/><rect class="cls-45" x="309.92" y="157.86" width="3.15" height="117.44"/><rect class="cls-45" x="304.94" y="157.93" width="3.15" height="117.44"/><rect class="cls-27" x="285.78" y="183.1" width="32.58" height="3.99"/><rect class="cls-27" x="285.78" y="204.69" width="32.58" height="3.99"/><rect class="cls-27" x="285.78" y="227.19" width="32.58" height="7.14"/><rect class="cls-27" x="285.63" y="249.13" width="32.58" height="5.76"/><line class="cls-46" x1="318.36" y1="157.86" x2="284.8" y2="157.86"/><polyline class="cls-24" points="163.6 225.32 160.27 225.32 161.68 209.98 162.79 209.98"/><rect class="cls-47" x="43.73" y="228.32" width="158.73" height="47.07"/><rect class="cls-48" x="43.73" y="224.89" width="158.73" height="3.43"/><rect class="cls-21" x="188.75" y="268.47" width="4.65" height="6.85"/><rect class="cls-21" x="187.34" y="251.86" width="7.48" height="12.42"/><rect class="cls-21" x="186.48" y="231.25" width="9.19" height="16.43"/><rect class="cls-21" x="169.32" y="268.47" width="4.65" height="6.85"/><rect class="cls-21" x="167.91" y="251.86" width="7.48" height="12.42"/><rect class="cls-21" x="167.05" y="231.25" width="9.19" height="16.43"/><rect class="cls-21" x="149.89" y="268.47" width="4.65" height="6.85"/><rect class="cls-21" x="148.48" y="251.86" width="7.48" height="12.42"/><rect class="cls-21" x="147.62" y="231.25" width="9.19" height="16.43"/><rect class="cls-21" x="130.46" y="268.38" width="4.65" height="6.85"/><rect class="cls-21" x="129.05" y="251.78" width="7.48" height="12.42"/><rect class="cls-21" x="128.19" y="231.16" width="9.19" height="16.43"/><rect class="cls-21" x="111.03" y="268.47" width="4.65" height="6.85"/><rect class="cls-21" x="109.61" y="251.86" width="7.48" height="12.42"/><rect class="cls-21" x="108.76" y="231.25" width="9.19" height="16.43"/><rect class="cls-21" x="91.6" y="268.47" width="4.65" height="6.85"/><rect class="cls-21" x="90.18" y="251.86" width="7.48" height="12.42"/><rect class="cls-21" x="89.33" y="231.25" width="9.19" height="16.43"/><rect class="cls-21" x="72.21" y="268.38" width="4.65" height="6.85"/><rect class="cls-21" x="70.8" y="251.78" width="7.48" height="12.42"/><rect class="cls-21" x="69.95" y="231.16" width="9.19" height="16.43"/><rect class="cls-21" x="52.78" y="268.47" width="4.65" height="6.85"/><rect class="cls-21" x="51.37" y="251.86" width="7.48" height="12.42"/><rect class="cls-21" x="50.51" y="231.25" width="9.19" height="16.43"/><rect class="cls-49" x="43.73" y="263.64" width="158.73" height="2.24"/><rect class="cls-50" x="43.73" y="244.77" width="158.73" height="5.15"/><rect class="cls-24" x="179.7" y="225.32" width="3.33" height="50.07"/><polygon class="cls-24" points="179.7 225.32 181.11 209.98 182.22 209.98 183.03 225.32 179.7 225.32"/><rect class="cls-24" x="199.13" y="225.32" width="3.33" height="50.07"/><polygon class="cls-24" points="199.13 225.32 200.54 209.98 201.65 209.98 202.46 225.32 199.13 225.32"/><rect class="cls-24" x="160.27" y="225.32" width="3.33" height="50.07"/><polygon class="cls-24" points="160.27 225.32 161.68 209.98 162.79 209.98 163.6 225.32 160.27 225.32"/><rect class="cls-24" x="140.84" y="225.32" width="3.33" height="50.07"/><polygon class="cls-24" points="140.84 225.32 142.25 209.98 143.36 209.98 144.16 225.32 140.84 225.32"/><rect class="cls-24" x="121.41" y="225.24" width="3.33" height="50.07"/><polygon class="cls-24" points="121.41 225.24 122.82 209.9 123.93 209.9 124.73 225.24 121.41 225.24"/><rect class="cls-24" x="101.98" y="225.32" width="3.33" height="50.07"/><polygon class="cls-24" points="101.98 225.32 103.39 209.98 104.5 209.98 105.3 225.32 101.98 225.32"/><rect class="cls-24" x="82.55" y="225.32" width="3.33" height="50.07"/><polygon class="cls-24" points="82.55 225.32 83.96 209.98 85.07 209.98 85.87 225.32 82.55 225.32"/><rect class="cls-24" x="63.16" y="225.24" width="3.33" height="50.07"/><polygon class="cls-24" points="63.16 225.24 64.57 209.9 65.69 209.9 66.49 225.24 63.16 225.24"/><rect class="cls-24" x="43.73" y="225.32" width="3.33" height="50.07"/><polygon class="cls-24" points="43.73 225.32 45.14 209.98 46.26 209.98 47.06 225.32 43.73 225.32"/></g></g></svg>